<?xml version="1.0" standalone="no"?>
<!DOCTYPE svg PUBLIC "-//W3C//DTD SVG 20010904//EN"
 "http://www.w3.org/TR/2001/REC-SVG-20010904/DTD/svg10.dtd">
<svg version="1.0" xmlns="http://www.w3.org/2000/svg"
 width="1024.000000pt" height="1024.000000pt" viewBox="0 0 1024.000000 1024.000000"
 preserveAspectRatio="xMidYMid meet">

<g transform="translate(0.000000,1024.000000) scale(0.100000,-0.100000)"
fill="#000000" stroke="none">
<path d="M3233 8856 c4 -10 7 -44 7 -77 l0 -59 130 0 130 0 0 64 c0 76 8 72
-159 82 -106 7 -114 6 -108 -10z"/>
<path d="M8016 8833 c-3 -21 -6 -55 -6 -75 0 -35 2 -37 35 -43 19 -3 51 -7 70
-10 l35 -6 0 48 c0 26 3 65 6 86 l7 37 -70 0 -70 0 -7 -37z"/>
<path d="M7900 8765 c0 -63 1 -65 20 -55 11 6 26 10 33 9 27 -3 37 2 37 21 0
12 -7 20 -16 20 -12 0 -15 6 -10 24 7 27 4 30 -36 40 l-28 6 0 -65z"/>
<path d="M3076 8063 c4 -38 9 -70 11 -73 3 -3 1082 -5 2399 -5 l2394 0 0 -77
0 -78 75 0 75 0 1 -102 c1 -57 4 -93 6 -80 4 20 10 22 76 22 l72 0 0 -2082 -1
-2083 -77 -3 -78 -3 3 -77 3 -77 67 -5 66 -5 -4 -50 c-2 -35 0 -45 6 -34 6 9
13 68 16 130 l7 114 71 -3 71 -3 -2 68 c-1 37 -2 980 -2 2096 l-1 2027 -70 0
-70 0 0 150 0 150 -80 0 -80 0 0 75 0 75 -2480 0 -2481 0 7 -67z"/>
<path d="M2905 7971 c-5 -9 0 -65 11 -118 4 -21 10 -23 82 -23 l77 0 -3 75 -4
75 -78 0 c-43 0 -81 -4 -85 -9z"/>
<path d="M6418 7833 c6 -2 18 -2 25 0 6 3 1 5 -13 5 -14 0 -19 -2 -12 -5z"/>
<path d="M2754 7815 c-4 -8 -2 -41 2 -73 l9 -57 73 -3 72 -3 0 76 0 75 -75 0
c-58 0 -77 -3 -81 -15z"/>
<path d="M5010 7824 c-12 -4 -15 -21 -15 -77 l0 -72 -77 -3 c-89 -3 -85 2 -71
-110 l6 -54 71 4 71 3 5 85 5 85 98 3 97 3 0 63 c0 63 0 64 -31 70 -34 6 -134
6 -159 0z"/>
<path d="M5834 7821 c-2 -2 -4 -34 -4 -70 l0 -66 64 -1 c94 -2 94 -1 101 -91
l7 -79 72 3 71 2 3 75 3 76 -81 0 -80 0 0 74 0 74 -76 4 c-42 2 -78 1 -80 -1z"/>
<path d="M6218 7822 l-68 -3 0 -69 0 -70 80 0 81 0 -3 72 c-2 39 -7 72 -13 73
-5 0 -40 -1 -77 -3z"/>
<path d="M6620 7760 l0 -70 69 0 c43 0 72 -5 78 -12 12 -16 25 -131 17 -153
-5 -12 -23 -15 -84 -15 l-78 0 1 -72 c1 -40 5 -74 10 -75 4 -2 39 -3 77 -3
l70 0 0 75 0 75 75 0 75 0 0 49 c0 27 3 63 6 80 6 30 7 31 65 31 33 0 59 -4
59 -9 0 -5 5 -22 12 -38 10 -25 13 -17 24 82 7 60 12 110 11 111 -1 2 -41 6
-89 10 l-86 7 5 -82 6 -81 -77 0 c-74 0 -77 1 -87 28 -6 15 -8 50 -5 80 l6 52
-80 0 -80 0 0 -70z"/>
<path d="M3230 7755 l0 -65 75 0 75 0 0 49 c0 27 3 56 6 65 5 14 -5 16 -75 16
l-81 0 0 -65z"/>
<path d="M3552 7778 c1 -37 2 -38 5 -10 4 29 7 32 40 32 44 0 41 5 -9 14 l-38
7 2 -43z"/>
<path d="M3683 7804 c-3 -8 0 -33 6 -55 13 -45 28 -53 109 -62 l52 -6 0 69 0
70 -80 0 c-64 0 -82 -3 -87 -16z"/>
<path d="M4020 7756 l0 -64 74 -4 74 -3 6 50 c11 91 16 85 -74 85 l-80 0 0
-64z"/>
<path d="M4362 7758 c3 -54 6 -63 23 -66 11 -2 44 -8 73 -13 l52 -10 0 -54 c0
-73 14 -85 96 -85 l64 0 0 70 0 70 -80 0 -80 0 0 75 0 75 -75 0 -76 0 3 -62z"/>
<path d="M4670 7755 l0 -65 53 -1 c28 -1 64 -3 80 -5 l27 -3 0 70 0 69 -80 0
-80 0 0 -65z"/>
<path d="M5365 7748 l0 -73 -74 -3 -74 -3 7 -78 7 -78 -62 -7 c-34 -3 -77 -6
-95 -6 l-34 0 0 -76 0 -77 46 7 c26 3 71 6 101 6 l55 0 -4 78 -3 77 50 1 c28
1 55 2 61 3 6 0 14 26 17 57 3 31 8 59 11 61 12 13 106 15 120 4 12 -10 15 -1
21 56 3 37 8 80 10 96 l5 27 -83 0 -82 0 0 -72z"/>
<path d="M2660 7671 c-53 -5 -65 -9 -64 -23 0 -10 1 -43 2 -73 l2 -55 74 0 74
0 4 58 c4 73 0 102 -15 100 -7 -1 -41 -4 -77 -7z"/>
<path d="M3077 7607 c3 -40 7 -73 8 -75 1 -1 31 -5 66 -8 l65 -6 -4 73 c-2 41
-5 74 -6 75 0 1 -31 4 -68 7 l-67 6 6 -72z"/>
<path d="M3538 7673 c-12 -3 -18 -14 -18 -34 0 -42 -26 -48 -58 -14 l-27 27
35 -6 c26 -5 31 -4 19 3 -9 6 -35 13 -59 17 l-43 7 5 -71 c3 -39 2 -75 -1 -80
-3 -6 -41 -12 -84 -14 l-77 -3 0 -75 0 -75 77 5 78 5 3 71 3 72 37 6 c20 3 52
6 70 6 l32 0 1 73 c1 39 4 59 6 44 3 -17 9 -27 17 -24 20 8 119 -12 128 -25 4
-8 8 9 8 40 l0 52 -67 -1 c-38 -1 -76 -3 -85 -6z"/>
<path d="M5674 7625 c3 -27 6 -59 6 -71 0 -19 7 -22 72 -27 41 -4 75 -12 80
-19 5 -7 7 -43 4 -80 l-5 -68 80 0 79 0 0 70 0 69 -32 6 c-18 2 -53 6 -78 7
l-45 3 -3 77 -3 77 -81 3 -80 3 6 -50z"/>
<path d="M6465 7628 c12 -102 9 -98 69 -98 30 0 62 -3 71 -6 14 -6 16 3 13 72
l-3 79 -78 3 -78 3 6 -53z"/>
<path d="M3858 7603 c3 -38 10 -71 16 -75 6 -4 39 -8 74 -8 l62 0 0 75 0 75
-78 0 -78 0 4 -67z"/>
<path d="M4180 7601 l0 -69 80 -4 80 -3 0 73 0 72 -80 0 -80 0 0 -69z"/>
<path d="M7260 7618 c0 -95 2 -96 81 -95 l69 2 0 50 c0 28 3 60 6 73 6 21 4
22 -75 22 l-81 0 0 -52z"/>
<path d="M7888 7653 c6 -2 18 -2 25 0 6 3 1 5 -13 5 -14 0 -19 -2 -12 -5z"/>
<path d="M7958 7653 c7 -3 16 -2 19 1 4 3 -2 6 -13 5 -11 0 -14 -3 -6 -6z"/>
<path d="M2515 7510 l-70 -5 -3 -80 -3 -80 81 -2 80 -2 -1 62 c-1 34 -4 73 -8
87 -6 24 -8 25 -76 20z"/>
<path d="M6323 7510 c-18 -7 -23 -17 -23 -47 0 -78 5 -83 74 -83 35 0 67 -5
74 -12 9 -9 12 6 12 70 l0 82 -57 -1 c-32 0 -68 -4 -80 -9z"/>
<path d="M7101 7488 c0 -18 3 -51 7 -73 l7 -39 67 -1 66 0 4 65 c3 36 5 66 4
66 -1 1 -36 4 -78 8 l-78 7 1 -33z"/>
<path d="M3760 7503 l-65 -4 3 -70 4 -70 74 3 74 3 0 73 c0 52 -3 71 -12 70
-7 -1 -42 -3 -78 -5z"/>
<path d="M4020 7482 c0 -16 -3 -50 -6 -76 l-7 -46 82 0 81 0 0 73 0 72 -75 3
-75 3 0 -29z"/>
<path d="M4350 7438 l0 -73 75 0 75 0 0 72 0 73 -75 0 -75 0 0 -72z"/>
<path d="M4688 7437 l4 -75 74 -4 74 -3 0 73 0 72 -34 0 c-18 0 -53 3 -77 6
l-44 6 3 -75z"/>
<path d="M5510 7441 l0 -69 78 -4 c42 -3 78 -4 80 -3 1 1 3 33 5 71 l2 69 -82
3 -83 3 0 -70z"/>
<path d="M6233 7493 c9 -2 25 -2 35 0 9 3 1 5 -18 5 -19 0 -27 -2 -17 -5z"/>
<path d="M7577 7343 c-4 -3 -7 -20 -6 -37 l1 -31 9 34 c10 33 8 47 -4 34z"/>
<path d="M2279 7323 c-1 -4 0 -42 1 -83 l2 -75 -77 3 -77 4 7 -76 7 -76 -72 0
-73 0 9 -137 c4 -76 10 -419 12 -763 2 -344 4 -688 5 -765 1 -77 -2 -200 -7
-274 -4 -74 -9 -639 -11 -1255 -1 -617 -6 -1135 -10 -1153 -4 -18 -4 -48 -1
-67 l7 -35 67 -3 67 -3 -2 -76 -2 -75 72 0 72 1 -1 -70 -1 -70 2488 0 c2482 0
2489 0 2490 20 0 11 2 42 3 69 l3 49 81 -2 82 -2 0 75 0 76 76 0 77 0 -6 76
-7 76 75 -4 75 -3 0 88 0 89 78 -4 77 -3 3 84 3 84 74 -6 75 -5 0 73 c0 43 5
77 11 81 7 4 9 31 5 78 -3 39 -5 74 -6 79 0 4 -39 7 -86 7 l-86 0 7 -82 6 -83
-75 3 -76 4 0 -80 0 -80 -72 -4 c-40 -3 -76 -3 -79 -2 -9 5 -10 3708 -1 3866
l7 127 -80 3 -80 3 2 78 3 78 -83 -3 -82 -3 -3 65 -3 65 -2097 -3 c-1971 -3
-2422 1 -2799 25 -40 3 -73 1 -74 -4z m4821 -230 l0 -73 80 0 80 0 0 -74 c0
-86 0 -86 -101 -86 l-69 0 0 70 c0 77 -1 78 -64 55 -22 -8 -44 -11 -49 -8 -15
9 -27 -19 -27 -69 l0 -48 -75 0 -75 0 0 -73 0 -72 75 3 75 4 0 -59 0 -60 72
-6 c59 -5 74 -3 83 10 10 13 24 15 78 9 44 -4 67 -3 68 4 1 5 3 15 4 20 1 6 3
60 4 121 l1 111 55 -4 c64 -5 69 -1 70 59 0 41 -2 43 -32 49 -18 3 -33 10 -33
14 0 5 -8 11 -17 13 -10 3 9 5 42 6 l60 1 0 -2221 0 -2221 -77 7 -78 7 0 -75
0 -75 -72 -1 c-40 -1 -1157 -3 -2482 -6 l-2408 -6 7 76 7 75 -44 0 c-23 0 -60
3 -81 7 l-39 6 6 66 c4 36 8 1032 9 2212 l2 2146 95 7 c52 3 116 6 143 6 l47
0 0 70 0 70 223 2 c122 2 1170 3 2329 3 l2108 0 0 -72z"/>
<path d="M2456 6975 c3 -14 3 -46 -1 -71 l-7 -46 -76 4 c-57 2 -77 0 -76 -9 1
-7 2 -61 2 -120 l2 -108 127 1 c134 2 271 17 302 34 10 5 21 6 25 3 3 -3 6
-42 6 -85 l0 -78 -79 0 -78 0 -7 -147 c-8 -185 -8 -2990 1 -3170 l6 -133 72 0
c84 0 85 -1 85 -102 l0 -57 78 -3 77 -3 -3 -75 -2 -75 1860 0 1861 0 -3 73 -3
72 -1715 2 c-943 1 -1778 4 -1855 7 l-140 6 0 80 0 79 -83 -3 -84 -3 7 1644
c4 903 9 1646 12 1651 6 11 63 9 63 -3 0 -5 -4 -10 -10 -10 -5 0 -10 -11 -10
-25 0 -15 -6 -25 -15 -25 -11 0 -14 -11 -11 -47 3 -27 5 -50 5 -53 1 -3 6 2
11 10 6 10 10 11 10 3 0 -9 17 -13 51 -13 l51 0 -3 88 c-3 84 -3 87 19 86 12
0 47 -1 77 -2 l55 -2 0 -940 0 -940 1708 2 1707 3 5 110 c3 61 4 516 2 1013
l-3 902 -947 0 c-2637 -1 -2462 -2 -2462 20 0 17 8 20 73 23 l72 3 -71 2 c-81
2 -84 5 -84 91 l0 44 223 -7 c172 -6 1179 -6 2092 -2 175 1 349 -6 325 -14
-24 -8 -23 -8 8 -9 17 -1 32 3 32 8 0 15 236 22 511 15 148 -4 265 -10 259
-14 -7 -4 -13 -33 -13 -64 l-2 -56 62 0 63 0 1 48 2 47 7 -55 c5 -30 8 -93 9
-139 l1 -84 38 7 c20 3 53 9 73 12 29 5 37 3 43 -12 9 -23 9 -2664 0 -2700 -6
-25 -7 -25 -85 -18 -81 7 -93 1 -71 -33 12 -18 98 -28 116 -14 18 15 24 -54
29 -342 l4 -208 -76 3 -76 3 -6 85 c-8 112 -17 143 -38 134 -9 -4 -28 -9 -43
-12 -16 -2 -28 -8 -28 -12 0 -4 -9 -10 -20 -13 -18 -5 -20 0 -20 49 l0 54 70
0 c54 0 72 4 77 15 3 9 2 117 -2 240 l-7 225 -75 0 -75 0 3 80 c4 72 2 79 -16
84 -11 2 -112 7 -225 11 -113 3 -215 8 -227 11 -16 3 -23 0 -23 -11 0 -12 -15
-15 -78 -15 l-77 0 3 -75 4 -75 -75 0 -74 0 2 -247 c2 -227 11 -383 22 -383 2
0 13 5 24 10 18 10 18 13 4 40 -8 16 -15 40 -15 53 0 21 7 25 55 34 l55 10 0
-36 c1 -55 10 -202 16 -238 5 -32 5 -32 62 -30 31 1 136 0 233 -2 98 -2 181
-1 185 2 5 3 39 2 76 -2 72 -7 77 -4 78 57 0 15 6 22 20 22 15 0 20 -7 20 -26
0 -20 4 -25 16 -20 9 3 25 6 35 6 16 0 19 5 14 20 -5 14 -2 20 9 20 9 0 17 6
17 13 3 25 17 -110 18 -175 l1 -68 80 0 80 0 1 -77 c0 -43 0 -115 -1 -160 l-1
-83 43 -1 c24 0 96 -3 161 -5 l117 -5 0 38 c-1 21 -5 57 -9 81 l-8 42 68 0
c41 0 71 -5 75 -12 13 -20 23 22 23 98 l1 72 -32 5 c-18 3 -112 2 -209 -1 -97
-3 -188 -2 -202 2 -26 6 -27 8 -27 86 l0 80 78 0 79 0 6 107 c4 58 7 758 7
1554 0 865 4 1450 9 1453 5 4 37 9 70 12 l61 7 0 73 0 74 -75 0 -75 0 0 85 0
85 -85 0 c-63 0 -83 3 -81 13 3 6 7 51 10 100 l6 87 -86 -6 -86 -7 7 82 8 81
-1868 0 -1867 -1 7 -79 7 -80 -33 0 c-19 0 -56 3 -84 6 l-50 6 3 79 3 78 -83
3 -83 3 4 68 3 67 -76 0 -76 0 6 -25z m1027 -635 l218 0 0 -37 c0 -21 2 -190
5 -377 l5 -339 -23 7 c-13 3 -49 6 -80 6 l-58 0 7 140 6 140 -98 0 -98 0 7
-140 7 -140 -75 0 -76 0 -2 376 c-3 371 -3 375 17 370 11 -3 118 -6 238 -6z
m693 3 l171 -6 6 -71 c4 -39 9 -95 13 -123 l7 -53 -83 0 -82 0 4 50 3 50 -97
0 -98 0 0 -225 0 -225 58 0 c31 0 74 -3 95 -6 l37 -7 0 69 0 69 78 0 c72 0 78
-1 76 -20 -2 -11 -8 -72 -15 -136 l-12 -116 -186 5 c-198 5 -200 5 -208 57 -6
36 -11 43 -35 47 l-23 3 0 323 -1 322 61 0 c33 0 137 -3 231 -7z m2061 -3 l73
0 0 -75 0 -75 -60 0 c-58 0 -60 -1 -61 -27 l-2 -28 -4 28 -4 28 -100 -3 -100
-3 0 -227 c1 -126 1 -230 1 -232 0 -1 23 1 50 5 35 5 65 4 96 -6 l45 -13 -3
41 c-1 23 -1 59 0 80 2 34 4 37 21 27 11 -5 41 -10 68 -10 l48 0 2 -128 1
-127 -181 1 c-262 1 -240 -3 -232 43 6 37 5 39 -15 34 -13 -4 -26 0 -31 8 -10
16 -12 433 -3 567 l7 91 36 5 c20 2 90 2 155 0 66 -2 152 -4 193 -4z m-589
-55 c-3 -30 -1 -55 4 -55 12 0 10 -496 -3 -549 -7 -31 -6 -47 2 -57 7 -8 10
-16 7 -19 -2 -2 -113 -5 -245 -5 l-242 -1 -3 370 -3 371 244 0 243 0 -4 -55z
m-815 -196 l-6 -80 84 3 84 3 1 -78 2 -78 -87 7 -86 7 3 -83 c3 -74 2 -82 -13
-76 -9 3 -40 6 -69 6 l-53 0 8 48 c4 26 8 59 8 75 l1 27 -91 0 -91 0 6 31 c3
17 6 52 6 76 l0 44 58 -6 c31 -4 65 -9 75 -11 15 -5 17 4 17 83 l0 88 74 -3
74 -4 -5 -79z m-983 -656 c1 -5 3 -41 6 -80 l5 -73 -82 0 -81 0 6 31 c3 17 6
51 6 75 l0 43 48 4 c26 2 57 4 70 5 12 1 22 -1 22 -5z m985 -3 c-3 -5 -6 -79
-6 -166 l0 -156 -74 4 c-40 2 -76 5 -78 8 -3 3 -8 76 -12 163 l-6 157 91 0
c55 0 89 -4 85 -10z m511 -24 c-3 -16 -6 -50 -6 -77 l0 -49 -80 0 -80 0 0 78
0 78 86 0 85 -1 -5 -29z m472 -43 l-3 -78 -42 -9 c-49 -10 -88 -2 -97 19 -3 9
-3 42 1 75 l6 59 36 4 c20 2 51 4 69 5 l33 2 -3 -77z m-2301 3 l-2 -64 -138
-7 c-76 -4 -140 -5 -142 -3 -3 2 -2 34 2 71 l6 67 138 0 138 0 -2 -64z m815
-11 l-4 -75 -66 0 c-37 0 -73 4 -80 8 -9 6 -12 30 -11 75 l2 67 81 0 81 0 -3
-75z m1958 5 l0 -70 -140 0 -140 0 0 65 0 64 113 4 c61 1 124 4 140 5 l27 2 0
-70z m-2035 -255 l130 -1 -4 -65 c-1 -35 -5 -67 -8 -71 -2 -5 -30 -8 -61 -8
-103 0 -102 1 -102 -103 l0 -90 86 7 c48 3 98 9 111 12 24 6 24 6 21 -72 -3
-79 -3 -79 -30 -78 -16 0 -91 1 -169 2 l-140 2 6 68 c3 37 0 141 -9 232 -8 90
-12 168 -9 173 3 5 15 5 27 1 11 -4 80 -8 151 -9z m-715 -71 c0 -66 -2 -72
-22 -78 -30 -8 -183 -8 -242 0 l-46 7 0 71 0 71 155 0 155 0 0 -71z m1748 66
l72 0 0 -70 0 -70 -100 0 -100 0 0 68 c0 75 5 86 35 78 11 -3 53 -6 93 -6z
m1030 -68 l-3 -67 -40 -2 c-22 -2 -64 -6 -92 -9 l-53 -5 0 -91 0 -91 93 7 92
7 1 -69 1 -69 -60 -7 c-33 -3 -105 -6 -161 -6 l-101 0 0 238 0 237 163 -3 163
-3 -3 -67z m-2330 -164 l-3 -232 -152 -4 -153 -4 0 77 0 77 84 -3 85 -4 3 87
3 87 -75 6 c-41 4 -79 7 -84 9 -5 1 -9 32 -10 69 l-1 67 153 0 152 0 -2 -232z
m1872 104 c0 -71 -3 -176 -6 -234 l-7 -106 -138 2 -139 1 0 55 c0 30 -3 66 -7
79 l-6 24 106 -7 107 -7 1 23 c0 13 3 53 7 90 l8 67 -81 3 c-69 3 -80 5 -79
21 1 9 2 37 3 61 1 53 1 53 134 55 l97 1 0 -128z m-884 -34 c-3 -13 -6 -49 -6
-80 l0 -58 -73 0 -72 0 3 -75 4 -75 -80 0 -81 0 -3 78 c-2 42 -2 112 0 155 l4
77 155 0 155 0 -6 -22z m-1473 -154 l37 -7 0 -73 0 -74 -155 0 -155 0 0 80 0
80 118 0 c64 0 134 -3 155 -6z m1890 -2 l57 -2 0 -70 0 -70 -122 0 c-68 0
-133 -3 -145 -6 -22 -6 -23 -4 -23 69 0 47 4 77 11 79 10 3 81 3 222 0z m757
-864 c0 -18 3 -44 7 -57 6 -25 22 -25 121 -5 l32 7 0 -92 0 -91 79 0 78 0 -1
-165 -1 -165 -72 0 -73 0 0 -80 0 -80 -167 2 -168 3 -3 73 -3 72 -69 0 -70 0
0 90 0 90 -59 0 c-33 0 -62 3 -64 8 -3 4 -7 36 -8 72 l-4 65 69 3 68 3 -4 75
-3 75 75 -2 75 -2 0 66 0 67 83 0 82 0 0 -32z"/>
<path d="M3372 6111 l3 -86 93 -3 92 -3 0 88 0 88 -95 1 -96 1 3 -86z"/>
<path d="M5308 5958 l-3 -233 100 3 c55 2 101 5 102 6 1 1 3 104 5 229 l3 227
-102 0 -102 0 -3 -232z"/>
<path d="M5073 6653 c15 -2 39 -2 55 0 15 2 2 4 -28 4 -30 0 -43 -2 -27 -4z"/>
<path d="M3277 6549 c7 -7 15 -10 18 -7 3 3 -2 9 -12 12 -14 6 -15 5 -6 -5z"/>
<path d="M3660 6550 c-60 -6 -57 -7 40 -8 71 -1 100 1 90 8 -16 10 -28 10
-130 0z"/>
<path d="M3333 6543 c9 -2 25 -2 35 0 9 3 1 5 -18 5 -19 0 -27 -2 -17 -5z"/>
<path d="M5543 6543 c15 -2 39 -2 55 0 15 2 2 4 -28 4 -30 0 -43 -2 -27 -4z"/>
<path d="M2450 6321 c0 -4 11 -6 25 -3 14 2 25 6 25 8 0 2 -11 4 -25 4 -14 0
-25 -4 -25 -9z"/>
<path d="M3246 4310 c-1 -3 0 -41 3 -85 l6 -80 53 -3 52 -3 0 54 c0 30 3 68 6
85 l6 30 -62 4 c-34 1 -63 1 -64 -2z"/>
<path d="M3054 4283 c4 -15 13 -54 19 -85 l11 -58 38 0 c31 0 38 4 38 19 0 10
9 38 20 62 26 58 26 89 0 89 -18 0 -37 -42 -41 -90 -1 -8 -7 8 -13 35 -11 47
-14 50 -45 53 -32 3 -33 2 -27 -25z"/>
<path d="M3407 4303 c-2 -5 -1 -17 3 -27 6 -19 7 -19 12 2 6 21 -6 40 -15 25z"/>
<path d="M3554 4288 c3 -13 6 -51 6 -85 l0 -63 50 0 c48 0 50 1 50 28 0 15 -7
35 -14 45 -10 13 -12 27 -5 50 13 47 13 47 -42 47 -48 0 -51 -1 -45 -22z"/>
<path d="M5004 4301 c-5 -6 -5 -296 0 -302 2 -2 38 -3 80 -1 72 3 76 5 76 27
0 13 5 27 10 30 24 15 6 25 -45 25 l-55 0 0 79 0 80 30 -9 c16 -5 34 -11 40
-15 8 -5 10 7 8 37 l-3 43 -68 5 c-38 3 -71 3 -73 1z"/>
<path d="M5842 4233 l3 -78 58 -3 c43 -2 57 0 57 11 0 18 -21 37 -42 37 -24 0
-23 27 2 40 13 7 20 21 20 40 0 29 -1 30 -50 30 l-51 0 3 -77z"/>
<path d="M5996 4243 c4 -38 11 -74 17 -81 11 -14 97 -13 97 1 0 4 0 39 0 77
l0 70 -60 0 -61 0 7 -67z"/>
<path d="M6164 4273 c3 -21 6 -57 6 -80 l0 -43 53 0 52 0 2 80 3 80 -61 0 -62
0 7 -37z"/>
<path d="M6330 4283 c0 -16 3 -52 6 -80 l7 -53 53 0 53 0 6 58 c3 31 8 67 11
80 4 21 2 22 -66 22 -70 0 -70 0 -70 -27z m107 -65 c-3 -8 -6 -5 -6 6 -1 11 2
17 5 13 3 -3 4 -12 1 -19z"/>
<path d="M3720 4273 c0 -16 3 -52 6 -80 l7 -53 53 0 c50 0 54 2 54 24 0 15
-10 32 -25 43 l-26 18 31 35 c16 18 30 35 30 37 0 2 -29 3 -65 3 -64 0 -65 0
-65 -27z"/>
<path d="M4193 4284 c-5 -15 3 -285 10 -289 1 -1 35 0 75 3 l72 4 0 39 c0 22
5 39 10 39 6 0 10 6 10 14 0 7 9 16 20 19 19 5 21 12 18 94 l-3 88 -37 3 -38
3 0 -97 0 -97 -36 6 c-20 3 -38 8 -40 10 -2 2 0 40 4 86 4 45 6 84 3 86 -11
12 -62 4 -68 -11z"/>
<path d="M4477 4153 c3 -82 7 -149 8 -150 1 -2 58 -4 127 -5 94 -2 129 0 141
11 14 11 17 11 18 0 1 -15 27 48 28 69 1 17 -64 16 -78 -2 -6 -8 -21 -16 -31
-19 -19 -5 -20 0 -20 94 l0 99 40 6 c22 4 44 12 50 19 8 9 -4 13 -51 18 -34 3
-67 3 -74 0 -8 -3 -16 -35 -20 -86 -7 -80 -23 -117 -50 -117 -18 0 -25 34 -25
128 l0 82 -34 0 -35 0 6 -147z"/>
<path d="M5285 4291 l-40 -6 -3 -145 -3 -145 65 3 c57 3 65 6 68 25 2 13 13
23 28 27 16 4 25 13 25 25 0 29 -48 32 -74 6 -42 -42 -51 -29 -51 69 l0 90 28
-6 c15 -4 31 -11 37 -15 23 -22 36 -9 33 34 -3 41 -4 42 -38 43 -19 1 -53 -1
-75 -5z"/>
<path d="M3410 4169 l0 -30 53 3 c48 3 52 5 55 31 3 27 2 27 -52 27 -56 0 -56
0 -56 -31z"/>
<path d="M3220 3981 c0 -19 -5 -21 -75 -21 l-75 0 0 -49 c0 -27 -3 -63 -6 -81
l-7 -32 -71 4 -71 3 -3 -234 -2 -234 73 7 c93 8 100 2 95 -89 l-3 -65 78 0 77
0 0 -74 0 -74 218 -6 c119 -4 226 -8 237 -9 17 -2 20 5 23 48 4 93 10 114 32
108 11 -3 45 -2 76 2 l57 7 -6 69 -6 69 74 0 c69 0 74 -2 77 -22 5 -30 21 299
17 332 -4 24 -7 25 -87 28 l-83 3 3 77 3 77 -79 3 -79 3 6 77 6 77 -192 2
c-106 1 -218 5 -249 9 -54 6 -58 5 -58 -15z m330 -103 l0 -48 80 0 80 0 0 -74
0 -73 66 -6 c36 -2 67 -6 69 -8 1 -2 5 -75 6 -161 l4 -157 -75 -3 -75 -3 3
-71 3 -71 -113 -6 c-62 -4 -171 -7 -242 -7 l-129 0 6 80 5 80 -84 0 -84 0 0
155 c0 85 1 158 3 163 1 4 38 6 81 5 l79 -2 -6 127 c-4 91 -2 121 5 105 18
-38 129 -45 158 -11 19 23 142 58 152 43 4 -5 8 -31 8 -57z"/>
<path d="M3560 3318 c0 -17 3 -19 12 -10 7 7 28 12 48 13 71 1 78 18 8 18 -64
1 -68 0 -68 -21z"/>
<path d="M4350 3743 c0 -40 -5 -74 -12 -81 -7 -7 -40 -12 -80 -12 l-68 0 0
-150 0 -150 80 0 79 0 7 34 c3 19 2 87 -3 151 l-8 117 85 -3 c117 -3 144 11
161 86 7 30 9 58 5 63 -4 4 -61 9 -127 11 l-119 3 0 -69z"/>
<path d="M5114 3801 c-7 -7 -4 -115 4 -127 4 -7 35 -14 70 -15 l62 -4 0 40 c0
22 3 57 6 77 l6 36 -72 -1 c-39 -1 -74 -4 -76 -6z"/>
<path d="M4010 3789 c0 -5 5 -7 10 -4 6 3 10 8 10 11 0 2 -4 4 -10 4 -5 0 -10
-5 -10 -11z"/>
<path d="M4698 3652 l-67 -3 -3 -67 -3 -67 -60 -5 c-57 -5 -60 -6 -57 -30 2
-14 0 -49 -3 -77 l-6 -53 -75 0 -75 0 7 -87 c4 -49 7 -89 8 -89 0 -1 29 -4 63
-7 73 -6 72 -7 80 105 l6 77 71 3 71 3 3 45 c5 84 7 87 61 95 l50 7 6 46 c3
26 8 59 10 74 5 32 -1 34 -87 30z"/>
<path d="M5358 3583 c8 -32 19 -61 25 -65 13 -8 0 -13 -55 -23 -35 -5 -36 -6
-27 -37 5 -17 14 -35 20 -39 7 -4 9 -17 5 -33 l-6 -26 85 0 85 0 0 48 c0 27 3
90 6 140 l7 92 -80 0 -80 0 15 -57z"/>
<path d="M4997 3504 c-4 -4 -7 -38 -7 -76 l0 -68 60 0 59 0 3 -87 3 -87 65 3
c35 1 68 5 72 7 5 3 8 41 8 85 l0 79 -70 0 -69 0 2 73 2 72 -60 3 c-34 2 -64
0 -68 -4z"/>
<path d="M4006 3213 c-3 -16 -2 -50 3 -78 9 -50 9 -50 10 28 1 80 -3 97 -13
50z"/>
<path d="M3736 3157 c3 -10 9 -15 12 -12 3 3 0 11 -7 18 -10 9 -11 8 -5 -6z"/>
<path d="M3553 2960 c0 -25 2 -35 4 -22 2 12 2 32 0 45 -2 12 -4 2 -4 -23z"/>
<path d="M2290 2844 c0 -23 3 -62 6 -88 l7 -47 67 7 67 6 7 -35 c4 -19 4 -53
0 -75 l-6 -40 158 1 159 2 -1 50 c0 28 -2 96 -2 153 l-2 102 -65 0 c-45 0 -65
-4 -65 -12 0 -8 -5 -5 -11 4 -9 16 -27 17 -164 15 l-155 -2 0 -41z"/>
<path d="M7990 7091 c0 -29 -3 -31 -37 -32 -21 -1 -44 -1 -50 0 -10 1 -13 -20
-13 -79 0 -44 -1 -83 -2 -87 -2 -5 25 -9 60 -11 l62 -3 0 111 c0 60 0 113 1
117 0 4 -4 9 -10 11 -6 2 -11 -10 -11 -27z"/>
<path d="M7744 6896 c-3 -7 -4 -48 -2 -92 l3 -79 55 -6 c34 -3 58 -1 62 5 11
16 10 174 -1 180 -5 4 -20 2 -32 -3 -13 -4 -36 -5 -52 0 -20 6 -30 4 -33 -5z"/>
<path d="M8037 6743 c-3 -31 -4 -60 -1 -65 7 -10 35 -10 52 1 20 12 -6 121
-29 121 -12 0 -18 -13 -22 -57z"/>
<path d="M7991 6748 c-1 -22 -31 -38 -70 -38 l-31 0 0 -81 c0 -101 9 -119 59
-119 60 0 64 12 53 142 -5 62 -10 105 -11 96z"/>
<path d="M7640 6741 l-35 -6 -3 -72 -3 -73 45 0 c24 0 52 -3 61 -6 15 -6 16 0
10 62 -4 38 -9 77 -11 87 -6 18 -8 18 -64 8z"/>
<path d="M7780 6551 c-29 -8 -35 -41 -25 -138 l6 -62 52 2 52 2 -3 90 c-2 50
-5 96 -7 103 -5 13 -34 14 -75 3z"/>
<path d="M8028 6395 l3 -85 57 0 57 0 0 85 1 85 -61 0 -60 0 3 -85z"/>
<path d="M7648 6431 l-48 -15 0 -57 c0 -31 3 -69 6 -85 5 -27 8 -29 55 -29
l49 0 -1 75 c-1 41 -4 87 -8 101 l-6 25 -47 -15z"/>
<path d="M7890 6251 l0 -91 55 0 55 0 0 85 0 85 -32 0 c-18 0 -43 3 -55 6 -23
6 -23 5 -23 -85z"/>
<path d="M7802 6189 c-23 -4 -46 -10 -50 -13 -4 -2 -5 -42 -2 -88 l5 -83 50 3
c28 2 52 7 55 10 8 10 0 182 -8 181 -4 -1 -26 -5 -50 -10z"/>
<path d="M8030 6070 c0 -48 -4 -70 -12 -70 -8 0 -8 -3 -2 -9 5 -5 38 -13 73
-17 l64 -7 -7 45 c-4 25 -3 64 3 86 l9 42 -64 0 -64 0 0 -70z"/>
<path d="M7655 6085 l-50 -11 0 -110 0 -109 55 -1 55 -1 -3 106 c-4 150 1 138
-57 126z"/>
<path d="M7892 5913 l3 -88 54 2 c30 2 55 4 57 5 1 2 0 40 -3 86 l-6 82 -54 0
-54 0 3 -87z"/>
<path d="M7792 5842 l-53 -3 2 -90 c2 -60 7 -89 15 -89 6 0 32 3 58 6 l46 7 0
83 c0 45 -3 84 -7 86 -5 2 -32 2 -61 0z"/>
<path d="M8038 5805 c-5 -6 0 -266 5 -272 1 0 25 -3 52 -4 l50 -3 0 139 0 140
-50 3 c-28 2 -54 0 -57 -3z"/>
<path d="M7635 5681 c-16 -3 -29 -10 -27 -14 1 -4 2 -39 2 -78 l0 -72 52 7
c29 4 54 9 57 11 2 2 0 38 -4 80 -7 82 -7 82 -80 66z"/>
<path d="M7902 5642 c-8 -22 -9 -223 -1 -242 5 -11 18 -14 53 -12 l47 4 -3
132 -3 131 -43 1 c-31 1 -45 -3 -50 -14z"/>
<path d="M7783 5493 l-33 -4 0 -83 c0 -46 3 -98 6 -115 6 -30 8 -31 48 -25 59
9 66 18 54 62 -6 20 -8 67 -4 105 7 75 12 70 -71 60z"/>
<path d="M8048 5363 c-15 -4 -18 -17 -18 -82 l0 -78 52 -6 c28 -4 53 -5 54 -4
0 1 4 41 7 90 l6 87 -42 -1 c-23 -1 -50 -3 -59 -6z"/>
<path d="M7602 5238 l3 -113 59 -3 59 -3 -7 47 c-3 26 -6 78 -6 115 l0 69 -55
0 -56 0 3 -112z"/>
<path d="M7890 5138 l0 -98 59 0 59 0 -5 88 c-3 48 -7 89 -9 91 -3 3 -27 8
-54 11 l-50 6 0 -98z"/>
<path d="M7780 5083 c-14 -3 -28 -10 -32 -16 -7 -12 2 -159 11 -169 3 -3 29
-8 57 -10 l51 -4 -4 90 c-3 50 -6 97 -8 104 -4 12 -27 14 -75 5z"/>
<path d="M8070 4993 c-14 -9 -28 -22 -32 -27 -8 -12 1 -148 11 -157 3 -4 27
-9 54 -13 l47 -6 0 110 0 110 -28 0 c-15 0 -39 -8 -52 -17z"/>
<path d="M7607 4943 c-4 -3 -7 -48 -7 -100 0 -105 2 -108 65 -95 l40 8 3 74
c4 111 0 120 -52 120 -23 0 -46 -3 -49 -7z"/>
<path d="M7888 4778 c2 -46 8 -87 12 -92 14 -14 98 3 102 21 2 8 2 46 0 84
l-4 69 -56 0 -57 0 3 -82z"/>
<path d="M7783 4723 l-33 -4 0 -87 0 -87 55 3 56 4 -3 86 c-3 96 -2 94 -75 85z"/>
<path d="M8083 4643 l-43 -4 0 -89 c0 -98 2 -100 71 -100 l39 0 0 100 c0 74
-3 100 -12 98 -7 -1 -32 -3 -55 -5z"/>
<path d="M7680 4610 c-8 -4 -27 -13 -42 -19 -27 -10 -28 -14 -28 -75 0 -35 -3
-71 -6 -80 -6 -17 14 -28 74 -39 l32 -6 0 109 c0 60 -3 111 -7 113 -5 3 -15 1
-23 -3z"/>
<path d="M7890 4418 l0 -98 55 0 54 0 -4 93 c-3 50 -5 96 -5 100 0 4 -22 6
-50 5 l-50 -3 0 -97z"/>
<path d="M7761 4373 c-23 -5 -23 -6 -16 -81 9 -105 10 -109 51 -117 57 -10 65
4 62 109 l-3 91 -35 1 c-19 1 -46 0 -59 -3z"/>
<path d="M7623 4243 c-21 -4 -23 -10 -23 -68 0 -91 3 -95 67 -95 l56 0 -7 46
c-3 26 -6 64 -6 85 0 38 -1 39 -32 38 -18 -1 -43 -4 -55 -6z"/>
<path d="M8059 4228 c-21 -20 -24 -30 -21 -70 l4 -48 39 0 c51 0 93 41 85 84
-4 16 -6 35 -6 42 0 24 -73 18 -101 -8z"/>
<path d="M7897 4154 c-9 -10 -9 -152 1 -157 4 -3 31 -8 60 -12 l52 -7 -1 64
c-2 102 -7 112 -60 116 -25 2 -48 0 -52 -4z"/>
<path d="M7793 4048 l-43 -9 0 -77 c0 -42 4 -83 9 -90 5 -9 24 -12 52 -10 l44
3 3 75 c3 77 -3 121 -16 119 -4 -1 -26 -5 -49 -11z"/>
<path d="M7648 3931 c-45 -15 -48 -18 -48 -51 0 -19 3 -52 6 -72 7 -38 7 -38
53 -38 l46 0 0 90 c0 49 -2 89 -5 89 -3 -1 -26 -9 -52 -18z"/>
<path d="M7914 3823 c-20 -4 -21 -9 -16 -81 2 -42 5 -78 6 -79 0 0 27 -4 59
-8 l58 -7 -3 88 -3 89 -40 1 c-22 1 -49 0 -61 -3z"/>
<path d="M7852 3786 c-8 -19 -22 -26 -58 -32 l-46 -7 4 -88 c2 -49 7 -91 10
-94 3 -3 27 -1 53 6 45 11 47 13 42 43 -3 17 -1 66 4 110 11 85 8 100 -9 62z"/>
<path d="M7620 3632 c-12 -5 -15 -26 -15 -87 l0 -80 38 3 c21 2 44 -2 52 -8 8
-7 15 -11 15 -9 1 2 3 46 6 97 l6 92 -44 -1 c-23 0 -50 -3 -58 -7z"/>
<path d="M7701 2484 c0 -11 3 -14 6 -6 3 7 2 16 -1 19 -3 4 -6 -2 -5 -13z"/>
<path d="M2134 1901 c-2 -3 -1 -20 2 -38 6 -33 6 -33 -31 -33 l-38 0 7 -52 c3
-29 6 -95 6 -145 l0 -93 35 0 34 0 3 58 3 57 43 3 42 3 0 -59 0 -60 40 -4 40
-4 0 153 0 153 -25 0 c-21 0 -25 5 -25 29 0 29 -1 29 -66 33 -36 1 -68 1 -70
-1z m96 -134 l0 -53 -34 4 c-36 4 -46 20 -46 75 0 25 3 27 40 27 l40 0 0 -53z"/>
<path d="M2865 1899 c-22 -4 -59 -6 -82 -2 l-43 5 0 -180 0 -181 100 2 100 1
0 36 c0 35 2 36 29 32 l29 -4 -5 103 c-6 123 -8 133 -30 125 -20 -8 -33 10
-33 47 0 29 -2 29 -65 16z m40 -176 l0 -83 -49 0 -49 0 7 61 c3 34 6 72 6 84
0 19 5 22 43 22 l42 0 0 -84z"/>
<path d="M3100 1872 c0 -35 -2 -37 -32 -37 l-33 0 -3 -117 -3 -118 31 0 c28 0
30 -3 30 -36 0 -29 3 -35 16 -30 9 3 44 6 79 6 l63 0 -5 40 c-4 31 -2 41 11
46 9 3 16 11 16 16 0 6 -30 7 -82 3 l-83 -7 -3 92 c-3 86 -3 91 15 82 10 -5
33 -10 51 -10 17 0 40 -3 51 -7 16 -5 18 0 17 44 l-1 50 -61 10 c-33 6 -64 11
-67 11 -4 0 -7 -17 -7 -38z"/>
<path d="M5270 1869 c0 -41 0 -41 -32 -35 l-33 6 -2 -115 -3 -114 30 6 c30 5
30 5 30 -42 0 -39 3 -46 16 -41 9 3 40 6 70 6 l55 0 -7 45 c-6 41 -5 45 15 45
20 0 21 5 21 101 0 96 -1 100 -20 94 -17 -6 -20 -2 -20 28 0 34 -2 36 -50 46
-71 15 -70 16 -70 -30z m90 -114 c0 -29 3 -67 6 -84 l7 -31 -52 0 -51 0 0 88
0 87 45 -3 45 -4 0 -53z"/>
<path d="M6360 1901 c-31 -5 -35 -10 -38 -38 -3 -27 -7 -33 -28 -33 -24 0 -24
-1 -24 -98 0 -96 1 -99 25 -110 20 -9 25 -19 25 -47 l0 -35 70 0 70 0 0 35 c0
32 2 35 30 35 l30 0 0 116 0 117 -30 -6 c-29 -6 -30 -6 -30 33 0 39 -1 40 -32
39 -18 -1 -49 -4 -68 -8z m80 -171 l0 -90 -45 0 -45 0 0 90 0 90 45 0 45 0 0
-90z"/>
<path d="M8205 1899 c-27 -5 -58 -7 -67 -5 -17 4 -18 -9 -18 -174 l0 -178 30
-4 30 -5 0 64 c0 62 0 63 28 63 42 0 54 -13 59 -64 4 -33 10 -46 22 -46 9 0
26 -3 39 -6 21 -6 22 -3 22 42 0 54 -6 67 -32 77 -10 3 -18 15 -18 27 0 15 6
19 23 17 21 -2 22 2 25 71 l3 74 -32 -7 -32 -7 7 36 c8 41 5 42 -89 25z m68
-111 c6 -41 3 -45 -55 -53 l-48 -7 0 46 0 46 49 0 c47 0 49 -1 54 -32z"/>
<path d="M2417 1870 c5 -29 4 -30 -33 -30 l-39 0 3 -114 3 -115 32 -3 c28 -3
32 -7 35 -35 l3 -33 65 0 c58 0 64 2 64 21 0 11 9 32 20 46 33 42 27 46 -60
39 l-80 -7 0 90 c0 68 3 89 13 86 6 -2 41 -6 77 -9 57 -6 63 -5 47 8 -14 11
-17 22 -12 50 l7 36 -76 0 -75 0 6 -30z"/>
<path d="M3720 1761 c0 -140 0 -141 24 -147 18 -4 26 -15 30 -40 l7 -34 59 0
60 0 0 40 c0 37 2 40 28 40 l27 0 -3 135 -3 135 -33 0 -33 0 -5 -116 c-6 -125
-10 -134 -61 -134 l-28 0 2 128 1 127 -36 3 -36 3 0 -140z"/>
<path d="M4267 1718 c2 -101 5 -182 8 -180 3 1 16 2 30 2 24 0 25 3 25 59 0
62 9 75 48 64 24 -6 52 -59 52 -97 0 -23 4 -26 35 -26 l35 0 0 60 0 60 -34 0
c-52 0 -66 9 -66 42 0 28 38 78 60 78 5 0 10 11 10 25 0 16 6 25 15 25 10 0
15 10 15 30 0 23 -5 31 -25 36 -31 8 -51 -8 -58 -46 -7 -33 -39 -70 -62 -70
-10 0 -15 15 -17 58 l-3 57 -35 3 -35 3 2 -183z"/>
<path d="M4660 1720 l0 -175 95 0 94 0 3 30 c2 24 8 30 26 29 20 -1 22 4 22
48 0 41 -3 48 -19 48 -30 0 -37 22 -13 38 16 11 22 25 22 53 0 33 -4 41 -25
49 -17 6 -25 17 -25 32 0 22 -3 23 -90 23 l-90 0 0 -175z m148 71 c4 -28 -12
-41 -50 -41 -25 0 -28 3 -28 36 0 35 1 35 38 32 30 -2 38 -7 40 -27z m10 -143
c-3 -20 -10 -23 -50 -26 -41 -3 -48 -1 -48 16 0 27 8 32 57 32 40 0 44 -2 41
-22z"/>
<path d="M5000 1868 c0 -25 -3 -28 -36 -28 -36 0 -36 -1 -30 -31 3 -17 6 -69
6 -115 l0 -84 26 6 c26 7 27 6 20 -30 l-7 -36 38 0 c21 0 54 -3 73 -6 l36 -6
-4 41 c-4 39 -3 41 22 41 25 0 26 3 26 54 0 29 3 81 7 116 5 52 4 62 -8 58
-54 -22 -52 -22 -40 0 22 41 15 47 -59 47 -70 0 -70 0 -70 -27z m108 -223 c-2
-1 -24 -5 -50 -7 l-48 -6 0 89 0 88 48 3 47 3 3 -84 c2 -46 2 -85 0 -86z"/>
<path d="M5773 1893 l-93 -4 0 -34 c0 -33 2 -35 36 -35 l35 0 -3 -140 -3 -140
33 0 32 0 0 136 0 136 30 -4 c19 -3 31 0 35 10 8 21 6 82 -2 80 -5 -1 -50 -4
-100 -5z"/>
<path d="M6093 1893 c-19 -4 -21 -9 -16 -39 6 -34 5 -34 -31 -34 l-36 0 0 -82
c0 -90 5 -104 35 -109 15 -3 21 -13 23 -42 l3 -37 50 0 c28 0 59 -5 70 -10 17
-10 19 -7 19 25 0 23 7 41 20 53 20 16 18 17 -57 22 l-78 5 -3 83 -3 84 77 -7
c75 -7 76 -7 65 13 -6 11 -11 34 -11 51 0 31 0 31 -52 30 -29 -1 -63 -4 -75
-6z"/>
<path d="M6757 1810 c2 -85 -8 -115 -22 -70 -4 11 -26 37 -51 57 -33 28 -44
44 -44 65 0 26 -3 28 -37 28 l-38 0 -3 -169 -3 -169 36 -4 35 -4 0 52 c0 70
11 144 21 144 5 0 9 -8 9 -17 0 -10 17 -33 39 -53 30 -28 39 -45 45 -82 7 -44
9 -48 35 -48 l28 0 7 108 c4 59 9 140 13 180 l6 72 -39 0 -39 0 2 -90z"/>
<path d="M6871 1835 c1 -94 13 -150 41 -183 14 -17 29 -47 32 -66 7 -34 9 -36
46 -36 35 0 40 3 40 24 0 13 3 38 6 55 5 26 11 31 35 31 38 0 43 21 34 141
l-7 99 -28 0 -27 0 -5 -84 c-3 -61 -9 -88 -21 -101 -14 -13 -15 -20 -6 -31 9
-11 7 -14 -13 -14 -22 0 -27 7 -42 58 -9 32 -16 81 -16 109 0 51 0 51 -35 55
l-35 4 1 -61z"/>
<path d="M7144 1776 c3 -66 6 -144 6 -175 l0 -56 94 0 94 0 0 42 0 42 -61 3
c-47 2 -63 7 -65 19 -2 12 7 18 38 22 47 6 45 5 54 32 8 30 -6 45 -50 52 -41
6 -54 17 -54 46 0 14 10 17 66 17 l65 0 -3 36 -3 35 -94 2 -94 2 7 -119z"/>
<path d="M7640 1873 c0 -12 -3 -28 -6 -37 -5 -13 2 -16 40 -16 l45 0 3 -142 3
-143 28 -3 c17 -2 27 1 28 10 2 43 -2 181 -7 224 l-6 50 36 -4 c31 -4 36 -1
41 21 15 58 9 62 -103 62 -98 0 -102 -1 -102 -22z"/>
<path d="M7880 1724 l0 -171 93 -6 c50 -3 93 -4 93 -3 1 0 4 21 5 46 l4 45
-62 0 c-52 0 -63 3 -63 16 0 10 16 23 40 33 22 9 40 22 40 29 0 8 -18 30 -41
50 -51 46 -44 61 27 55 l54 -5 0 44 0 43 -95 -3 -95 -2 0 -171z"/>
<path d="M3432 1715 l-3 -175 108 5 c88 4 107 8 105 20 -1 8 5 29 13 46 14 25
14 36 5 59 -7 16 -19 31 -27 34 -12 5 -10 12 11 37 31 37 35 85 7 94 -10 3
-22 17 -25 30 -6 24 -9 25 -99 25 l-92 0 -3 -175z m156 68 c-3 -25 -7 -28 -45
-31 -42 -3 -43 -2 -43 27 0 30 1 31 46 31 44 0 45 -1 42 -27z m10 -125 c-3
-20 -10 -23 -57 -26 -62 -4 -67 15 -10 35 54 19 71 16 67 -9z"/>
<path d="M4060 1865 c0 -21 -5 -25 -29 -25 -36 0 -41 -16 -41 -132 l0 -87 33
-3 c29 -3 32 -6 35 -41 l3 -37 70 2 69 3 0 35 c0 20 5 41 12 48 9 9 -5 12 -65
12 l-77 0 0 59 c0 32 3 72 6 88 l6 29 59 -9 c33 -6 61 -8 64 -6 2 3 1 23 -2
47 l-6 42 -68 0 c-67 0 -69 -1 -69 -25z"/>
<path d="M5569 1883 c-52 -3 -68 -8 -73 -21 -3 -9 -11 -25 -18 -34 -10 -14 -8
-26 8 -65 17 -42 24 -49 59 -58 43 -10 55 -20 55 -47 0 -15 -9 -18 -60 -18
l-60 0 0 -50 0 -50 70 0 70 0 0 34 c0 28 4 35 23 38 18 2 23 10 25 47 4 60
-24 91 -77 84 -32 -4 -41 -1 -55 18 -29 42 -21 49 49 49 l65 0 0 40 c0 22 -3
39 -7 38 -5 -1 -38 -3 -74 -5z"/>
<path d="M7380 1721 c0 -181 0 -181 53 -181 20 0 22 5 22 57 0 48 3 58 18 61
29 6 55 -26 63 -74 6 -41 8 -44 38 -44 31 0 31 0 31 55 0 42 -4 57 -19 68 -22
16 -16 47 9 47 10 0 16 11 17 33 2 57 -2 72 -27 90 -14 10 -25 27 -25 38 0 17
-8 19 -90 19 l-90 0 0 -169z m150 59 c0 -42 3 -40 -72 -55 -20 -3 -22 11 -12
64 6 28 10 31 45 31 39 0 39 0 39 -40z"/>
<path d="M4495 1800 c-3 -5 1 -10 10 -10 9 0 13 5 10 10 -3 6 -8 10 -10 10 -2
0 -7 -4 -10 -10z"/>
<path d="M2254 1273 l-82 -4 6 -64 5 -65 -61 0 -62 0 20 -32 c11 -18 20 -41
20 -50 0 -15 9 -18 50 -18 l50 0 0 -37 c0 -21 -4 -55 -9 -75 l-9 -38 99 0 c99
0 99 0 99 25 0 21 -5 25 -29 25 -16 0 -31 -6 -34 -12 -7 -20 -20 59 -13 85 6
25 54 36 67 15 6 -9 48 -9 186 0 98 6 212 9 254 5 l76 -6 6 48 c4 26 7 53 7
60 0 9 -63 11 -262 7 l-261 -5 7 72 6 71 -27 -2 c-16 -1 -65 -4 -109 -5z"/>
<path d="M7999 1263 c-1 -5 -1 -11 -1 -14 2 -14 2 -106 0 -121 -1 -10 -10 -20
-20 -24 -15 -5 -38 -40 -38 -59 0 -2 17 -5 38 -7 24 -2 36 -8 34 -16 -1 -7 -5
-40 -9 -73 l-6 -59 86 0 86 0 3 73 3 72 68 -4 67 -3 2 46 c0 25 1 51 2 58 1
12 -88 13 -128 1 -17 -5 -18 0 -14 66 l4 71 -88 0 c-48 0 -89 -3 -89 -7z"/>
<path d="M6962 1088 c3 -43 8 -81 11 -84 6 -6 176 12 182 18 2 2 5 31 7 65 l4
62 -40 5 c-23 3 -70 7 -105 9 l-63 3 4 -78z"/>
<path d="M3230 1080 l0 -75 62 5 63 5 7 56 c4 30 8 62 10 70 2 11 -12 14 -69
14 l-73 0 0 -75z"/>
<path d="M7427 1098 c3 -29 7 -54 8 -56 5 -5 113 -7 235 -4 63 2 109 6 102 9
-6 2 -9 10 -6 15 4 6 8 22 10 35 2 17 -4 24 -19 27 -32 6 -267 26 -304 26
l-32 0 6 -52z"/>
</g>
</svg>
