<?xml version="1.0" standalone="no"?>
<!DOCTYPE svg PUBLIC "-//W3C//DTD SVG 20010904//EN"
 "http://www.w3.org/TR/2001/REC-SVG-20010904/DTD/svg10.dtd">
<svg version="1.0" xmlns="http://www.w3.org/2000/svg"
 width="512.000000pt" height="512.000000pt" viewBox="0 0 512.000000 512.000000"
 preserveAspectRatio="xMidYMid meet">
<metadata>
Created by potrace 1.16, written by Peter Selinger 2001-2019
</metadata>
<g transform="translate(0.000000,512.000000) scale(0.100000,-0.100000)"
fill="#000000" stroke="none">
<path d="M1260 4595 l0 -325 -122 0 c-136 0 -180 -13 -230 -66 -47 -50 -60
-98 -66 -231 l-5 -123 -128 0 -129 0 0 -45 0 -45 -190 0 -190 0 0 -50 0 -50
320 0 320 0 0 -140 0 -140 -130 0 -130 0 0 -50 0 -50 -190 0 -190 0 0 -50 0
-50 320 0 320 0 0 -140 0 -140 -130 0 -130 0 0 -50 0 -50 -190 0 -190 0 0 -50
0 -50 320 0 320 0 0 -140 0 -140 -130 0 -130 0 0 -45 0 -45 -190 0 -190 0 0
-55 0 -55 320 0 320 0 0 -140 0 -140 -130 0 -130 0 0 -45 0 -45 -190 0 -190 0
0 -55 0 -55 320 0 320 0 0 -140 0 -140 -130 0 -130 0 0 -45 0 -45 -190 0 -190
0 0 -50 0 -50 319 0 318 0 5 -122 c6 -134 19 -182 66 -232 50 -53 94 -66 230
-66 l122 0 0 -135 0 -135 50 0 50 0 0 -190 0 -190 50 0 50 0 0 325 0 325 140
0 140 0 0 -135 0 -135 50 0 50 0 0 -190 0 -190 50 0 50 0 0 325 0 325 140 0
140 0 0 -135 0 -135 50 0 50 0 0 -190 0 -190 50 0 50 0 0 325 0 325 140 0 140
0 0 -135 0 -135 45 0 45 0 0 -190 0 -190 55 0 55 0 0 325 0 325 140 0 140 0 0
-135 0 -135 45 0 45 0 0 -190 0 -190 55 0 55 0 0 325 0 325 140 0 140 0 0
-135 0 -135 45 0 45 0 0 -190 0 -190 55 0 55 0 0 325 0 325 123 0 c135 0 179
13 229 66 47 50 60 98 66 232 l5 122 128 0 129 0 0 45 0 45 190 0 190 0 0 50
0 50 -320 0 -320 0 0 140 0 140 130 0 130 0 0 50 0 50 190 0 190 0 0 50 0 50
-320 0 -320 0 0 140 0 140 130 0 130 0 0 50 0 50 190 0 190 0 0 50 0 50 -320
0 -320 0 0 140 0 140 130 0 130 0 0 45 0 45 190 0 190 0 0 55 0 55 -320 0
-320 0 0 140 0 140 130 0 130 0 0 45 0 45 190 0 190 0 0 55 0 55 -320 0 -320
0 0 140 0 140 130 0 130 0 0 45 0 45 190 0 190 0 0 50 0 50 -319 0 -318 0 -5
123 c-6 133 -19 181 -66 231 -50 53 -94 66 -229 66 l-123 0 0 135 0 135 -50 0
-50 0 0 190 0 190 -50 0 -50 0 0 -325 0 -325 -140 0 -140 0 0 135 0 135 -50 0
-50 0 0 190 0 190 -50 0 -50 0 0 -325 0 -325 -140 0 -140 0 0 135 0 135 -50 0
-50 0 0 190 0 190 -50 0 -50 0 0 -325 0 -325 -140 0 -140 0 0 135 0 135 -45 0
-45 0 0 190 0 190 -55 0 -55 0 0 -325 0 -325 -140 0 -140 0 0 135 0 135 -45 0
-45 0 0 190 0 190 -55 0 -55 0 0 -325 0 -325 -140 0 -140 0 0 135 0 135 -45 0
-45 0 0 190 0 190 -55 0 -55 0 0 -325z m2640 -650 c64 -33 60 55 60 -1385 0
-1440 4 -1352 -60 -1385 -25 -13 -188 -15 -1340 -15 -1440 0 -1352 -4 -1385
60 -13 25 -15 188 -15 1340 0 1151 2 1315 15 1340 33 63 -56 59 1383 60 1155
0 1317 -2 1342 -15z"/>
<path d="M1442 3677 l-22 -23 0 -1095 0 -1096 23 -21 23 -22 1095 0 1096 0 21
23 22 23 0 1095 0 1096 -23 21 -23 22 -1095 0 -1096 0 -21 -23z m508 -1462 l0
-35 -110 0 -110 0 0 35 0 35 110 0 110 0 0 -35z m910 0 l0 -35 -190 0 -190 0
0 35 0 35 190 0 190 0 0 -35z m-410 -220 l0 -35 -355 0 -355 0 0 35 0 35 355
0 355 0 0 -35z m470 0 l0 -35 -190 0 -190 0 0 35 0 35 190 0 190 0 0 -35z
m-780 -210 l0 -35 -205 0 -205 0 0 35 0 35 205 0 205 0 0 -35z"/>
</g>
</svg>
