<?xml version="1.0" standalone="no"?>
<!DOCTYPE svg PUBLIC "-//W3C//DTD SVG 20010904//EN"
 "http://www.w3.org/TR/2001/REC-SVG-20010904/DTD/svg10.dtd">
<svg version="1.0" xmlns="http://www.w3.org/2000/svg"
 width="1024.000000pt" height="1024.000000pt" viewBox="0 0 1024.000000 1024.000000"
 preserveAspectRatio="xMidYMid meet">

<g transform="translate(0.000000,1024.000000) scale(0.100000,-0.100000)"
fill="#000000" stroke="none">
<path d="M6107 9730 l6 -50 -52 0 -51 0 0 -849 c0 -849 0 -849 -20 -844 -12 3
-28 -1 -38 -10 -9 -8 -32 -18 -50 -22 l-33 -7 5 -101 c3 -56 5 -123 5 -149 1
-47 1 -47 27 -37 l27 10 -7 -56 -6 -56 44 6 45 7 -5 -593 c-3 -327 -8 -600
-10 -608 -3 -10 -18 -12 -59 -9 l-55 5 0 -49 c0 -43 2 -48 23 -48 59 0 67 -9
66 -69 0 -31 -3 -49 -6 -41 -7 18 -34 39 -50 40 -6 0 -15 -9 -18 -20 -12 -37
-25 -21 -25 30 l0 50 -49 0 -48 0 -6 -82 c-9 -110 -8 -753 1 -798 6 -29 12
-35 35 -37 46 -3 57 -19 57 -84 l0 -59 -50 0 -50 0 0 -49 c0 -44 -2 -49 -26
-55 -15 -4 -32 -2 -40 5 -11 9 -11 15 2 40 l15 29 -87 0 -86 0 6 45 7 45 -92
0 -92 0 7 -40 c7 -46 10 -44 -90 -41 l-61 3 7 -49 6 -48 -78 3 -78 4 0 -36 0
-36 -54 0 c-56 0 -66 -8 -66 -52 0 -18 -5 -19 -52 -16 l-53 3 0 -43 0 -43 -56
6 c-37 4 -59 3 -63 -4 -4 -6 -25 -11 -46 -11 -36 0 -39 -2 -42 -32 -3 -32 -4
-33 -58 -38 -48 -4 -55 -8 -58 -28 -2 -12 -8 -22 -13 -22 -6 0 -8 -4 -5 -8 3
-5 -3 -8 -12 -8 -61 0 -82 -5 -82 -19 0 -12 -13 -15 -55 -15 l-55 0 0 -40 0
-39 -67 -3 -68 -3 -5 -40 -5 -40 -85 -5 c-81 -5 -85 -6 -98 -33 -7 -15 -20
-27 -28 -27 -9 0 -27 -9 -41 -20 -16 -12 -41 -20 -64 -20 -32 0 -40 -4 -45
-24 -6 -27 -45 -51 -68 -43 -10 4 -16 1 -16 -8 0 -15 -22 -23 -80 -27 -28 -2
-36 -8 -38 -26 -3 -20 -9 -22 -57 -22 -53 0 -54 0 -57 -32 -3 -33 -3 -33 -65
-36 -59 -3 -62 -4 -65 -30 -3 -25 -6 -27 -58 -30 -83 -3 -100 -9 -100 -33 0
-20 -4 -21 -48 -17 l-49 5 -9 -41 -9 -41 -47 2 -48 3 0 -40 0 -40 -45 7 c-43
5 -45 5 -45 -20 0 -29 -16 -37 -77 -37 l-46 0 7 -40 6 -40 -100 0 c-55 0 -100
-3 -100 -7 0 -5 7 -41 15 -81 11 -53 13 -78 5 -92 -6 -11 -12 -20 -14 -20 -1
0 -1 25 2 56 l5 55 -59 -3 c-56 -3 -59 -4 -62 -30 -3 -26 -6 -28 -52 -28 -48
0 -49 -1 -52 -32 l-3 -33 -57 0 -58 1 0 -49 0 -49 -53 4 -52 3 2 -230 c2 -126
4 -377 6 -557 l3 -328 -68 0 -68 0 0 -40 c0 -39 -1 -40 -34 -40 -26 0 -42 -8
-63 -30 -19 -21 -41 -32 -68 -36 -89 -12 -88 -11 -80 -52 3 -20 10 -40 14 -44
4 -5 40 -3 81 3 41 6 92 13 113 16 38 5 38 5 32 43 l-6 37 53 6 c88 11 97 9
104 -18 4 -18 13 -25 31 -25 41 0 63 -18 63 -50 0 -32 -16 -41 -22 -12 -3 10
-6 3 -9 -16 -5 -27 -3 -32 10 -26 43 18 61 16 69 -7 15 -41 4 -57 -51 -69 -94
-22 -94 -22 -90 -232 2 -100 2 -187 -1 -193 -2 -6 -21 -9 -45 -7 l-41 4 5 94
c3 52 7 137 10 189 l5 94 -51 -6 -51 -6 3 49 4 50 -99 -4 c-107 -5 -116 -1
-116 50 0 32 -3 34 -54 43 l-39 8 5 -47 6 -46 -43 0 -42 0 -6 -127 c-4 -71 -7
-154 -7 -185 0 -57 1 -58 28 -58 59 0 61 9 64 194 3 172 7 189 40 164 13 -10
19 -43 28 -148 6 -74 13 -156 16 -182 7 -52 0 -57 -49 -39 -24 9 -25 8 -30
-42 -2 -29 -3 -55 -1 -58 2 -3 20 -3 41 0 36 6 38 8 41 48 l3 41 60 4 60 3 -7
-40 c-8 -52 -13 -57 -68 -57 -45 0 -46 0 -46 -33 0 -54 6 -61 49 -57 38 4 40
3 43 -29 l3 -33 92 3 c127 4 128 4 131 34 3 23 8 26 45 29 39 3 42 5 39 30
l-3 27 88 3 88 3 3 38 3 37 60 0 c33 0 76 7 96 15 19 8 53 15 74 15 l39 0 0
-44 0 -44 64 5 64 6 7 -41 7 -41 43 6 c42 5 44 4 51 -22 6 -24 10 -27 46 -23
37 3 39 2 36 -22 -2 -20 -9 -26 -37 -28 l-33 -3 7 -107 c4 -59 11 -111 16
-116 5 -6 9 -43 9 -84 0 -70 1 -74 20 -68 67 21 62 25 60 -45 -2 -84 -2 -85
12 -71 7 7 27 12 44 12 32 0 33 1 36 48 l3 47 45 3 c24 2 47 7 50 12 3 4 32 4
65 0 l60 -9 -58 3 -59 3 6 -30 c3 -16 6 -38 6 -48 0 -17 8 -19 70 -19 l70 0 0
40 c0 39 1 39 30 34 l30 -6 0 105 c0 58 3 113 6 121 9 23 79 53 168 71 86 18
206 64 231 89 9 9 28 16 41 16 14 0 22 4 19 10 -3 6 1 7 9 4 18 -7 22 -44 6
-44 -6 0 -57 -22 -113 -49 -235 -113 -285 -130 -288 -98 -4 33 -17 -109 -18
-194 l-1 -96 -55 5 -55 4 0 -41 0 -41 -88 0 -89 0 5 30 c4 30 4 30 -46 30 -28
0 -54 -5 -57 -10 -3 -6 -3 -31 1 -56 5 -36 9 -43 16 -30 5 9 19 16 32 16 19 0
22 -4 18 -30 l-4 -30 121 0 c66 0 124 0 129 0 4 1 6 14 5 31 l-1 30 66 -3 67
-3 3 34 3 34 75 -5 74 -5 6 38 c7 44 27 50 78 24 20 -11 43 -13 77 -9 l49 7 0
-52 0 -51 90 0 90 0 0 -36 0 -36 43 6 c40 6 43 5 54 -23 10 -27 13 -29 51 -24
40 5 41 5 48 -32 l7 -37 53 6 53 6 3 -37 3 -37 52 3 c51 2 52 2 61 -31 8 -30
11 -33 43 -30 54 5 110 22 104 32 -3 5 16 12 42 16 41 6 49 4 65 -16 10 -12
18 -28 18 -35 0 -19 49 -25 216 -25 130 0 154 2 154 15 0 12 14 15 64 15 l65
0 3 38 c3 36 4 37 41 34 l37 -3 0 46 0 46 30 -16 c52 -27 52 -27 48 141 l-3
156 80 -4 80 -3 3 48 3 48 67 -1 c119 -2 132 2 132 48 0 20 5 22 59 22 63 0
71 6 71 58 0 26 2 27 45 24 25 -2 61 -1 80 2 33 7 35 9 35 46 l0 39 83 3 82 3
3 32 c3 32 3 32 65 35 62 3 62 3 65 35 l3 33 84 0 84 0 3 48 3 47 93 -1 92 -1
0 43 0 43 68 3 67 3 3 38 3 37 75 0 74 0 0 39 0 38 69 6 c39 3 79 11 91 17 21
11 22 10 44 -55 3 -7 38 -7 112 -1 60 5 156 9 213 9 l103 -2 -4 30 c-4 29 -4
29 44 29 l48 0 0 40 c0 37 2 41 31 47 l31 6 -4 123 -3 124 40 2 c22 1 56 2 75
2 l35 1 3 54 3 53 40 -6 c28 -4 41 -3 44 6 2 7 6 354 7 771 l3 757 -47 0 -48
0 0 43 0 42 -45 -3 c-34 -3 -46 0 -51 12 -4 12 -19 16 -55 16 l-49 0 0 50 0
50 -44 0 c-26 0 -51 6 -60 15 -8 8 -32 15 -55 15 -39 0 -40 1 -43 38 l-3 37
-59 -4 -59 -3 7 37 7 36 -58 -3 -58 -3 -3 43 c-3 42 -3 42 -43 42 -21 0 -39 5
-39 10 0 6 -29 10 -66 10 -52 0 -64 3 -56 13 6 7 12 26 14 42 3 26 0 30 -22
29 -14 0 -41 -3 -62 -7 -32 -7 -36 -5 -32 10 9 37 -11 48 -90 48 l-75 0 2 35
2 35 -52 3 -53 3 0 40 0 39 -55 0 -55 0 0 40 0 41 -35 -7 -35 -6 0 266 0 266
-42 0 c-24 0 -48 4 -55 8 -6 4 -13 34 -14 67 l-3 60 47 3 c44 3 47 5 56 40 5
20 12 230 16 465 l7 428 -62 -7 -62 -7 7 50 6 50 -32 7 c-17 3 -44 6 -59 6
l-27 0 -7 568 c-4 312 -9 581 -12 599 -4 22 -2 31 8 30 7 0 31 1 54 1 l41 2 7
78 c4 42 11 132 14 200 l7 122 -62 0 -63 0 0 856 0 856 -32 -2 c-68 -4 -68 -4
-68 50 l0 50 -85 0 -84 0 6 -50z m144 -67 c5 -5 12 -43 15 -84 l7 -76 -71 -6
c-95 -9 -102 -6 -102 53 0 27 5 52 10 55 6 3 10 22 10 42 l0 36 61 -6 c34 -3
65 -9 70 -14z m19 -334 l0 -59 -86 0 -87 0 7 46 c3 26 6 52 6 59 0 8 26 12 80
13 l80 1 0 -60z m-2 -223 l-3 -51 -84 -3 c-83 -3 -84 -3 -77 20 3 13 6 37 6
55 l0 32 80 -1 81 0 -3 -52z m-78 -435 c0 -142 3 -360 7 -485 l6 -227 -44 3
-44 3 3 465 c2 256 6 473 8 482 5 17 30 27 52 20 9 -3 12 -65 12 -261z m67
-513 c-2 -24 -4 -5 -4 42 0 47 2 66 4 43 2 -24 2 -62 0 -85z m0 -140 c-2 -13
-4 -3 -4 22 0 25 2 35 4 23 2 -13 2 -33 0 -45z m-241 -100 l9 -43 77 -3 c43
-2 89 -9 104 -17 14 -7 35 -12 45 -10 16 3 19 -2 19 -38 0 -23 3 -66 6 -94 l7
-53 -41 0 c-22 0 -44 -5 -47 -10 -11 -18 5 -69 23 -73 9 -3 -31 -5 -90 -6
l-108 -1 0 45 c0 33 -5 47 -19 54 -16 9 -19 28 -25 133 -4 68 -4 131 -1 141
12 30 32 18 41 -25z m363 -30 c0 -61 -2 -69 -11 -45 -5 15 -16 27 -24 27 -22
0 -17 31 6 37 13 3 20 14 20 29 0 13 2 24 5 24 3 0 5 -33 4 -72z m-231 -439
c-7 -5 -8 -9 -2 -9 5 0 17 -17 26 -37 14 -33 17 -104 20 -536 l3 -497 -43 0
-42 0 0 549 1 548 25 -5 c19 -3 22 -7 12 -13z m54 -1187 l93 5 -3 -42 -4 -42
-75 -7 c-125 -10 -149 -8 -150 12 -1 9 -4 30 -7 46 -8 42 11 62 35 40 16 -14
34 -16 111 -12z m-234 -127 l72 -7 0 -35 0 -34 168 2 167 2 3 -57 3 -56 -73 0
c-40 0 -144 3 -231 7 -154 6 -157 7 -151 27 4 12 13 28 20 37 22 25 17 29 -41
29 l-55 0 0 43 c0 48 6 59 29 53 9 -3 49 -8 89 -11z m518 -72 c-7 -7 -77 -5
-85 3 -2 2 17 4 44 4 27 0 45 -3 41 -7z m-498 -220 c-10 -2 -26 -2 -35 0 -10
3 -2 5 17 5 19 0 27 -2 18 -5z m-54 -423 c14 0 26 -4 26 -10 0 -5 -22 -10 -50
-10 -35 0 -50 4 -50 13 0 21 11 27 31 17 10 -6 29 -10 43 -10z m442 -225 c-1
-5 -25 -10 -52 -11 -96 -1 -97 -1 -92 -34 4 -26 1 -31 -21 -36 -43 -9 -47 -12
-19 -13 25 -1 27 -3 25 -51 l-2 -50 -147 0 -148 0 0 50 c0 49 -1 50 -30 50
-32 0 -33 3 -24 63 6 33 10 37 35 37 28 0 29 -2 31 -47 1 -47 1 -47 5 -8 6 69
-8 65 228 63 138 -2 214 -7 211 -13z m-831 -116 c6 -4 21 -9 35 -11 22 -3 26
-10 34 -60 5 -32 13 -58 18 -58 4 0 8 6 8 14 0 19 24 27 107 33 70 6 72 5 77
-18 16 -79 16 -79 40 -79 48 0 56 -9 56 -61 0 -44 2 -49 23 -48 16 1 18 2 5 6
-14 3 -18 14 -17 46 1 23 3 34 6 25 2 -10 17 -21 31 -24 15 -4 36 -15 47 -24
11 -10 31 -21 45 -25 31 -9 40 -22 40 -58 0 -23 3 -26 18 -19 9 5 29 12 45 16
27 6 27 6 27 -49 0 -34 4 -55 11 -55 8 0 10 19 6 60 l-5 60 39 0 39 0 0 -55
c0 -41 4 -55 14 -55 8 0 18 9 21 20 4 12 15 20 29 20 19 0 25 -7 30 -37 3 -21
6 -50 6 -65 0 -26 3 -28 43 -28 23 0 60 7 82 15 57 20 65 19 65 -14 0 -16 3
-41 6 -57 5 -27 8 -29 50 -26 l44 4 0 -37 0 -36 63 5 c34 3 79 8 100 12 l37 7
0 -47 0 -46 40 0 c43 0 45 -4 41 -64 l-3 -29 55 6 c46 4 57 2 62 -11 4 -11 8
-13 13 -5 4 6 21 13 38 17 29 7 30 6 44 -46 11 -41 15 -47 18 -28 2 18 12 29
32 37 40 15 56 -6 65 -84 l7 -63 46 3 c47 2 47 2 50 -32 2 -19 7 -30 10 -24 4
5 24 13 45 17 34 6 37 5 37 -17 0 -21 4 -23 47 -23 45 1 48 -1 53 -29 5 -27 9
-30 49 -33 28 -2 47 1 52 9 5 8 11 -8 15 -41 5 -30 10 -47 12 -37 2 9 8 15 13
12 5 -4 9 -1 9 4 0 6 14 11 30 11 26 0 30 -4 30 -26 0 -15 -4 -23 -10 -19 -6
4 -29 4 -50 0 -36 -6 -40 -10 -40 -35 0 -16 -7 -30 -15 -34 -27 -10 -76 6 -86
28 -6 15 -8 4 -7 -39 l2 -60 -39 -3 c-22 -2 -45 -8 -52 -13 -6 -6 -27 -7 -46
-4 -31 6 -36 4 -42 -17 -10 -31 -22 -38 -73 -38 -35 0 -44 -4 -54 -25 -12 -27
-54 -35 -76 -13 -9 9 -12 4 -12 -25 l0 -37 -54 0 c-49 0 -55 -2 -58 -22 -4
-32 -43 -48 -120 -48 l-68 0 0 -30 c0 -27 3 -30 33 -31 31 -1 31 -2 -8 -10
-22 -4 -70 -8 -106 -8 -66 -1 -67 -1 -71 -30 -2 -17 -2 -29 1 -29 3 1 17 -1
31 -5 14 -3 48 -8 77 -10 l52 -4 3 36 c2 26 7 35 18 33 45 -11 101 -4 114 13
18 24 26 7 17 -35 -7 -35 -8 -35 -61 -36 -77 -3 -90 -10 -90 -51 l0 -34 -57 3
c-50 3 -59 6 -70 28 -7 14 -24 28 -40 31 -40 9 -143 10 -143 2 0 -5 -3 -19 -7
-32 l-6 -24 69 7 c68 7 115 8 120 3 1 -1 5 -19 9 -39 7 -36 6 -38 -18 -38 -14
0 -31 9 -40 22 -12 17 -16 19 -16 7 -1 -8 4 -20 11 -27 7 -7 8 -12 3 -13 -17
-1 -87 -10 -98 -12 -6 -1 -15 17 -20 41 -8 35 -14 42 -33 42 -15 0 -24 6 -24
15 0 8 -7 15 -15 15 -8 0 -15 -9 -15 -19 0 -23 -19 -31 -71 -31 -38 0 -39 -1
-39 -34 0 -37 2 -37 -143 -52 -58 -6 -58 -7 -52 -35 6 -27 4 -29 -23 -29 -16
0 -43 -3 -60 -6 -28 -6 -29 -8 -19 -35 12 -31 3 -49 -15 -31 -7 7 -16 8 -23 2
-6 -5 -37 -10 -70 -12 -54 -3 -60 -5 -65 -28 -5 -20 -13 -26 -43 -28 -29 -3
-40 -9 -47 -28 -7 -18 -18 -24 -40 -25 -52 -2 -55 -4 -58 -25 -3 -24 -34 -36
-68 -28 -15 4 -26 -1 -37 -16 -12 -18 -21 -21 -45 -15 -18 3 -33 2 -37 -4 -3
-6 -1 -11 6 -11 6 0 0 -9 -14 -20 -14 -11 -39 -20 -55 -20 -21 0 -35 -8 -46
-25 -9 -14 -25 -25 -36 -25 -11 0 -20 -7 -20 -15 0 -12 -14 -15 -65 -15 l-65
0 0 -30 c0 -27 3 -30 30 -30 17 0 33 -6 35 -12 7 -20 13 -102 7 -115 -5 -15
-62 -18 -62 -3 0 5 -9 14 -20 20 -19 10 -20 9 -9 -8 7 -11 10 -26 6 -34 -8
-21 -65 -28 -83 -11 -17 17 -17 24 -4 57 8 21 16 26 44 26 25 0 39 7 50 22 19
26 12 32 -52 42 -41 6 -43 5 -48 -24 -6 -29 -27 -40 -39 -20 -10 15 -35 12
-29 -4 7 -19 -7 -26 -63 -30 l-48 -4 -3 -40 -3 -40 -37 9 c-51 12 -52 12 -52
-13 0 -35 -13 -48 -63 -63 l-47 -14 0 47 c0 65 -17 119 -43 137 -32 22 -179
21 -218 -2 -36 -22 -45 -64 -27 -129 l14 -49 96 -3 c69 -2 100 -7 108 -17 23
-27 -14 -48 -96 -53 -70 -4 -76 -3 -81 17 -9 34 -63 21 -76 -19 -2 -8 -12 10
-21 41 -17 56 -17 57 -61 64 -25 3 -45 11 -45 17 0 17 -31 48 -49 48 -12 0
-12 -3 -3 -12 7 -7 12 -25 12 -40 0 -24 -4 -28 -30 -28 -28 0 -30 2 -30 40 0
31 -4 40 -17 40 -17 1 -17 1 0 11 13 7 16 17 11 32 -9 30 -7 29 -40 12 -53
-27 -64 -21 -64 36 l0 51 -35 -22 c-38 -23 -55 -20 -55 11 0 16 -7 19 -50 19
l-50 0 0 35 0 36 -50 -7 -50 -7 0 48 c0 46 -1 47 -26 41 -84 -22 -84 -22 -84
18 l0 36 -47 -3 c-47 -2 -48 -2 -51 31 l-3 33 -50 -7 c-48 -6 -49 -6 -49 21 0
26 -1 27 -57 23 l-58 -3 -3 38 c-3 37 -4 38 -40 37 -67 -3 -72 -2 -72 25 0 22
-3 24 -19 15 -29 -15 -36 -13 -48 20 -10 27 -13 28 -40 18 -46 -17 -61 -6 -69
50 -6 49 -7 49 -25 31 -11 -11 -28 -19 -39 -19 -11 0 -20 -4 -20 -10 0 -24
-20 -7 -21 18 -1 46 -11 61 -37 51 -12 -5 -25 -15 -28 -24 -11 -27 -22 -16
-28 30 -4 24 -11 47 -15 49 -4 3 -20 -4 -37 -15 -16 -10 -32 -19 -36 -19 -4 0
-8 19 -10 41 l-3 42 -56 0 c-44 0 -61 -5 -78 -22 -27 -27 -33 -26 -48 5 -22
47 9 70 59 43 17 -9 19 -8 16 8 -3 15 -13 18 -53 18 -49 0 -50 0 -53 33 -3 27
-7 32 -20 27 -9 -3 -29 -9 -44 -12 -27 -5 -28 -4 -28 36 0 33 4 41 18 41 10 0
27 -7 38 -15 13 -10 44 -14 94 -15 108 0 120 5 120 47 0 32 -2 35 -26 30 -21
-4 -25 -1 -22 17 2 12 11 22 24 24 16 2 23 -4 30 -29 16 -55 34 -48 34 14 0
52 -2 55 -32 70 -18 8 -51 18 -73 22 -22 5 -32 10 -23 12 23 6 29 30 19 74
-11 48 -4 57 42 51 26 -3 37 -9 37 -21 0 -10 5 -8 13 9 12 22 19 25 70 24 40
-1 57 2 57 11 0 17 -23 25 -71 25 -32 0 -39 3 -39 20 0 17 7 20 50 20 l50 0 0
40 c0 22 5 40 10 40 6 0 10 -91 10 -254 l0 -253 41 7 41 8 -3 -62 c-3 -50 -1
-60 11 -57 8 2 33 6 54 9 l39 5 -6 -47 c-6 -45 -6 -46 17 -40 13 3 142 6 286
7 240 2 263 1 274 -16 12 -16 14 -14 20 14 3 17 6 46 6 64 l0 33 46 -14 c26
-7 51 -11 56 -8 6 4 7 27 3 57 -7 46 -6 49 11 42 46 -18 75 -27 79 -24 2 2 1
130 -2 285 l-6 281 -43 -5 c-42 -4 -43 -4 -46 29 -3 32 -5 34 -48 39 -43 5
-45 6 -48 41 l-3 36 -39 -7 c-22 -4 -42 -5 -45 -2 -3 3 -5 25 -5 50 0 42 1 44
24 38 13 -3 31 -9 40 -12 13 -5 16 3 16 50 0 55 1 56 28 56 41 0 60 -20 65
-65 3 -36 4 -34 5 12 l2 52 53 -2 52 -2 3 43 3 43 95 -3 94 -3 0 53 c0 58 13
72 49 52 13 -6 21 -21 22 -38 1 -21 2 -22 6 -7 7 26 23 46 33 40 4 -3 14 3 21
12 12 14 11 15 -9 9 -21 -7 -22 -4 -22 38 l0 45 38 -5 c56 -8 61 -11 55 -33
-7 -26 -12 -26 -29 -3 -13 16 -14 16 -8 0 3 -10 1 -18 -4 -18 -6 0 -10 -12 -9
-27 2 -22 8 -29 30 -31 26 -3 27 -1 27 38 l0 42 60 -4 60 -3 0 49 c0 42 2 47
18 40 9 -4 35 -8 57 -8 38 -1 40 1 37 27 -3 26 -2 27 52 27 58 0 66 7 66 59 0
27 1 28 55 23 l55 -4 0 46 c0 44 2 47 21 41 20 -7 45 -13 61 -14 3 -1 9 -9 11
-18 3 -13 5 -11 6 6 1 21 5 23 39 19 55 -7 96 13 97 48 0 42 38 41 46 -1 4
-23 7 -13 13 43 10 89 33 97 69 22 l17 -35 0 67 0 66 50 7 c44 6 51 10 56 33
10 46 12 48 19 15 6 -25 13 -33 29 -33 39 0 45 -13 48 -95 l3 -80 35 -3 c19
-2 39 -7 45 -12 5 -4 41 -6 78 -3 76 6 75 6 95 91 8 35 7 44 -4 48 -8 2 -21 6
-29 9 -8 2 -15 13 -15 24 0 24 -44 36 -100 26 l-39 -7 19 38 c11 20 17 41 14
46 -7 11 96 9 111 -3z m-145 -140 c0 -14 -7 -19 -25 -19 -29 0 -33 17 -8 36
22 15 33 9 33 -17z m103 -26 c3 -31 4 -60 1 -65 -6 -9 -98 -11 -131 -2 -12 3
-23 16 -26 30 -4 21 0 24 24 24 15 0 30 -4 33 -8 2 -4 23 -6 46 -4 48 5 49 25
2 30 -26 3 -32 8 -32 28 0 21 4 24 39 24 l38 0 6 -57z m971 -228 c3 -9 3 -36
-1 -60 -6 -45 -6 -45 -45 -45 l-39 0 3 52 c3 46 6 53 28 59 39 11 47 10 54 -6z
m-2118 -176 c3 -5 -6 -9 -19 -9 -13 0 -24 6 -24 14 0 14 33 10 43 -5z m2311
-21 c-3 -8 -6 -5 -6 6 -1 11 2 17 5 13 3 -3 4 -12 1 -19z m93 -22 c0 -30 -2
-33 -25 -28 -15 2 -25 11 -25 21 0 14 8 20 48 40 1 0 2 -14 2 -33z m-2722 -65
c11 -7 11 -9 -1 -14 -16 -6 -27 0 -27 15 0 10 11 10 28 -1z m-370 -202 c3 -23
-1 -27 -27 -31 -29 -4 -31 -3 -31 29 0 32 2 34 28 31 21 -2 28 -9 30 -29z
m-67 -205 l-3 -46 48 3 c41 3 49 0 54 -16 10 -38 26 -56 43 -49 9 3 17 10 17
15 0 5 5 9 10 9 6 0 10 -40 10 -100 0 -75 -3 -98 -12 -96 -7 3 -28 7 -45 10
l-33 6 0 -56 c0 -51 -1 -54 -19 -44 -11 5 -31 10 -45 10 -24 0 -26 -4 -26 -42
0 -24 -4 -48 -8 -54 -10 -16 -320 -18 -338 -3 -8 6 -14 30 -15 53 0 22 -3 35
-6 29 -2 -7 -20 -13 -39 -13 -30 0 -34 -3 -34 -25 0 -42 -16 -28 -19 18 -1 23
-6 60 -11 82 -7 39 -8 39 -9 8 -1 -31 -3 -33 -36 -33 -34 0 -43 12 -36 53 0 4
-4 7 -11 7 -8 0 -9 29 -5 106 3 59 8 109 11 111 3 3 38 10 79 16 l75 11 -6 38
-5 38 209 0 209 0 -4 -46z m4143 -260 c8 -3 20 -22 27 -41 14 -43 4 -53 -57
-53 -33 0 -43 -4 -47 -20 -3 -13 -14 -20 -30 -20 -14 0 -34 -3 -44 -6 -15 -6
-16 -4 -5 7 6 7 12 18 12 24 0 5 -5 3 -10 -5 -8 -12 -10 -12 -10 5 0 34 15 46
58 47 41 0 42 1 42 34 0 29 3 34 24 34 13 0 31 -3 40 -6z m-5176 -116 c10 3 9
-4 -3 -28 -12 -22 -16 -50 -13 -90 2 -46 0 -56 -9 -48 -7 6 -13 28 -13 49 0
32 -3 39 -20 39 -21 0 -24 10 -14 58 5 27 9 29 33 23 14 -5 32 -6 39 -3z
m4997 -38 c0 -34 -1 -35 -38 -34 -24 1 -43 8 -53 20 -13 18 -14 17 -8 -7 6
-30 -20 -64 -43 -55 -8 3 -18 6 -23 6 -13 0 -20 42 -9 62 6 11 21 18 40 18 24
0 30 4 25 15 -5 14 3 16 52 13 l57 -3 0 -35z m-4885 -40 c0 -27 -3 -30 -30
-30 -16 0 -30 5 -30 11 0 23 22 49 40 49 16 0 20 -7 20 -30z m-212 -6 c9 -3
12 -22 10 -66 l-3 -63 -38 -3 c-42 -4 -43 -3 -52 85 l-6 62 38 -5 c21 -3 44
-8 51 -10z m4876 10 c19 -7 21 -55 4 -72 -7 -7 -27 -12 -45 -12 -19 0 -33 5
-33 12 0 21 -18 -5 -22 -31 -5 -35 -31 -48 -68 -34 -29 11 -30 10 -30 -17 0
-32 -18 -42 -68 -38 -20 1 -28 6 -22 13 4 5 10 21 12 35 2 20 10 26 38 31 19
4 29 7 21 8 -11 1 -10 5 4 21 20 22 89 44 111 36 7 -3 16 3 19 13 3 10 15 23
28 29 27 13 31 14 51 6z m-4674 -79 c0 -33 -2 -35 -35 -35 -32 0 -35 3 -35 29
0 31 10 39 48 40 19 1 22 -4 22 -34z m-348 -25 c19 0 48 -32 48 -52 0 -15 -8
-18 -55 -18 l-55 0 0 33 c0 17 3 42 6 55 l7 23 19 -21 c10 -11 24 -20 30 -20z
m141 -103 c21 -24 13 -31 -45 -40 -35 -5 -38 -4 -38 18 0 43 10 55 39 49 14
-3 34 -15 44 -27z m51 -66 c1 -17 -1 -31 -6 -31 -4 0 -8 17 -8 37 0 43 11 38
14 -6z m-193 -71 c28 0 39 -4 39 -15 0 -12 13 -15 55 -15 54 0 55 0 55 -30 0
-29 1 -30 49 -30 41 0 51 -4 56 -20 4 -11 16 -20 28 -21 12 -1 31 -2 42 -3 12
0 26 -14 34 -33 12 -27 20 -32 55 -35 34 -3 41 -7 46 -28 5 -22 12 -25 52 -28
36 -2 48 -8 53 -23 4 -13 15 -19 35 -19 21 0 29 -6 34 -25 6 -23 11 -25 66
-25 59 0 60 0 60 -28 0 -37 17 -52 57 -52 22 0 33 -5 33 -15 0 -22 28 -32 112
-40 l77 -7 3 -31 c3 -32 3 -32 66 -35 l62 -3 0 -44 c0 -44 1 -45 33 -45 49 0
75 -10 80 -31 4 -14 14 -19 40 -19 30 0 37 -4 46 -30 9 -27 14 -30 53 -30 39
0 45 -3 55 -30 10 -27 16 -30 52 -30 34 0 43 -4 50 -24 8 -19 19 -25 63 -30
135 -18 127 -14 130 -54 3 -36 4 -37 52 -43 30 -3 53 -12 62 -23 9 -13 22 -17
43 -14 28 4 31 2 31 -23 0 -27 2 -28 62 -31 54 -3 63 -6 66 -23 10 -67 9 -67
57 -59 l45 6 0 -634 0 -635 -30 5 c-18 3 -32 12 -36 24 -5 15 -12 19 -33 15
-14 -3 -42 -8 -62 -12 l-35 -7 4 36 c4 35 5 36 47 36 39 0 43 2 49 30 5 28 1
94 -10 147 -4 21 -10 23 -64 23 -46 0 -62 -4 -72 -18 -7 -10 -23 -21 -36 -25
-18 -4 -21 -3 -12 8 8 9 8 15 0 20 -19 12 -10 42 26 79 19 20 37 46 38 59 2
12 7 30 10 39 4 9 2 26 -4 37 -6 12 -16 86 -22 166 l-12 144 -30 3 c-28 3 -31
7 -34 41 -3 35 -5 37 -38 37 l-34 0 0 50 c0 47 2 50 25 50 14 0 25 5 25 10 0
6 9 10 21 10 13 0 18 -4 13 -12 -4 -7 -3 -8 5 -4 19 12 13 226 -6 233 -24 9
-83 72 -83 88 0 23 -38 55 -65 55 -18 0 -25 5 -25 19 0 22 -26 31 -97 31 -62
0 -100 -27 -109 -77 -6 -31 -5 -33 20 -33 19 0 29 7 36 25 9 23 14 25 75 25
l65 0 0 -37 c0 -70 8 -83 51 -83 37 0 38 -1 41 -37 2 -21 2 -68 0 -105 l-4
-68 -36 1 c-33 0 -35 1 -16 11 l22 10 -24 35 c-16 24 -24 50 -24 79 0 23 -4
46 -10 49 -5 3 -10 14 -10 24 0 19 -40 31 -107 31 l-32 0 -3 -62 c-3 -55 -5
-63 -23 -63 -18 0 -21 10 -29 80 -9 85 -15 95 -58 95 -25 0 -27 -3 -33 -66 -9
-82 2 -125 38 -142 23 -11 25 -16 17 -33 -10 -17 -22 -19 -120 -19 -91 0 -111
-3 -118 -17 -8 -13 -12 -5 -21 36 -6 29 -11 59 -11 66 0 11 -12 15 -39 15 -42
0 -50 7 -66 54 -10 30 -43 49 -63 37 -8 -5 -10 -25 -4 -67 7 -58 8 -59 42 -64
29 -4 36 -10 38 -31 3 -23 -1 -27 -30 -32 -36 -6 -78 15 -78 38 0 23 -38 37
-80 30 -35 -6 -38 -9 -43 -47 -8 -63 -27 -72 -26 -13 0 55 10 87 24 86 5 0 8
12 7 27 -3 25 1 28 55 44 43 13 61 24 70 43 6 14 8 27 5 29 -4 2 -37 7 -75 11
-52 5 -68 4 -71 -7 -19 -72 -20 -73 -61 -74 l-40 0 -7 -55 c-3 -30 -4 -91 -1
-136 5 -72 8 -82 29 -94 13 -7 24 -21 24 -31 0 -11 7 -18 19 -18 10 0 24 -7
31 -15 7 -8 16 -12 21 -9 5 3 9 -11 9 -30 0 -34 -2 -36 -33 -36 -35 0 -61 15
-70 40 -3 9 -6 4 -6 -11 -1 -29 -14 -43 -50 -54 -29 -9 -42 8 -34 46 5 26 5
27 -40 22 -62 -7 -93 17 -89 67 2 19 7 39 12 44 18 18 -19 34 -93 41 -66 6
-78 5 -83 -9 -9 -24 15 -48 43 -41 13 3 23 1 23 -5 0 -5 -19 -10 -43 -10 l-43
0 4 40 4 40 53 0 c30 0 57 5 60 10 3 6 24 10 46 10 l39 0 0 55 c0 53 1 55 20
43 15 -10 24 -10 38 -1 9 6 16 16 15 21 -1 6 -5 86 -8 179 -8 214 -8 213 -45
213 -25 0 -33 6 -47 36 -13 26 -22 34 -36 30 -15 -4 -18 1 -15 22 2 21 8 27
27 27 14 0 26 6 29 13 2 6 22 15 44 18 l40 7 -6 76 c-12 139 -14 148 -44 154
-18 4 -31 15 -38 35 -9 23 -19 31 -40 34 -25 2 -30 8 -34 38 -5 34 -7 35 -55
41 -27 3 -76 10 -107 14 -55 7 -58 6 -58 -13 0 -11 5 -33 10 -47 8 -21 15 -26
33 -22 12 3 52 9 90 12 l67 7 0 -46 c0 -25 5 -46 10 -46 6 0 10 -20 10 -45 0
-40 -2 -45 -23 -45 -25 0 -77 43 -77 64 0 15 -83 28 -88 14 -10 -22 -21 -3
-24 40 l-3 47 -52 3 -53 3 0 -58 c1 -60 13 -169 24 -213 l7 -25 -114 -3 -114
-3 -7 77 c-6 82 -6 698 1 652 4 -25 8 -28 44 -28z m5295 -38 c-9 -9 -37 8 -31
18 5 8 11 7 21 -1 8 -6 12 -14 10 -17z m-358 -37 c1 -33 0 -35 -33 -35 -18 0
-37 5 -41 12 -5 7 -12 -6 -18 -33 -11 -42 -13 -44 -51 -47 -22 -2 -43 -9 -47
-15 -6 -9 -11 -8 -18 3 -11 18 -4 51 16 66 8 6 14 19 14 28 0 19 16 22 23 4 4
-10 7 -10 14 0 6 8 29 11 62 10 50 -2 78 12 65 34 -3 4 -1 8 4 8 5 0 9 -16 10
-35z m-690 -17 l3 -38 -54 0 c-46 0 -55 -3 -60 -20 -6 -23 -52 -28 -60 -7 -3
6 -6 -3 -6 -20 -1 -27 -6 -34 -28 -39 -14 -4 -39 -2 -55 4 l-28 10 0 -44 c0
-50 -16 -64 -54 -46 -17 7 -25 7 -32 -4 -6 -10 -19 -13 -41 -8 -59 12 -51 84
10 84 11 0 25 7 31 16 6 8 28 16 49 17 31 2 37 6 37 25 0 20 5 22 55 22 52 0
55 1 55 24 0 30 13 39 56 38 18 -1 38 5 45 14 7 9 25 14 43 12 28 -3 31 -7 34
-40z m-3704 3 c8 -12 -16 -38 -41 -46 -26 -7 -28 -3 -12 26 5 11 14 17 20 14
5 -4 9 -1 9 4 0 13 17 15 24 2z m3989 -14 c-24 -7 -50 -22 -58 -34 -9 -13 -24
-23 -34 -23 -15 0 -13 6 13 35 27 31 37 35 76 34 l45 -1 -42 -11z m7 -47 c0
-5 -13 -10 -30 -10 -16 0 -30 5 -30 10 0 6 14 10 30 10 17 0 30 -4 30 -10z
m-3827 -27 c-3 -17 -1 -23 4 -16 6 8 13 8 27 -3 24 -17 21 -20 -26 -29 l-38
-7 0 41 c0 33 3 41 19 41 14 0 17 -6 14 -27z m4757 -99 l-15 -32 -152 -1 -153
-2 0 24 0 23 152 3 c84 1 156 5 160 7 4 3 9 22 9 42 l2 37 6 -35 c4 -22 1 -46
-9 -66z m-1250 16 c0 -5 -13 -10 -30 -10 -16 0 -30 5 -30 10 0 6 14 10 30 10
17 0 30 -4 30 -10z m-576 -66 c9 -8 16 -20 16 -25 0 -5 10 -9 22 -9 20 0 18
-3 -14 -25 -20 -14 -41 -25 -46 -25 -8 0 -22 53 -22 88 0 17 25 15 44 -4z
m124 -16 c-2 -17 -10 -23 -27 -23 -32 0 -37 19 -9 33 34 16 40 14 36 -10z
m281 -14 c-6 -8 -18 -14 -26 -14 -8 0 -21 -7 -29 -15 -24 -23 -31 -18 -26 18
3 17 7 27 9 21 4 -13 63 -6 63 8 0 5 5 6 10 3 8 -5 7 -11 -1 -21z m1089 -18
c4 -34 -4 -43 -42 -48 -25 -3 -31 1 -38 27 -12 45 -4 57 39 53 33 -3 38 -6 41
-32z m-1540 -38 c3 -23 -2 -28 -35 -37 -55 -16 -62 -14 -69 15 -9 37 17 54 76
51 19 -2 26 -8 28 -29z m-114 -24 c3 -9 6 -28 6 -44 0 -24 -5 -29 -32 -33 -27
-4 -37 0 -56 21 l-23 27 6 -42 c6 -40 5 -43 -21 -49 -27 -7 -40 2 -65 49 -8
14 -4 19 18 28 15 6 42 17 58 24 32 13 86 32 96 34 4 1 10 -6 13 -15z m1163
-66 c-2 -13 -4 -3 -4 22 0 25 2 35 4 23 2 -13 2 -33 0 -45z m419 49 c1 -1 4
-21 8 -44 5 -34 3 -43 -11 -47 -16 -5 -18 -20 -18 -130 0 -131 -9 -161 -37
-132 -9 8 -18 12 -22 9 -3 -4 -6 65 -6 153 0 87 -3 170 -7 183 -6 23 -5 24 43
16 27 -4 49 -8 50 -8z m-607 -18 c27 -9 32 -16 28 -34 -3 -16 0 -22 10 -18 7
3 13 9 13 14 0 6 6 5 13 -1 6 -6 20 -16 30 -23 12 -8 18 -27 20 -53 1 -34 -5
-48 -36 -85 -21 -24 -33 -45 -27 -47 16 -6 12 -42 -5 -42 -9 0 -15 -9 -16 -22
0 -22 -1 -22 -10 -3 -8 17 -9 16 -6 -7 3 -16 1 -28 -3 -28 -3 0 -7 -21 -9 -46
-1 -32 1 -44 9 -39 7 4 10 19 6 36 -5 28 -5 29 39 29 38 0 45 -3 45 -20 0 -18
7 -20 60 -20 l60 0 0 30 c0 22 -5 30 -17 30 -16 0 -16 -2 -3 -11 10 -7 11 -9
2 -7 -24 6 -18 23 8 24 14 1 35 4 47 8 20 6 22 3 25 -41 l3 -48 48 2 47 3 0
-39 c0 -49 19 -65 67 -58 22 4 33 3 27 -3 -11 -11 -66 -16 -80 -7 -7 4 -11 -2
-10 -16 1 -19 6 -22 38 -19 28 3 39 -1 47 -17 15 -28 14 -31 -13 -31 -15 0
-26 7 -29 18 -3 9 -5 0 -6 -20 -1 -31 -5 -38 -21 -38 -11 0 -20 7 -20 15 0 13
-10 14 -57 9 -32 -4 -59 -11 -61 -16 -2 -4 -30 -8 -63 -8 -52 0 -59 -2 -59
-20 0 -13 -7 -20 -20 -20 -11 0 -20 -6 -20 -14 0 -8 -15 -17 -35 -20 -19 -4
-39 -15 -45 -25 -6 -12 -24 -20 -49 -23 -22 -2 -37 0 -35 4 3 5 18 8 35 8 l29
0 -6 198 c-4 108 -7 197 -8 198 0 0 -21 -4 -45 -9 l-43 -9 4 -184 4 -184 -36
1 c-19 0 -44 4 -55 9 -18 7 -19 8 -2 15 15 6 17 24 17 172 l0 166 -113 -7
-112 -7 -30 30 c-21 23 -26 34 -18 42 6 6 57 15 114 19 57 5 112 12 122 15 13
6 17 2 17 -16 0 -57 10 -70 49 -67 l36 3 3 64 c2 52 0 62 -10 54 -7 -6 -28
-13 -47 -17 l-33 -6 6 45 7 45 -45 0 c-25 0 -47 3 -50 8 -2 4 14 6 37 5 23 -2
36 0 30 3 -21 9 -15 44 7 44 13 0 20 7 20 20 0 13 7 20 20 20 14 0 20 7 20 21
0 17 5 20 23 17 20 -4 23 -1 19 19 -3 18 0 23 17 23 11 0 21 5 21 10 0 13 19
13 59 -1z m188 -176 c-2 -21 -4 -4 -4 37 0 41 2 58 4 38 2 -21 2 -55 0 -75z
m-3199 62 c-5 -22 -2 -25 16 -19 21 6 21 6 1 -9 -27 -20 -70 -26 -69 -9 1 6 2
23 3 37 1 20 6 25 27 25 23 0 26 -3 22 -25z m2186 9 c3 -9 6 -26 6 -39 0 -20
7 -25 35 -31 19 -3 47 -4 63 -2 26 4 27 3 23 -39 -1 -24 -8 -43 -15 -44 -6 0
-32 -1 -58 -1 -28 0 -47 -4 -45 -10 1 -6 -4 -13 -10 -15 -8 -3 -13 4 -13 16 0
17 -6 21 -30 21 -23 0 -30 4 -30 20 0 17 -7 20 -40 20 -29 0 -40 4 -40 15 0 8
6 15 13 15 8 0 7 4 -3 10 -10 6 -11 10 -2 10 7 0 12 13 12 29 0 29 2 30 53 34
28 2 57 4 63 5 7 1 15 -5 18 -14z m506 6 c24 -8 24 -8 -7 -9 -17 -1 -35 4 -38
9 -7 11 9 11 45 0z m-1052 -72 c7 -7 12 -22 12 -35 0 -20 -5 -23 -35 -23 -32
0 -35 3 -35 29 0 38 33 54 58 29z m-879 -100 c18 -19 21 -19 27 -5 5 13 20 17
68 17 l62 0 2 -60 c3 -64 0 -69 -25 -44 -23 23 -59 14 -56 -14 2 -19 -2 -22
-32 -22 -28 0 -35 4 -35 20 0 11 -9 34 -20 52 -18 30 -27 78 -15 78 2 0 13
-10 24 -22z m2438 -30 c-2 -13 -4 -5 -4 17 -1 22 1 32 4 23 2 -10 2 -28 0 -40z
m-1427 28 c0 -3 -4 -8 -10 -11 -5 -3 -10 -1 -10 4 0 6 5 11 10 11 6 0 10 -2
10 -4z m450 -46 l0 -40 -40 0 c-22 0 -40 3 -40 8 0 4 15 7 33 7 29 0 32 3 35
33 5 45 12 40 12 -8z m1848 10 c2 -22 -6 -38 -28 -60 -26 -26 -29 -33 -20 -51
12 -22 8 -32 -15 -35 -8 -1 -15 4 -15 12 0 8 5 14 10 14 6 0 10 5 10 11 0 6
-6 9 -13 6 -7 -3 -21 1 -32 9 -17 12 -17 14 -2 14 14 0 17 10 17 50 0 48 1 50
24 44 19 -4 45 2 61 16 1 0 2 -14 3 -30z m-2710 -32 c3 -50 8 -48 -60 -33 -25
5 -28 10 -28 46 l0 40 43 -3 42 -3 3 -47z m-2432 -2 c9 -50 -1 -59 -52 -51
-44 6 -44 6 -44 -25 0 -42 16 -70 41 -70 19 0 39 -34 39 -66 0 -17 -66 -20
-72 -2 -6 16 -58 1 -58 -17 0 -15 -44 -43 -77 -48 -10 -2 -28 -8 -40 -15 -38
-21 -61 -15 -68 18 -7 33 -1 50 21 50 17 0 18 8 1 24 -8 8 -20 10 -32 5 -11
-4 -32 -8 -47 -8 -23 -1 -28 4 -34 35 -7 35 -8 36 -45 31 -35 -5 -40 -3 -45
19 -3 13 -4 31 0 39 11 30 99 48 109 23 3 -7 6 1 6 17 2 53 13 60 104 63 l84
2 9 -32 c16 -56 86 -47 99 12 6 28 10 30 50 30 42 0 44 -1 51 -34z m2744 -6
c0 -21 -20 -28 -21 -7 0 6 -5 2 -11 -10 -6 -13 -19 -23 -29 -23 -10 0 -21 -5
-24 -10 -11 -17 -23 -1 -18 23 10 45 12 47 58 47 38 0 45 -3 45 -20z m1980
-10 c3 -14 12 -25 20 -25 25 0 17 -30 -9 -33 -63 -9 -88 20 -56 66 20 27 39
24 45 -8z m-5130 4 c0 -8 -4 -12 -10 -9 -5 3 -10 10 -10 16 0 5 5 9 10 9 6 0
10 -7 10 -16z m2735 -39 c0 -50 0 -50 -34 -53 -19 -2 -40 -10 -46 -18 -6 -9
-30 -16 -58 -17 -46 -2 -47 -3 -47 -34 0 -32 -1 -33 -42 -33 -43 0 -43 0 -45
37 -1 21 -7 39 -12 41 -6 2 -11 8 -11 14 0 6 21 7 56 2 61 -7 74 0 74 44 0 12
6 22 14 22 8 0 21 3 29 6 9 3 25 -4 36 -15 l21 -21 0 41 c0 39 1 40 33 37 31
-3 32 -4 32 -53z m1326 15 c21 -31 32 -80 20 -98 -4 -8 -27 -16 -50 -19 l-41
-6 0 61 c0 33 3 68 6 77 9 23 44 15 65 -15z m-436 -107 c-5 -37 -10 -43 -31
-43 -17 0 -24 5 -24 20 0 11 7 20 15 20 8 0 15 -6 15 -12 0 -9 4 -8 10 2 5 8
11 42 12 75 1 47 2 52 5 20 3 -22 2 -59 -2 -82z m-3147 89 c7 -5 15 -26 19
-47 7 -44 -12 -65 -59 -65 -26 0 -28 3 -28 42 0 58 33 92 68 70z m1636 -48 c8
-21 9 -20 -41 -29 -41 -6 -43 -6 -43 19 0 24 4 26 39 26 27 0 41 -5 45 -16z
m-1544 -67 c0 -42 -1 -43 -29 -39 -16 2 -32 11 -35 19 -9 21 11 51 36 56 13 2
24 5 26 6 1 0 2 -18 2 -42z m2878 23 c15 0 33 4 41 9 18 12 41 -10 41 -38 0
-16 9 -21 45 -27 25 -3 46 -7 47 -8 6 -4 12 -336 6 -336 -4 0 -12 15 -17 33
-8 29 -9 30 -11 7 -1 -14 -4 -19 -7 -12 -3 7 -25 12 -59 12 -31 0 -69 7 -86
16 -28 15 -30 15 -25 0 5 -13 3 -14 -13 -4 -10 7 -16 16 -14 20 3 4 1 8 -3 8
-17 0 -47 -46 -53 -80 -5 -33 -8 -35 -45 -37 -22 -2 -81 -5 -132 -9 l-92 -6
-3 -41 -3 -42 -46 -3 c-45 -3 -47 -1 -58 29 -6 18 -11 43 -11 55 0 21 5 24 35
24 34 0 35 1 35 42 l0 41 160 -6 c132 -5 160 -3 160 8 0 7 9 17 20 20 21 7 24
16 14 53 -4 13 -12 21 -18 19 -47 -20 -49 -20 -42 -6 6 11 4 10 -6 -1 -7 -8
-22 -22 -32 -30 -19 -15 -19 -13 -13 49 l7 64 -55 -6 -55 -6 0 45 0 44 -57 0
c-32 0 -69 3 -83 6 -20 5 -22 4 -10 -6 12 -9 9 -11 -16 -8 -27 4 -30 1 -26
-16 3 -12 1 -17 -6 -13 -5 4 -9 13 -8 20 5 34 17 37 126 35 92 -3 107 -5 100
-18 -4 -8 -4 -24 1 -35 6 -17 8 -16 9 10 2 29 2 30 10 5 7 -25 7 -25 11 5 3
24 9 31 32 33 16 2 27 9 27 18 0 23 26 44 54 44 14 0 26 5 26 10 0 6 14 10 30
10 17 0 30 5 31 13 0 10 2 10 6 0 2 -7 17 -13 31 -13z m524 -186 l-4 -184 50
0 c48 0 50 -1 54 -31 5 -35 -20 -59 -63 -59 -24 0 -28 5 -34 41 -5 30 -11 39
-22 35 -8 -4 -26 -9 -40 -12 l-25 -7 6 209 c3 115 6 210 6 210 0 1 17 -2 38
-8 l37 -9 -3 -185z m-822 166 c0 -17 -7 -20 -40 -20 -33 0 -40 3 -40 20 0 17
7 20 40 20 33 0 40 -3 40 -20z m1062 -37 c31 -6 30 -5 32 -48 1 -20 -5 -36
-18 -47 -17 -14 -18 -17 -5 -18 9 0 22 -7 29 -15 11 -13 8 -15 -14 -15 -18 0
-37 -11 -55 -31 -24 -26 -34 -30 -59 -24 -56 12 -87 80 -52 115 10 10 20 31
22 47 3 24 8 28 40 31 36 3 37 5 33 35 l-5 32 12 -28 c8 -18 22 -30 40 -34z
m-1794 39 c13 -9 16 -30 13 -89 -1 -33 -2 -33 -50 -33 -27 0 -51 -4 -53 -8 -1
-5 -23 -6 -46 -4 -39 4 -43 7 -38 26 3 11 6 30 6 42 0 18 6 20 45 19 41 -2 44
0 50 26 5 23 12 29 33 29 15 0 33 -4 40 -8z m199 -88 c-3 -3 -12 -4 -19 -1 -8
3 -5 6 6 6 11 1 17 -2 13 -5z m-2336 -99 c5 4 9 2 9 -2 0 -10 -168 -88 -175
-81 -2 2 -1 17 4 34 7 24 10 26 16 11 7 -17 8 -17 22 3 16 22 49 27 56 8 3 -7
6 1 6 17 1 21 8 33 24 40 19 9 22 7 25 -13 2 -12 8 -20 13 -17z m2429 35 c0
-5 9 -10 19 -10 11 0 22 -9 26 -19 3 -12 17 -22 33 -24 24 -4 24 -4 -6 -6
l-33 -1 7 -50 7 -50 -52 0 -51 0 0 -45 c0 -45 0 -45 -36 -45 -20 0 -33 4 -29
10 3 6 -1 7 -9 4 -12 -5 -16 0 -16 20 0 14 -4 26 -10 26 -5 0 -10 -9 -10 -19
0 -11 -5 -23 -12 -27 -7 -5 -8 -3 -4 5 6 9 -1 11 -27 6 -32 -6 -36 -4 -39 17
-8 46 -20 -154 -13 -217 4 -43 3 -65 -4 -65 -7 0 -10 79 -8 243 l2 242 43 3
c34 3 42 0 42 -14 0 -16 1 -16 13 -2 6 9 21 18 32 21 39 9 135 7 135 -3z m207
4 c-3 -3 -12 -4 -19 -1 -8 3 -5 6 6 6 11 1 17 -2 13 -5z m2053 -14 c0 -25 -23
-35 -47 -21 -16 9 -16 10 5 11 13 0 22 6 22 15 0 8 5 15 10 15 6 0 10 -9 10
-20z m-4872 -92 c3 -25 -1 -28 -65 -46 -125 -36 -123 -36 -123 -4 0 27 5 31
58 46 31 9 64 21 72 26 27 18 55 7 58 -22z m4202 -33 l0 -45 -39 0 c-52 0 -71
-8 -71 -30 0 -32 -18 -32 -25 0 -8 38 -4 44 59 85 69 45 76 44 76 -10z m-3660
25 c8 -5 11 -10 5 -11 -5 0 -18 -2 -27 -4 -9 -2 -19 3 -22 11 -6 16 21 19 44
4z m3684 -75 c3 -8 1 -15 -4 -15 -6 0 -10 7 -10 15 0 8 2 15 4 15 2 0 6 -7 10
-15z m-873 -83 l-53 -3 4 -175 3 -175 -40 3 c-33 3 -40 6 -38 23 1 11 5 84 9
162 4 78 10 145 13 150 12 17 66 28 110 23 l46 -5 -54 -3z m336 -29 c-3 -10
-5 -4 -5 12 0 17 2 24 5 18 2 -7 2 -21 0 -30z m-217 19 c0 -4 -5 -13 -12 -20
-9 -9 -7 -12 10 -12 15 0 22 -6 22 -20 0 -17 7 -20 40 -20 33 0 40 -3 40 -20
0 -13 7 -20 20 -20 17 0 20 -7 20 -40 0 -33 -3 -40 -20 -40 -13 0 -20 -7 -20
-20 0 -13 -7 -20 -20 -20 -17 0 -20 -7 -20 -41 l0 -41 -40 7 c-26 4 -40 3 -40
-4 0 -6 -10 -11 -21 -11 -16 0 -20 -5 -16 -20 3 -11 2 -20 -3 -20 -4 0 -10 17
-14 38 -9 59 -7 295 4 312 8 12 10 12 11 -5 0 -11 3 -14 6 -7 2 6 11 12 19 12
8 0 14 5 14 10 0 6 5 10 10 10 6 0 10 -4 10 -8z m-1932 -64 c3 -30 0 -38 -13
-38 -24 0 -75 32 -75 47 0 17 31 33 60 30 21 -2 25 -8 28 -39z m-173 2 c17
-33 26 -36 57 -19 32 17 43 -2 30 -52 -12 -46 -7 -68 11 -50 20 20 46 12 62
-19 9 -16 12 -30 8 -30 -5 0 -16 -14 -25 -30 -21 -37 -50 -39 -68 -5 -18 33
-31 32 -24 -2 7 -39 -8 -55 -50 -55 -20 0 -36 -4 -36 -9 0 -11 -54 -39 -74
-39 -38 0 -26 78 16 109 14 9 16 17 9 24 -6 6 -15 4 -26 -7 -22 -21 -81 -21
-93 0 -5 9 -7 26 -4 37 5 19 2 20 -46 14 -49 -6 -52 -5 -58 18 -10 40 1 51 75
75 61 20 71 27 71 47 0 22 3 23 75 23 73 0 75 -1 90 -30z m2414 8 c0 -13 -3
-17 -6 -10 -2 6 -14 12 -26 12 -18 0 -19 2 -7 10 25 16 40 11 39 -12z m236 -8
c-3 -5 -1 -10 4 -10 6 0 11 -9 11 -20 0 -15 7 -20 25 -20 41 0 27 -34 -17 -42
-23 -4 -29 -1 -37 24 -10 27 0 78 14 78 4 0 3 -4 0 -10z m-3090 -19 l30 -7
-23 -13 c-19 -10 -33 -10 -73 0 -27 7 -49 16 -49 21 0 9 71 9 115 -1z m3355
-7 c0 -2 -17 -4 -37 -3 -33 1 -35 2 -13 8 23 7 50 4 50 -5z m-1417 -192 c-3
-103 -6 -193 -8 -199 -3 -8 -21 -13 -42 -13 l-38 0 0 203 0 202 46 -3 46 -4
-4 -186z m-1222 149 c33 -34 38 -61 10 -61 -11 0 -26 -6 -34 -14 -13 -13 -18
-11 -41 13 -63 66 0 126 65 62z m-2094 -28 c-3 -10 -5 -2 -5 17 0 19 2 27 5
18 2 -10 2 -26 0 -35z m40 41 c-3 -3 -12 -4 -19 -1 -8 3 -5 6 6 6 11 1 17 -2
13 -5z m76 -1 c-7 -2 -21 -2 -30 0 -10 3 -4 5 12 5 17 0 24 -2 18 -5z m2029
-68 c3 -13 1 -22 -3 -19 -9 5 -13 44 -5 44 2 0 6 -11 8 -25z m-648 -30 c38
-27 53 -32 67 -25 10 6 22 10 27 10 14 0 24 -31 14 -44 -5 -6 -12 -21 -15 -33
-5 -20 -1 -23 29 -23 23 0 37 -6 44 -19 16 -31 13 -37 -38 -69 -26 -17 -56
-39 -67 -49 -25 -22 -70 -43 -94 -43 -21 0 -31 19 -31 56 0 21 -5 24 -34 24
-30 0 -35 3 -38 28 l-3 27 -102 3 -102 3 -6 30 c-9 40 0 48 68 59 31 5 66 14
78 20 12 7 32 10 46 7 17 -3 23 -1 19 8 -7 19 46 60 84 64 3 1 27 -15 54 -34z
m-1362 -15 l4 -40 -83 0 -83 0 0 34 c0 39 7 42 106 45 l52 1 4 -40z m2678
-105 c1 -22 4 -34 7 -27 10 26 23 10 23 -28 0 -22 5 -40 10 -40 6 0 10 6 10
13 0 13 29 -19 61 -68 15 -24 19 -48 19 -127 0 -91 -1 -98 -20 -98 -13 0 -20
-7 -20 -20 0 -13 7 -20 20 -20 13 0 20 -7 20 -20 0 -13 -7 -20 -18 -20 -15 0
-21 -12 -28 -57 -8 -49 -13 -59 -31 -61 -13 -2 -23 -12 -25 -25 -3 -16 -7 -10
-16 23 l-12 45 5 -42 c3 -24 1 -43 -4 -43 -4 0 -11 44 -15 98 -9 124 -5 615 5
582 4 -14 8 -43 9 -65z m840 -26 c0 -11 7 -34 16 -50 8 -17 14 -32 12 -33 -2
-2 -22 -1 -45 2 -42 4 -43 5 -43 42 0 28 6 43 22 54 25 18 38 13 38 -15z m113
-14 c-7 -21 -13 -19 -13 6 0 11 4 18 10 14 5 -3 7 -12 3 -20z m-2638 -74 c3
-31 13 -109 21 -174 9 -65 13 -121 10 -124 -2 -3 -22 -1 -43 4 l-38 9 -6 157
c-4 86 -9 163 -12 171 -8 20 -1 23 32 18 28 -4 30 -7 36 -61z m2269 -8 c4 -5
47 -8 94 -8 l87 0 3 -27 3 -28 -90 0 c-51 0 -91 -4 -91 -10 0 -8 -60 -30 -84
-30 -15 0 2 84 20 97 20 14 47 17 58 6z m-372 -38 c3 -13 1 -22 -3 -19 -9 5
-13 44 -5 44 2 0 6 -11 8 -25z m91 -73 c2 -32 1 -48 -4 -40 -5 7 -9 28 -9 46
0 25 -4 32 -19 32 -31 0 -34 18 -4 22 33 4 30 8 36 -60z m94 -28 c-3 -3 -12
-4 -19 -1 -8 3 -5 6 6 6 11 1 17 -2 13 -5z m282 -109 c2 -14 -1 -17 -20 -12
-13 4 -30 7 -36 7 -7 0 -13 6 -13 14 0 23 64 14 69 -9z m-1672 -1 c-3 -3 -12
-4 -19 -1 -8 3 -5 6 6 6 11 1 17 -2 13 -5z m330 -29 c-9 -32 -14 -35 -49 -35
-37 0 -38 1 -38 35 l0 35 49 0 49 0 -11 -35z m311 -73 l3 -43 -53 3 c-52 3
-53 4 -56 36 -3 26 1 34 20 42 13 5 37 8 53 7 28 -2 30 -5 33 -45z"/>
<path d="M6191 9608 c1 -7 5 -24 9 -38 7 -22 8 -21 9 13 1 20 -3 37 -9 37 -5
0 -10 -6 -9 -12z"/>
<path d="M6122 7140 c0 -14 2 -19 5 -12 2 6 2 18 0 25 -3 6 -5 1 -5 -13z"/>
<path d="M5650 4729 c-25 -4 -67 -8 -95 -8 -27 -1 -85 -6 -127 -13 -76 -11
-77 -12 -80 -42 l-3 -31 -57 3 -58 4 0 -41 0 -41 -80 0 -80 0 0 -35 c0 -35 -1
-35 -43 -35 -31 0 -45 -5 -55 -20 -9 -15 -23 -20 -57 -20 -43 0 -45 -1 -45
-29 0 -51 -9 -61 -54 -62 -22 0 -70 -6 -106 -13 -60 -11 -65 -14 -70 -42 -5
-27 -9 -29 -50 -30 -38 0 -45 -4 -48 -22 -4 -26 -38 -37 -88 -29 l-34 6 0 -44
0 -44 -50 2 c-42 2 -51 -1 -62 -21 -10 -19 -19 -23 -53 -20 -37 2 -40 1 -43
-25 -3 -26 -6 -27 -58 -27 l-54 0 0 -41 0 -40 -52 2 c-35 2 -53 -1 -56 -10 -2
-7 -1 -45 3 -85 l6 -72 50 6 49 6 0 -37 c0 -57 6 -65 45 -61 20 2 41 -1 49 -7
10 -8 26 -9 57 -2 24 5 46 8 48 5 2 -2 5 -27 5 -54 1 -38 4 -49 14 -45 8 3 38
8 67 11 l53 7 -15 -47 c-9 -26 -14 -48 -12 -50 5 -4 177 12 207 19 21 5 22 2
22 -51 l0 -56 28 7 c15 5 38 9 52 9 22 1 25 -4 28 -36 l3 -38 -225 0 -224 0
-8 -32 c-5 -18 -9 -37 -9 -43 0 -6 84 -12 222 -15 l222 -5 17 43 c19 52 51 71
89 54 14 -6 25 -16 25 -20 0 -5 18 -4 41 2 50 13 61 0 53 -64 l-6 -45 90 3 90
4 -5 -26 c-6 -31 -19 -41 -36 -28 -8 7 -18 6 -30 -3 -11 -8 -14 -16 -8 -19 12
-8 139 -11 161 -5 12 3 16 -11 21 -71 3 -44 6 -58 7 -34 l2 41 53 11 c28 5 73
8 100 5 l47 -6 0 42 c0 35 3 41 25 47 14 3 36 3 49 0 19 -5 26 -1 31 14 3 11
13 20 20 20 10 0 12 -9 8 -35 -5 -31 -3 -35 16 -35 17 0 21 6 22 33 2 60 3 62
37 65 20 2 32 -1 32 -9 0 -7 3 -9 7 -6 3 4 12 2 19 -4 9 -7 14 0 19 31 l7 42
48 -7 49 -7 6 34 7 35 54 -5 54 -4 0 41 0 41 45 1 c94 3 90 1 93 39 l3 35 89
-3 90 -3 0 33 c0 55 10 61 81 55 35 -3 78 -8 95 -12 l32 -6 -6 47 -5 47 52 -5
51 -5 0 45 0 45 37 -6 c21 -4 43 -14 49 -22 11 -14 12 -14 18 1 3 8 6 27 6 40
0 13 6 24 13 25 6 0 32 1 57 2 44 2 45 2 48 40 3 37 13 44 46 31 12 -5 16 -21
17 -63 l1 -56 10 50 c5 27 16 58 25 67 14 15 18 16 36 3 40 -28 47 -20 47 51
0 63 -1 65 -22 58 -51 -17 -63 -11 -68 31 -5 43 -14 46 -71 31 -25 -7 -27 -5
-33 33 l-6 41 -55 0 -55 0 0 39 0 38 -50 -5 c-45 -4 -50 -3 -50 16 0 25 -24
32 -112 32 -38 0 -67 3 -67 8 1 4 1 22 0 41 l-1 34 -43 -5 c-42 -5 -44 -4 -53
26 -9 30 -10 31 -61 28 l-53 -4 0 42 0 43 -44 -5 c-39 -5 -45 -3 -55 18 -9 20
-18 24 -51 24 -23 0 -50 -5 -61 -10 -17 -9 -19 -7 -19 17 0 63 -8 73 -60 73
-47 0 -49 1 -60 35 l-12 35 -48 -6 -49 -6 -3 43 c-3 48 -6 49 -68 38z m-23
-171 c38 -42 37 -63 -3 -107 -20 -23 -40 -41 -45 -41 -19 0 -21 31 -5 64 33
70 13 84 -54 40 -49 -33 -70 -26 -70 20 0 40 7 43 96 45 51 1 64 -3 81 -21z
m-222 -111 c0 -26 6 -41 18 -48 9 -6 17 -13 17 -18 0 -7 -72 -51 -84 -51 -10
0 -6 24 9 54 20 39 19 43 -12 49 -22 4 -35 -2 -63 -29 -43 -41 -60 -43 -60 -6
0 38 13 54 44 55 18 2 26 8 26 20 0 15 7 18 53 15 l52 -3 0 -38z m307 6 c10
-9 18 -26 18 -39 0 -18 -8 -25 -37 -33 -21 -6 -51 -10 -68 -9 l-30 1 28 4 c23
4 27 9 27 37 0 52 28 70 62 39z m-569 -91 c9 -8 17 -25 17 -36 0 -17 12 -25
60 -40 59 -19 60 -20 60 -56 0 -25 -7 -43 -24 -59 -45 -42 -136 -36 -136 9 0
18 7 20 55 20 61 0 68 9 29 39 -29 23 -65 20 -96 -7 -16 -14 -20 -13 -36 1
-10 9 -33 20 -51 23 -31 7 -51 33 -51 68 0 15 129 65 145 58 6 -3 18 -12 28
-20z m366 9 c7 -5 14 -26 15 -47 l1 -38 -60 -17 c-33 -10 -77 -18 -97 -18 -31
-1 -38 3 -38 18 0 26 14 33 69 35 45 1 46 2 55 39 10 37 26 46 55 28z m471
-21 c0 -13 12 -26 35 -37 19 -9 35 -23 35 -31 0 -21 -56 -73 -73 -67 -10 5
-13 -1 -9 -23 3 -25 0 -30 -21 -36 -14 -3 -32 -8 -40 -12 -10 -3 -18 5 -25 26
-15 42 -6 58 35 66 30 6 34 10 31 33 -3 23 -8 26 -46 29 -37 3 -47 -1 -72 -28
-24 -25 -35 -31 -55 -26 -29 7 -33 32 -7 40 14 5 17 14 14 35 -4 29 -3 29 60
39 110 17 138 15 138 -8z m135 -123 c31 -47 24 -68 -35 -109 -50 -35 -60 -39
-109 -36 -62 3 -71 14 -40 47 19 20 28 22 65 16 58 -8 66 -2 48 41 -12 28 -12
39 -3 50 18 22 57 17 74 -9z m-1222 -22 c47 -20 68 -72 37 -95 -14 -11 -22
-32 -27 -68 -3 -28 -8 -52 -10 -52 -28 0 -103 94 -87 110 5 4 23 10 39 12 26
3 30 7 27 28 -5 37 -18 45 -49 34 -20 -7 -28 -16 -27 -32 1 -24 -33 -39 -62
-28 -26 10 -15 78 16 93 34 17 100 16 143 -2z m793 -6 c8 -6 14 -29 14 -50 0
-37 2 -39 24 -33 33 8 84 -21 92 -51 12 -48 -3 -72 -71 -110 l-65 -36 -36 17
c-20 9 -39 27 -44 38 -4 12 -15 28 -24 35 -20 17 -21 51 -1 51 19 0 65 69 65
97 0 16 -6 23 -20 23 -11 0 -20 -7 -20 -16 0 -8 -4 -13 -8 -10 -5 3 -31 -3
-58 -13 -34 -13 -43 -20 -29 -23 16 -3 12 -7 -18 -21 -41 -20 -67 -17 -67 8 0
10 10 15 32 15 25 0 29 3 20 12 -15 15 -16 45 -2 53 6 3 38 13 73 20 67 15
120 13 143 -6z m-1028 -84 c13 -28 16 -55 6 -55 -3 0 -14 5 -26 11 -42 22 -96
-17 -66 -48 11 -10 25 -7 77 17 46 22 67 27 76 20 14 -11 60 -128 54 -135 -6
-5 -48 -8 -91 -7 -30 2 -38 6 -38 21 0 14 10 21 35 25 22 5 35 13 35 23 0 11
-6 14 -22 9 -63 -18 -106 -18 -139 -1 -42 22 -49 32 -49 72 0 31 3 33 63 52
78 25 72 25 85 -4z m1712 -20 c0 -22 3 -24 29 -19 23 5 32 2 40 -14 19 -36 14
-78 -13 -90 -16 -7 -27 -24 -35 -57 -11 -45 -12 -46 -48 -43 -50 4 -64 29 -37
65 12 15 32 30 45 33 19 5 24 12 22 34 -1 16 -4 30 -7 33 -2 2 -29 5 -59 6
-55 2 -87 18 -87 43 0 9 13 14 38 15 20 0 46 4 57 9 38 16 55 12 55 -15z
m-1002 -46 c10 -6 23 -26 28 -43 7 -26 16 -32 49 -39 45 -10 73 -41 85 -93 7
-32 6 -34 -18 -34 -14 0 -45 -9 -69 -21 -37 -18 -47 -19 -80 -9 -48 16 -73 37
-73 63 0 15 5 18 23 13 12 -4 43 -9 70 -13 36 -4 47 -3 47 8 0 31 -13 37 -92
41 -44 3 -46 9 -17 37 32 30 18 53 -28 49 -30 -2 -38 -8 -43 -28 -5 -20 -13
-26 -43 -28 -35 -3 -37 -2 -37 27 0 33 20 57 65 78 33 15 103 11 133 -8z m871
-4 c42 -21 46 -42 10 -61 -17 -8 -40 -14 -52 -12 -28 4 -35 43 -11 69 21 23
18 23 53 4z m-1801 -42 c-3 -24 -9 -29 -45 -37 -43 -10 -50 -19 -34 -45 8 -12
16 -13 47 -3 27 8 41 8 51 0 19 -16 16 -38 -6 -38 -32 0 -44 -24 -22 -44 19
-17 22 -16 82 13 65 32 82 30 92 -9 4 -15 0 -20 -14 -20 -11 0 -42 -11 -69
-25 -63 -32 -85 -31 -120 3 -15 15 -46 43 -69 62 -43 37 -63 89 -44 119 8 13
106 48 141 50 9 1 12 -9 10 -26z m649 -75 c17 -18 33 -44 35 -58 2 -21 11 -27
50 -35 55 -12 63 -19 71 -62 6 -29 3 -34 -26 -49 -17 -9 -43 -25 -56 -35 -24
-20 -86 -25 -109 -10 -9 5 -11 17 -6 35 8 35 20 40 46 22 12 -9 35 -16 51 -16
26 0 28 3 25 31 -5 50 -26 56 -94 29 -32 -13 -63 -28 -68 -32 -18 -15 -36 -8
-36 15 0 34 -11 42 -55 42 -39 0 -40 1 -43 38 -3 31 0 37 16 37 10 0 24 11 30
25 8 16 26 29 59 39 68 21 75 20 110 -16z m1043 17 c0 -9 11 -20 25 -25 38
-14 35 -69 -6 -109 -36 -36 -62 -39 -83 -10 -21 30 -11 46 24 41 27 -4 30 -1
30 23 0 20 -4 26 -17 23 -10 -2 -26 5 -35 14 -10 10 -29 18 -43 18 -20 0 -27
-6 -32 -30 -4 -21 -13 -32 -30 -36 -33 -9 -45 6 -41 52 4 46 17 52 131 53 63
1 77 -2 77 -14z m367 9 c-3 -3 -12 -4 -19 -1 -8 3 -5 6 6 6 11 1 17 -2 13 -5z
m73 -48 c0 -42 -2 -44 -32 -49 -18 -3 -54 -13 -80 -23 -44 -17 -49 -17 -64 -2
-10 10 -14 23 -9 37 5 18 12 21 34 16 39 -8 79 10 87 40 5 19 12 25 35 25 28
0 29 -2 29 -44z m-730 -66 c46 -24 13 -61 -56 -63 -46 -2 -48 -1 -55 30 -3 18
-5 34 -3 35 8 9 98 7 114 -2z m444 -29 c10 -11 16 -31 14 -48 -3 -26 -7 -28
-48 -31 -25 -2 -49 -7 -54 -13 -18 -17 -32 -9 -49 26 l-16 34 35 7 c19 4 41
15 47 25 15 24 49 24 71 0z m-345 -32 c27 -36 57 -49 92 -39 24 7 27 5 38 -30
20 -68 19 -70 -60 -70 -77 0 -79 3 -54 64 7 16 5 18 -11 11 -46 -19 -69 -16
-104 14 -23 20 -29 30 -19 31 8 0 28 13 43 29 32 34 44 32 75 -10z m-1139 12
c19 -37 13 -43 -45 -39 l-54 3 6 -37 c5 -35 4 -38 -19 -38 -72 0 -75 63 -5
104 51 31 102 34 117 7z m894 -40 c4 -5 2 -20 -3 -34 -9 -24 -9 -24 35 -15 25
6 48 7 51 4 3 -3 0 -19 -6 -37 -6 -18 -9 -34 -7 -36 2 -3 22 1 44 8 22 6 47 9
54 7 18 -8 42 -99 28 -108 -19 -12 -100 6 -115 26 -8 10 -15 22 -15 25 0 3
-11 4 -24 2 -18 -4 -26 0 -30 15 -9 27 -41 54 -79 67 -41 13 -64 55 -40 73 19
14 99 16 107 3z m-819 -41 c14 -28 14 -30 -1 -30 -9 0 -39 -20 -65 -45 -26
-25 -52 -45 -57 -45 -8 0 -32 65 -32 89 0 6 15 11 33 11 23 0 41 8 57 25 31
33 46 32 65 -5z m651 -59 c6 -39 6 -39 45 -34 l39 6 0 -38 0 -38 43 6 c42 6
42 6 55 -33 20 -65 18 -68 -35 -62 -39 4 -57 13 -95 48 -26 24 -52 44 -57 44
-19 0 -118 68 -134 93 -23 35 -5 47 70 47 l63 0 6 -39z m-536 0 c17 -33 12
-51 -15 -51 -17 0 -29 -8 -36 -24 -13 -29 -30 -34 -82 -28 -42 5 -56 24 -36
48 10 13 24 15 61 11 47 -6 48 -6 48 22 0 15 3 31 7 34 13 14 43 7 53 -12z
m337 -63 c83 -45 123 -78 123 -99 0 -18 5 -21 39 -17 38 3 40 2 50 -33 18 -60
16 -62 -39 -57 -43 4 -56 11 -85 43 -31 33 -35 35 -35 16 0 -11 -4 -21 -10
-21 -5 0 -10 9 -10 20 0 14 -16 30 -47 49 -55 33 -93 66 -93 80 0 16 30 41 49
41 9 0 35 -10 58 -22z m-161 -92 c5 -20 13 -26 42 -28 31 -3 37 -7 44 -34 7
-28 13 -32 57 -38 46 -6 50 -9 65 -46 9 -22 16 -43 16 -45 0 -3 -31 -5 -70 -5
-67 0 -70 1 -70 24 0 48 -9 56 -62 56 -49 0 -50 1 -45 26 4 25 3 26 -39 22
-47 -3 -54 3 -54 52 0 24 5 29 28 33 69 10 81 8 88 -17z"/>
<path d="M5052 4318 c-17 -17 -15 -32 6 -51 24 -22 55 -21 75 1 23 25 21 37
-8 50 -33 15 -58 15 -73 0z"/>
<path d="M5676 4070 c-59 -38 -53 -62 16 -73 45 -7 51 0 37 44 -16 48 -21 51
-53 29z"/>
<path d="M5020 3883 c-85 -9 -95 -18 -60 -53 28 -28 62 -25 93 8 29 30 35 53
15 50 -7 0 -29 -3 -48 -5z"/>
<path d="M6055 4530 c-3 -5 -1 -10 4 -10 6 0 11 5 11 10 0 6 -2 10 -4 10 -3 0
-8 -4 -11 -10z"/>
<path d="M6520 4499 c-27 -15 -30 -19 -14 -19 11 0 29 9 39 20 21 23 21 23
-25 -1z"/>
<path d="M7322 3922 c-38 -3 -45 -7 -59 -38 -9 -19 -23 -34 -30 -34 -25 0 -15
-64 15 -98 35 -38 59 -41 68 -7 8 31 18 31 46 3 16 -16 34 -22 75 -22 53 -1
53 -1 59 34 4 19 15 45 26 56 17 19 17 22 4 27 -9 4 -16 17 -16 30 0 14 -6 29
-12 35 -14 11 -110 19 -176 14z m19 -42 c5 0 9 -7 9 -15 0 -9 -9 -15 -25 -15
-19 0 -25 5 -25 21 0 15 4 19 16 15 9 -3 20 -6 25 -6z m27 -72 c3 -15 -4 -18
-35 -18 -22 0 -44 -5 -51 -12 -9 -9 -12 -5 -12 19 0 30 1 30 47 29 37 -1 48
-5 51 -18z m90 -10 c-2 -18 -11 -24 -35 -26 -30 -3 -33 -1 -33 22 0 23 4 26
36 26 31 0 35 -3 32 -22z"/>
<path d="M4211 3624 c0 -11 3 -14 6 -6 3 7 2 16 -1 19 -3 4 -6 -2 -5 -13z"/>
<path d="M4225 3283 l-40 -4 2 -240 c1 -131 4 -242 6 -247 3 -4 8 -26 12 -49
6 -41 17 -53 29 -34 4 5 2 11 -3 13 -4 1 -11 20 -15 41 l-7 37 36 0 c35 0 35
0 35 -44 l0 -44 137 -7 c75 -4 171 -5 214 -1 45 4 88 2 104 -4 l27 -10 -4 55
-3 55 40 0 41 0 -4 -42 c-2 -32 -1 -39 7 -28 7 9 11 112 11 278 l0 262 -39 0
c-22 0 -45 2 -53 5 -10 4 -12 -14 -9 -91 3 -88 1 -96 -14 -90 -9 3 -25 6 -34
6 -14 0 -17 6 -13 26 4 20 1 25 -9 22 -9 -3 -16 -25 -19 -59 l-5 -54 -137 -3
-138 -3 0 52 c0 48 -1 51 -22 45 -13 -3 -33 -6 -46 -6 -13 0 -21 -4 -17 -9 3
-5 1 -12 -5 -16 -6 -4 -10 29 -10 94 0 56 -3 100 -7 99 -5 -1 -26 -3 -48 -5z"/>
<path d="M5523 3180 c-3 -10 -17 -23 -31 -28 l-26 -8 31 -11 c31 -11 31 -11
35 28 4 42 -1 52 -9 19z"/>
<path d="M5128 3123 c7 -3 16 -2 19 1 4 3 -2 6 -13 5 -11 0 -14 -3 -6 -6z"/>
<path d="M5321 3113 c0 -4 4 -17 9 -28 8 -19 9 -19 9 2 1 12 -3 25 -9 28 -5 3
-10 3 -9 -2z"/>
<path d="M4796 2705 c7 -17 44 -21 44 -4 0 5 -4 7 -10 4 -5 -3 -10 -1 -10 4 0
6 -7 11 -15 11 -9 0 -12 -6 -9 -15z"/>
<path d="M4750 2648 c0 -10 -10 -18 -27 -21 -27 -4 -26 -4 4 -6 36 -1 46 8 32
29 -7 13 -9 12 -9 -2z"/>
<path d="M3160 2574 l0 -39 -42 3 -43 3 -2 -119 -2 -120 39 5 c33 5 40 2 55
-20 20 -32 32 -36 130 -53 108 -18 135 -18 135 2 0 14 8 16 44 12 l45 -5 3 76
c4 86 -2 101 -43 101 -23 0 -28 5 -31 28 -2 21 -9 28 -30 30 -16 2 -28 -1 -28
-7 0 -6 -3 -11 -7 -11 -5 0 -6 23 -4 51 3 44 1 50 -15 47 -10 -1 -24 -18 -31
-36 -13 -32 -13 -34 27 -73 22 -22 40 -43 40 -47 0 -23 -37 -92 -50 -92 -24 0
-43 17 -37 33 3 9 -8 22 -34 36 l-39 22 0 -25 c0 -14 -4 -26 -9 -26 -17 0 -22
37 -10 64 10 22 10 29 -3 43 -21 21 -41 7 -34 -23 5 -18 2 -24 -10 -24 -13 0
-15 6 -10 31 3 17 6 40 6 50 0 11 10 23 25 29 45 17 107 62 99 70 -5 5 -37 12
-71 16 l-63 7 0 -39z"/>
<path d="M6638 2473 c7 -3 16 -2 19 1 4 3 -2 6 -13 5 -11 0 -14 -3 -6 -6z"/>
<path d="M7038 2335 c2 -19 6 -35 8 -35 2 0 4 16 4 35 0 19 -4 35 -8 35 -4 0
-6 -16 -4 -35z"/>
<path d="M6783 2230 c0 -30 2 -43 4 -27 2 15 2 39 0 55 -2 15 -4 2 -4 -28z"/>
<path d="M6792 2070 c0 -19 2 -27 5 -17 2 9 2 25 0 35 -3 9 -5 1 -5 -18z"/>
<path d="M4580 2441 c0 -21 6 -25 43 -29 33 -3 38 0 35 15 -2 13 -14 19 -41
21 -21 2 -37 -1 -37 -7z"/>
<path d="M2390 2350 c20 -13 33 -13 25 0 -3 6 -14 10 -23 10 -15 0 -15 -2 -2
-10z"/>
<path d="M2506 2213 c-6 -14 -5 -15 5 -6 7 7 10 15 7 18 -3 3 -9 -2 -12 -12z"/>
<path d="M4880 2050 c0 -5 18 -10 40 -10 22 0 40 5 40 10 0 6 -18 10 -40 10
-22 0 -40 -4 -40 -10z"/>
<path d="M3650 1706 c0 -2 9 -6 20 -9 11 -3 18 -1 14 4 -5 9 -34 13 -34 5z"/>
<path d="M4752 1380 c0 -14 2 -19 5 -12 2 6 2 18 0 25 -3 6 -5 1 -5 -13z"/>
<path d="M4752 950 c0 -14 2 -19 5 -12 2 6 2 18 0 25 -3 6 -5 1 -5 -13z"/>
<path d="M4773 925 c0 -22 2 -30 4 -17 2 12 2 30 0 40 -3 9 -5 -1 -4 -23z"/>
<path d="M4325 960 c-3 -5 1 -10 9 -10 9 0 16 5 16 10 0 6 -4 10 -9 10 -6 0
-13 -4 -16 -10z"/>
<path d="M9130 8920 c0 -42 2 -44 58 -54 l32 -5 0 49 0 50 -45 0 -45 0 0 -40z"/>
<path d="M2790 8824 c0 -24 2 -26 39 -21 37 4 40 2 44 -22 2 -14 5 -5 6 22 l1
47 -45 0 c-42 0 -45 -2 -45 -26z"/>
<path d="M4243 8843 c-28 -4 -31 -8 -35 -44 l-4 -39 48 0 48 0 0 45 c0 30 -4
44 -12 43 -7 0 -27 -3 -45 -5z"/>
<path d="M3467 8833 c-4 -3 -7 -21 -7 -40 0 -33 0 -33 49 -33 l49 0 4 40 4 40
-47 0 c-25 0 -49 -3 -52 -7z"/>
<path d="M7170 8794 l0 -45 43 3 c42 3 42 3 45 46 l3 42 -45 0 -46 0 0 -46z"/>
<path d="M7800 8800 c0 -40 0 -40 38 -40 36 0 37 1 40 40 l2 40 -40 0 -40 0 0
-40z"/>
<path d="M2803 8763 c9 -2 23 -2 30 0 6 3 -1 5 -18 5 -16 0 -22 -2 -12 -5z"/>
<path d="M5059 8683 c-1 -97 -24 -357 -33 -371 -5 -8 -19 -12 -32 -9 -34 6
-36 -8 -27 -231 4 -107 6 -196 4 -198 -2 -2 -33 -4 -69 -4 l-65 0 5 79 5 79
-31 -9 c-48 -14 -52 -12 -67 33 -7 22 -21 48 -30 57 -16 15 -23 39 -20 68 0 6
9 13 19 15 17 4 -38 9 -128 12 l-45 1 4 -148 c4 -201 8 -193 -76 -187 l-68 5
0 80 c0 44 3 144 8 223 l7 142 -55 0 -54 0 -3 108 -3 107 -35 2 c-19 1 -45 2
-57 2 -21 1 -23 6 -23 51 l0 50 -50 0 -50 0 0 -406 c0 -359 -2 -405 -15 -394
-8 7 -12 17 -9 22 4 6 -15 9 -52 7 l-58 -4 3 128 3 127 -30 0 c-17 0 -33 -6
-36 -12 -5 -10 -7 -10 -12 0 -3 6 -12 12 -20 12 -8 0 -14 5 -14 10 0 6 9 10
19 10 17 0 37 27 27 37 -2 2 -29 7 -61 10 l-56 6 1 -79 c2 -134 6 -124 -45
-124 l-45 0 0 -62 0 -63 -65 3 -65 4 0 101 c1 56 5 188 10 292 5 105 7 232 3
283 l-6 92 -53 0 -54 0 0 -160 0 -160 -45 0 -45 0 0 -109 0 -110 -69 -7 -69
-6 -7 -101 c-4 -55 -9 -105 -11 -111 -6 -15 -163 -18 -192 -4 -20 10 -23 19
-21 58 1 25 1 168 0 318 l-1 272 -66 0 -66 0 4 59 c4 59 4 59 -25 65 -79 16
-77 19 -78 -106 -3 -234 4 -553 11 -558 4 -3 10 -16 11 -30 3 -17 11 -26 27
-28 29 -4 31 -42 2 -42 -13 0 -20 -7 -20 -20 0 -16 -7 -20 -32 -20 -26 0 -30
3 -18 11 11 8 7 9 -19 5 -18 -3 -51 -1 -72 4 l-39 11 0 103 c0 57 -3 131 -6
165 l-7 61 -62 0 -62 0 -5 -137 c-3 -76 -10 -150 -16 -165 -11 -27 -14 -28
-92 -28 -83 0 -84 1 -83 47 0 6 -6 9 -13 6 -8 -3 -14 -11 -14 -19 0 -8 -5 -14
-10 -14 -7 0 -9 32 -5 93 8 132 15 177 26 177 5 0 9 10 9 23 0 18 2 19 11 7 7
-10 8 39 3 165 -3 99 -10 184 -14 188 -4 5 -20 7 -36 4 -29 -4 -28 -4 4 -6 29
-1 32 -4 32 -31 0 -28 -2 -30 -40 -30 -33 0 -40 -3 -40 -20 0 -15 -7 -20 -25
-20 -26 0 -27 -1 -29 -65 l-1 -40 -52 -3 -52 -3 5 -147 c3 -81 1 -185 -3 -231
l-8 -83 -64 -1 -63 -1 1 118 2 117 -65 -2 c-37 -1 -66 -5 -66 -9 0 -4 -7 -7
-15 -7 -8 0 -15 4 -15 9 0 4 -4 8 -10 8 -6 0 -10 -46 -10 -117 l0 -118 -97 3
c-54 2 -99 5 -100 5 0 1 -4 176 -8 390 l-8 387 -78 0 -79 0 -2 -200 c-5 -406
-6 -385 20 -388 14 -2 22 -10 22 -23 0 -12 7 -19 20 -19 11 0 20 -4 20 -10 0
-21 39 -10 43 13 l4 22 2 -22 c0 -13 5 -23 10 -23 5 0 12 10 14 23 2 12 5 -20
6 -70 1 -74 -2 -93 -13 -93 -8 0 -17 -6 -19 -12 -3 -8 -6 -6 -6 5 -1 9 -6 17
-12 17 -7 0 -9 -9 -5 -22 4 -13 9 -47 13 -75 5 -43 9 -53 24 -53 12 0 19 7 19
20 0 18 7 20 69 20 87 0 133 -9 124 -24 -11 -16 -12 -67 -2 -60 16 10 21 -47
15 -154 l-7 -107 94 -3 95 -3 7 103 c3 57 5 114 3 128 -3 24 -1 25 59 28 l62
3 6 -33 c3 -18 5 -217 3 -441 -3 -404 -3 -408 17 -403 11 3 38 6 60 6 l40 0 0
143 0 142 62 -1 62 -1 3 61 c2 34 -1 148 -5 255 -7 149 -6 196 4 201 6 5 10
19 7 33 -4 21 0 27 20 32 31 8 115 -5 124 -18 3 -6 4 -34 1 -62 -4 -34 -1 -55
6 -59 6 -4 11 -24 11 -44 0 -80 4 -84 84 -80 l71 3 5 130 5 130 73 3 72 3 2
-248 c2 -136 1 -312 -1 -390 -2 -78 0 -162 3 -188 l7 -45 56 0 55 0 -6 73 c-3
39 -8 109 -12 154 l-6 81 44 -4 c23 -3 51 -7 61 -9 18 -3 18 -12 21 345 l1 85
48 -3 47 -3 0 75 0 76 70 0 70 0 0 -127 0 -128 67 0 68 0 3 -67 3 -68 39 0
c28 0 40 -4 41 -15 1 -8 3 -19 4 -25 1 -5 3 -66 4 -135 l1 -125 56 0 57 0 -8
395 -7 395 66 0 65 0 3 -57 3 -57 35 -3 c89 -9 85 -7 88 -47 2 -27 -2 -41 -17
-54 -13 -11 -22 -35 -26 -73 l-7 -56 96 -1 96 0 1 211 c1 117 4 201 6 188 4
-22 8 -23 57 -17 l53 6 6 -128 c4 -70 7 -189 7 -266 0 -122 2 -137 16 -132 9
3 33 9 54 12 l38 6 6 -68 c13 -153 7 -139 61 -142 l48 -3 -5 108 -5 108 59 -3
60 -4 -6 39 c-3 21 -6 106 -8 188 -2 115 0 150 10 149 6 -1 37 -2 67 -2 l55
-2 0 -112 c0 -62 4 -119 9 -127 7 -11 28 -13 102 -8 51 4 93 8 94 10 2 1 13
177 15 222 0 6 41 10 103 10 l102 0 -4 -182 -4 -182 64 -3 c38 -2 62 -7 59
-13 -3 -5 -8 -9 -12 -8 -5 2 -8 -18 -8 -45 0 -26 -3 -116 -6 -201 l-5 -154 32
7 c17 3 42 6 56 6 l24 0 -4 98 c-3 53 -9 117 -15 142 l-9 45 -2 -37 c0 -20 -6
-40 -13 -44 -7 -4 -8 -3 -4 4 5 8 0 12 -13 12 -17 0 -21 6 -21 30 0 32 21 49
58 45 12 -1 22 3 22 8 0 6 20 7 48 4 l49 -6 6 157 c4 86 7 197 7 246 l0 89 61
-7 c34 -3 82 -6 105 -6 l44 0 0 -130 0 -130 55 0 55 0 0 114 c0 79 4 117 13
124 7 6 31 7 62 2 28 -4 51 -7 51 -6 1 0 -1 81 -4 179 l-5 177 -52 0 -53 0 -7
41 c-4 22 -4 71 0 109 8 77 7 78 -72 71 l-43 -3 0 -174 0 -175 -102 3 -103 3
-3 278 -2 277 -55 0 -55 0 0 55 0 55 -44 0 -44 0 5 48 c6 56 13 65 53 65 16 0
30 4 30 9 0 4 -5 8 -11 8 -5 0 -8 4 -5 8 3 5 7 20 10 35 5 26 3 27 -45 27
l-49 0 -1 -57z m-2154 -182 c-3 -5 -1 -12 5 -16 6 -4 5 -13 -3 -25 -18 -29
-27 -24 -27 15 0 25 4 35 16 35 8 0 13 -4 9 -9z m75 -601 c0 -11 -4 -20 -10
-20 -5 0 -10 9 -10 20 0 11 5 20 10 20 6 0 10 -9 10 -20z m566 -226 c-4 -20
-10 -34 -12 -31 -3 3 -2 21 2 41 3 21 9 35 11 32 3 -3 2 -21 -1 -42z m1593
-641 c0 -25 -1 -25 -8 -8 -5 11 -7 23 -4 28 8 14 13 7 12 -20z"/>
<path d="M8488 8647 c-52 -9 -58 -13 -74 -48 -19 -44 -33 -50 -35 -16 -1 13
-4 9 -8 -13 -4 -24 -12 -36 -26 -38 -51 -10 -50 -9 -70 -367 -9 -154 -19 -283
-23 -286 -12 -11 -86 -20 -98 -12 -6 5 -15 35 -20 68 -9 60 -9 60 -45 63 -30
2 -38 8 -41 27 -4 19 0 25 16 27 32 5 21 22 -16 28 l-33 5 -3 113 -3 112 -50
0 -50 0 3 165 3 165 -56 0 c-52 0 -57 -2 -61 -25 -6 -31 0 -690 7 -729 l5 -29
-46 7 c-26 3 -55 6 -65 6 -16 0 -19 8 -19 56 l0 55 -47 -3 -48 -3 3 98 3 97
-40 0 c-22 0 -46 3 -55 6 -14 5 -16 -12 -16 -150 l0 -156 -65 0 -65 0 0 179
c0 98 -3 199 -6 225 -6 41 -10 47 -37 54 l-31 8 2 102 c1 63 -3 102 -9 102 -6
0 -7 14 -3 36 8 42 -2 52 -48 46 l-33 -4 -2 -85 c-1 -47 -4 -91 -7 -99 -4 -9
-21 -14 -51 -14 l-45 0 0 -55 0 -55 -39 0 -40 0 -6 -55 c-4 -30 -5 -61 -2 -69
4 -9 7 -84 8 -168 l1 -153 -64 3 c-34 2 -66 7 -69 10 -5 6 4 190 14 300 l5 42
-54 0 -54 0 0 -51 0 -50 -52 2 -53 3 0 -352 c0 -289 2 -351 13 -347 8 3 52 5
98 5 l84 0 0 119 c0 134 -6 124 84 136 l49 7 -5 -197 -4 -197 52 6 52 6 -5
-57 -6 -56 57 7 56 6 0 -60 0 -60 40 0 c45 0 42 -9 44 120 1 73 2 75 27 78
l27 3 7 190 7 189 65 0 65 0 -4 -125 -3 -125 93 0 c65 0 94 4 97 13 4 15 17
201 19 275 l1 52 63 0 63 0 -7 -385 -7 -385 49 2 49 1 -42 4 c-43 4 -43 4 -43
44 l0 39 44 0 43 0 7 61 c3 34 6 82 6 105 0 31 6 50 21 65 17 17 19 28 14 59
l-6 38 90 7 91 8 0 31 c0 17 -7 42 -16 54 -14 21 -14 22 5 22 18 0 20 8 23 63
l3 62 58 3 c54 3 58 2 68 -25 7 -16 14 -115 17 -235 3 -144 8 -208 16 -209 51
-3 73 -20 84 -63 7 -28 13 -31 50 -34 l41 -3 3 -52 3 -52 40 -3 c22 -2 43 -8
46 -14 12 -19 22 340 14 523 l-7 179 58 0 c33 0 65 -4 73 -9 11 -7 16 -40 19
-130 l4 -121 48 0 c25 0 50 3 53 7 4 3 -3 21 -14 40 l-21 33 51 0 51 0 0 109
c0 128 7 140 67 119 21 -7 41 -17 46 -23 4 -6 10 -5 16 3 19 30 25 -33 29
-326 4 -262 6 -303 19 -298 8 3 17 6 19 6 2 0 4 18 4 40 0 29 4 40 15 40 8 0
15 7 15 15 0 9 9 15 24 15 15 0 33 11 45 26 12 15 21 21 21 13 0 -11 2 -11 10
1 5 8 11 11 12 5 7 -39 11 127 5 195 -4 47 -5 111 -2 142 10 97 17 183 15 193
0 6 -3 32 -5 60 -2 27 -9 51 -14 53 -6 2 -11 12 -11 23 0 12 -7 19 -20 19 -13
0 -20 7 -20 20 0 13 7 20 20 20 11 0 20 5 20 11 0 6 6 9 14 6 12 -5 14 21 13
168 -2 157 -4 176 -20 188 -25 18 -36 80 -37 210 l0 107 -59 0 c-33 0 -66 3
-74 6 -14 5 -15 -42 -14 -388 l2 -393 -71 -3 -72 -3 -6 83 c-4 46 -7 97 -8
113 -2 26 -6 30 -31 32 -16 1 -31 4 -33 5 -2 2 1 21 6 43 5 22 7 42 4 44 -2 3
-30 7 -62 9 l-57 4 0 -113 c0 -63 -4 -135 -8 -161 l-8 -48 -58 0 -58 0 -7 61
c-3 34 -6 158 -6 275 l0 214 -53 0 c-49 0 -53 2 -52 24 0 13 3 28 8 32 4 4 7
20 7 35 0 20 6 28 24 31 15 3 31 -2 40 -11 15 -14 16 -9 16 52 0 37 -3 66 -7
66 -5 -1 -33 -6 -65 -12z"/>
<path d="M8371 8634 c0 -11 3 -14 6 -6 3 7 2 16 -1 19 -3 4 -6 -2 -5 -13z"/>
<path d="M1795 8180 c4 -6 11 -8 16 -5 14 9 11 15 -7 15 -8 0 -12 -5 -9 -10z"/>
<path d="M9393 8178 c5 -15 76 -13 91 2 7 7 -7 10 -43 10 -38 0 -51 -4 -48
-12z"/>
<path d="M9479 8095 c-2 -9 -8 -58 -15 -137 -4 -43 -11 -78 -15 -78 -5 0 -9
-8 -9 -18 0 -11 -9 -27 -19 -36 -18 -17 -19 -17 -23 1 -2 10 -7 -11 -11 -47
-4 -36 -4 -66 1 -68 4 -1 6 -34 4 -73 -3 -64 -1 -74 20 -98 40 -44 54 -79 40
-101 -7 -11 -12 -22 -12 -25 0 -3 27 -5 60 -5 l60 0 0 337 0 336 -22 -19 c-21
-19 -21 -19 -16 4 4 12 2 20 -2 17 -5 -3 -11 -1 -15 5 -6 10 -24 14 -26 5z"/>
<path d="M9401 8067 c1 -12 5 -33 9 -47 8 -24 8 -24 9 -2 1 12 6 22 11 22 19
0 10 38 -10 43 -16 4 -20 0 -19 -16z"/>
<path d="M1373 7633 c-10 -4 -13 -76 -13 -316 0 -172 3 -349 7 -394 l6 -83 53
0 c52 0 54 1 55 28 5 81 7 101 12 117 4 10 3 14 -4 10 -6 -4 -7 2 -3 19 4 17
1 31 -10 41 -18 19 -21 35 -6 35 6 0 10 7 10 16 0 8 4 13 9 10 10 -7 20 45 28
149 6 84 -6 283 -17 266 -9 -15 -20 9 -20 44 0 19 -7 24 -40 30 -25 4 -40 12
-40 21 0 14 -6 16 -27 7z m103 -681 c-5 -8 -66 -4 -66 4 0 2 16 4 36 4 19 0
33 -4 30 -8z"/>
<path d="M4192 7083 c-3 -18 -69 -28 -87 -13 -13 11 -15 6 -15 -38 l0 -49 53
-6 c28 -2 53 -4 55 -2 2 1 1 29 -1 61 -2 33 -4 54 -5 47z"/>
<path d="M9051 6975 c-1 -27 -4 -66 -7 -85 l-6 -35 51 3 51 4 0 54 c0 41 -4
54 -15 55 -8 1 -19 3 -25 4 -5 1 -16 3 -24 4 -8 0 -17 11 -19 24 -2 12 -5 0
-6 -28z"/>
<path d="M7207 6983 c-4 -3 -7 -24 -7 -45 0 -37 1 -38 35 -38 35 0 35 0 35 45
0 43 -1 45 -28 45 -16 0 -32 -3 -35 -7z"/>
<path d="M9173 6983 c9 -2 25 -2 35 0 9 3 1 5 -18 5 -19 0 -27 -2 -17 -5z"/>
<path d="M4263 6943 c-13 -2 -23 -9 -23 -15 0 -6 -3 -8 -7 -5 -17 17 -33 -19
-33 -75 l0 -59 48 3 47 3 3 78 c2 42 -1 76 -5 76 -4 -1 -18 -4 -30 -6z"/>
<path d="M8397 6923 c-4 -3 -7 -33 -7 -65 l0 -58 45 0 45 0 0 58 c0 48 -3 58
-17 58 -10 0 -27 3 -39 7 -11 4 -23 4 -27 0z"/>
<path d="M7780 6844 l0 -45 48 3 c44 3 47 5 50 33 4 36 -18 55 -65 55 -33 0
-33 -1 -33 -46z"/>
<path d="M3473 6845 c0 -22 2 -30 4 -17 2 12 2 30 0 40 -3 9 -5 -1 -4 -23z"/>
<path d="M9202 6728 c-2 -19 -41 -50 -54 -42 -4 3 -8 -8 -8 -25 0 -29 2 -30
33 -24 17 3 33 7 35 8 2 2 1 25 -1 51 -2 27 -4 41 -5 32z"/>
<path d="M2140 6628 c0 -42 3 -49 16 -44 9 3 29 6 45 6 28 0 29 2 26 35 -4 42
-3 41 -49 48 l-38 6 0 -51z"/>
<path d="M2818 6673 c-25 -4 -28 -8 -28 -44 l0 -39 50 0 50 0 0 45 c0 49 0 49
-72 38z"/>
<path d="M8408 6673 c-14 -3 -18 -15 -18 -49 l0 -44 46 0 45 0 -3 48 c-3 42
-6 47 -28 49 -14 0 -33 -1 -42 -4z"/>
<path d="M2117 6483 c-4 -3 -7 -21 -7 -40 0 -33 0 -33 50 -33 l50 0 0 40 0 40
-43 0 c-24 0 -47 -3 -50 -7z"/>
<path d="M8123 2233 c16 -16 18 -16 34 0 16 16 15 17 -17 17 -32 0 -33 -1 -17
-17z"/>
<path d="M8173 2163 c20 -2 54 -2 75 0 20 2 3 4 -38 4 -41 0 -58 -2 -37 -4z"/>
<path d="M2488 1363 c12 -2 32 -2 45 0 12 2 2 4 -23 4 -25 0 -35 -2 -22 -4z"/>
<path d="M1813 1185 c0 -27 2 -38 4 -22 2 15 2 37 0 50 -2 12 -4 0 -4 -28z"/>
<path d="M1932 1107 c-2 -56 -1 -58 21 -51 49 15 54 22 20 34 -25 9 -33 18
-36 43 -2 19 -4 7 -5 -26z"/>
<path d="M2033 1010 c0 -25 2 -35 4 -22 2 12 2 32 0 45 -2 12 -4 2 -4 -23z"/>
</g>
</svg>
