<?xml version="1.0" standalone="no"?>
<!DOCTYPE svg PUBLIC "-//W3C//DTD SVG 20010904//EN"
 "http://www.w3.org/TR/2001/REC-SVG-20010904/DTD/svg10.dtd">
<svg version="1.0" xmlns="http://www.w3.org/2000/svg"
 width="1024.000000pt" height="1024.000000pt" viewBox="0 0 1024.000000 1024.000000"
 preserveAspectRatio="xMidYMid meet">

<g transform="translate(0.000000,1024.000000) scale(0.100000,-0.100000)"
fill="#000000" stroke="none">
<path d="M1715 9600 c-22 -5 -57 -9 -77 -9 l-38 -1 0 -80 0 -80 75 0 c60 0 75
3 75 15 0 12 16 15 86 15 54 0 83 -4 79 -10 -3 -5 -14 -10 -25 -10 -28 0 -114
-107 -136 -170 -10 -30 -23 -57 -28 -59 -33 -14 -46 -43 -46 -107 l0 -67 50 7
50 7 0 -54 0 -53 103 -12 c56 -6 157 -13 224 -15 119 -3 122 -3 132 20 6 13
11 46 11 73 l0 48 33 -8 c17 -4 53 -11 79 -14 l46 -5 0 113 0 114 -50 13 -51
14 -22 68 c-13 37 -31 74 -41 82 -17 13 -8 14 79 15 l97 0 0 75 0 75 -297 0
c-164 0 -314 2 -333 4 -19 3 -53 1 -75 -4z m445 -229 c0 -74 6 -82 54 -77 l26
3 0 -87 0 -87 -82 -7 c-100 -9 -130 -15 -122 -27 3 -5 0 -9 -5 -9 -6 0 -10 -6
-8 -12 1 -9 -13 -13 -48 -13 l-50 0 -9 43 c-6 23 -13 42 -18 42 -9 0 -11 84
-2 118 4 13 12 21 19 18 13 -5 25 53 25 123 l0 36 110 3 110 2 0 -69z"/>
<path d="M1446 9364 c4 -44 8 -81 10 -83 2 -2 35 -6 74 -9 l71 -5 -7 79 c-4
44 -7 80 -8 80 0 1 -34 5 -73 9 l-73 7 6 -78z"/>
<path d="M2605 9430 c-49 -3 -84 -7 -77 -8 7 -1 12 -17 12 -39 0 -21 3 -55 7
-76 l6 -39 63 4 64 3 -1 -70 c-1 -38 -4 -110 -8 -160 l-6 -89 -35 -8 c-19 -4
-48 -8 -65 -9 l-30 -2 0 -65 0 -65 -115 -24 c-100 -21 -150 -25 -382 -28 -224
-4 -268 -2 -268 9 0 9 -22 18 -67 25 -38 7 -76 14 -85 17 -16 5 -18 -5 -18
-108 1 -78 4 -108 10 -96 7 10 17 14 31 11 21 -6 21 -6 -3 -19 -28 -15 -38
-59 -38 -174 0 -76 -5 -73 100 -85 l56 -7 -1 141 c0 118 -2 141 -15 143 -8 1
127 5 300 8 173 3 317 4 320 2 2 -2 7 -53 11 -115 4 -62 10 -155 14 -207 4
-55 2 -101 -3 -109 -15 -21 -83 -30 -294 -37 -116 -4 -195 -11 -192 -16 4 -5
18 -7 32 -3 l25 6 -6 -70 c-3 -42 -2 -71 4 -71 5 0 9 -9 9 -20 0 -13 7 -20 20
-20 16 0 20 -7 20 -33 0 -28 4 -33 23 -33 18 1 22 -4 22 -31 0 -40 11 -30 34
33 24 62 67 94 128 94 l45 0 -7 -77 c-4 -43 -12 -88 -16 -101 -5 -13 -9 -39
-9 -59 0 -30 -2 -34 -15 -23 -11 10 -18 9 -31 -4 -8 -9 -20 -13 -26 -10 -7 4
-8 2 -4 -4 3 -6 -3 -16 -14 -22 -16 -9 -20 -21 -20 -68 l0 -57 107 6 c60 4
111 5 115 2 5 -2 8 -28 8 -58 0 -49 -2 -53 -27 -60 -39 -9 -83 -44 -83 -64 0
-21 -23 -44 -33 -34 -4 3 -7 -2 -7 -12 0 -10 -3 -15 -7 -12 -3 4 -12 -1 -20
-11 -9 -11 -12 -12 -7 -2 13 29 -55 -45 -74 -80 -11 -20 -28 -36 -40 -38 -13
-2 -20 -8 -16 -14 5 -8 1 -9 -10 -5 -10 4 -19 1 -22 -8 -4 -8 -10 -13 -14 -10
-5 3 -12 -4 -15 -16 -6 -17 -9 -19 -16 -8 -6 9 -9 -3 -9 -34 0 -30 4 -46 10
-42 6 3 10 16 10 29 0 23 47 76 68 76 26 0 34 -45 33 -181 l-2 -139 128 0 c71
0 142 4 160 9 25 7 33 6 37 -6 3 -8 6 -77 6 -152 l0 -138 -122 -6 c-66 -4
-173 -7 -237 -7 -126 0 -411 17 -419 24 -2 3 -7 34 -9 70 l-6 66 -32 0 c-18 0
-52 3 -76 6 l-44 6 0 1072 c0 825 3 1076 12 1091 11 18 12 18 13 2 0 -15 3
-16 23 -5 12 7 25 17 28 21 3 5 9 8 13 8 47 -6 7 22 -49 35 l-40 10 -6 119
c-4 66 -7 137 -8 158 l-1 37 -76 0 c-65 0 -75 -2 -70 -16 3 -9 6 -582 6 -1275
l0 -1259 70 0 c39 0 69 -3 68 -7 -3 -12 11 -119 18 -138 6 -13 20 -16 83 -14
l76 2 3 -82 c2 -72 5 -81 20 -77 9 3 184 2 387 -2 204 -4 372 -7 374 -5 2 1 6
34 9 72 l5 70 41 -27 c22 -14 55 -38 71 -54 l31 -28 -4 72 -4 71 78 -7 79 -6
-5 77 -5 78 -52 3 c-29 2 -53 8 -53 14 0 5 7 8 15 4 26 -10 44 5 51 40 6 35
24 37 24 3 0 -11 -4 -17 -10 -14 -15 10 -12 -3 7 -25 15 -17 30 -20 90 -20
l73 0 -6 218 c-3 119 -1 690 3 1269 l8 1052 -55 6 c-92 11 -87 5 -82 95 2 44
3 79 1 78 -2 -1 -44 -5 -94 -8z m55 -828 c0 -207 -9 -257 -50 -267 -14 -3 -33
-8 -42 -11 -17 -5 -18 10 -18 215 0 120 2 225 5 233 3 8 23 13 55 13 l50 0 0
-183z m-172 -278 c49 -6 52 -9 52 -34 0 -25 -6 -30 -62 -49 -34 -11 -62 -20
-64 -18 -1 1 -5 26 -9 55 -8 59 -12 57 83 46z m-277 -1400 l-9 -49 -1 65 c0
44 3 60 9 49 5 -9 5 -36 1 -65z m352 9 c-3 -38 -9 -72 -14 -77 -5 -6 -9 -32
-9 -58 0 -53 -3 -55 -78 -28 -18 7 -39 10 -46 7 -10 -4 -15 6 -18 38 l-3 44
57 6 c31 4 66 4 77 0 16 -5 21 -2 19 12 -4 46 3 123 11 123 5 0 6 -30 4 -67z
m1 -165 c4 -17 2 -28 -4 -28 -5 0 -10 14 -10 32 0 36 4 35 14 -4z"/>
<path d="M5739 8966 c-2 -2 -31 -6 -64 -8 -54 -4 -60 -6 -59 -26 0 -12 1 -47
2 -77 l2 -56 68 7 c37 4 70 11 73 16 3 5 48 10 99 11 l92 1 2 -79 c1 -73 3
-80 21 -78 11 1 23 -4 27 -10 5 -8 12 -6 22 8 11 15 11 22 3 27 -7 5 -1 6 13
4 14 -3 27 -5 30 -5 3 -1 20 -14 38 -31 18 -16 40 -30 49 -30 20 0 72 -37 102
-73 38 -45 96 -77 140 -77 38 0 40 -2 56 -47 10 -27 19 -54 21 -61 2 -8 13
-16 24 -19 51 -13 -3 -42 -88 -48 -100 -6 -142 -15 -142 -30 0 -18 -23 -25
-78 -25 l-47 0 0 -57 0 -58 -47 -3 c-27 -2 -48 -8 -48 -13 0 -6 3 -8 8 -5 7 4
5 -59 -4 -101 -2 -13 -12 -23 -21 -23 -9 0 -32 -5 -50 -12 -29 -11 -33 -16
-33 -49 0 -20 -3 -57 -6 -83 l-7 -46 -62 0 c-34 0 -88 5 -121 10 -32 6 -73 13
-91 16 l-32 5 -3 70 -3 71 -55 3 c-30 2 -72 7 -92 10 l-36 6 5 74 6 73 -29 5
c-16 3 -59 9 -96 12 l-67 6 6 52 c3 29 12 67 19 86 15 35 19 138 6 157 -4 6
-42 13 -84 16 l-78 5 0 -73 c0 -40 -4 -76 -10 -79 -5 -3 -10 -37 -10 -75 0
-89 -5 -99 -50 -106 -37 -6 -37 -6 -29 -43 5 -20 9 -113 9 -208 0 -167 1 -172
22 -179 12 -3 53 -35 92 -71 39 -35 83 -75 97 -88 27 -24 39 -73 39 -160 l0
-43 43 -4 c23 -3 139 -3 257 0 171 3 231 1 292 -12 42 -9 112 -16 156 -16 95
0 157 27 234 102 28 27 51 48 53 46 1 -2 7 -12 13 -23 5 -10 25 -24 44 -31
l33 -11 3 -110 3 -110 -67 -14 -67 -14 -14 -47 c-13 -45 -16 -48 -56 -55 -27
-4 -51 -16 -67 -33 -115 -124 -144 -151 -165 -156 -24 -6 -24 -6 -27 -160 -3
-148 -2 -154 17 -154 47 0 95 -23 165 -81 41 -34 105 -76 142 -95 88 -44 219
-131 292 -194 53 -45 63 -50 95 -45 19 3 44 14 56 24 25 23 99 61 119 61 8 0
18 9 21 21 4 13 34 34 80 56 61 29 75 40 80 64 7 31 -3 29 135 34 19 0 27 8
34 30 7 26 18 33 66 48 64 21 80 32 80 59 0 16 10 18 79 18 86 0 91 -3 112
-64 9 -25 27 -47 49 -61 19 -12 41 -30 49 -39 7 -9 23 -16 35 -16 11 0 31 -3
44 -6 21 -6 22 -10 16 -68 -4 -33 -15 -77 -24 -96 -10 -19 -21 -70 -25 -112
l-7 -78 -78 0 -78 0 5 -80 6 -80 -89 -2 c-49 -1 -119 0 -156 1 l-68 3 0 -70 0
-71 -45 -6 c-24 -4 -62 -5 -84 -3 l-40 3 -3 -70 -3 -70 -86 3 -86 3 5 -80 5
-80 -84 -3 -84 -3 -3 -86 -3 -87 -152 -6 c-84 -3 -163 -4 -175 -3 -23 2 -24 0
-25 -88 l-2 -90 -90 -3 -90 -3 4 -80 3 -80 -91 3 -91 3 0 -78 0 -79 -93 4 -92
3 3 -66 4 -66 -38 -6 c-22 -4 -63 -7 -91 -7 l-53 0 3 -77 2 -78 -85 3 -85 3 3
-75 c5 -87 8 -84 -107 -88 l-64 -3 2 -77 2 -78 -90 0 -91 0 0 -80 0 -80 -86 0
-86 0 4 -77 3 -78 -90 -5 -90 -5 -3 -79 -3 -78 -77 3 c-42 2 -81 1 -87 -2 -5
-3 -63 -4 -127 -1 l-118 4 0 57 0 57 -77 -1 c-74 0 -77 1 -83 25 -5 22 -12 25
-55 28 -97 5 -95 3 -95 85 l0 73 43 3 c23 2 56 3 72 3 17 0 33 6 37 12 4 6 7
74 7 151 l0 140 -59 45 c-33 25 -72 62 -87 84 -20 28 -47 47 -100 71 -65 30
-73 37 -84 73 l-12 40 -78 13 -79 13 0 57 c0 66 2 64 -101 74 l-66 7 -6 55
c-3 30 -8 57 -11 60 -2 3 -41 7 -85 10 -79 6 -80 5 -92 -20 -7 -15 -20 -29
-31 -32 -10 -4 -18 -10 -18 -15 0 -5 -15 -17 -32 -26 -18 -9 -49 -31 -68 -49
-19 -18 -46 -36 -59 -40 -27 -8 -60 -42 -61 -62 0 -28 -28 -11 -42 25 -14 37
-19 39 -79 52 -77 16 -105 41 -114 101 -7 44 -7 44 -48 45 -66 2 -114 27 -122
63 -5 25 -12 31 -34 31 -39 0 -84 49 -79 86 3 28 4 29 71 32 l67 3 0 86 0 85
-62 -6 -63 -7 -28 54 c-19 37 -41 62 -71 81 -25 15 -56 40 -69 56 -14 15 -49
39 -79 53 -32 15 -60 37 -68 53 -14 25 -84 64 -115 64 -8 0 -31 18 -52 40 -20
23 -60 54 -87 71 -28 17 -84 51 -125 75 -58 35 -76 42 -83 32 -7 -10 -9 -10
-7 2 1 8 1 32 0 53 l-1 37 -95 0 -95 0 0 -75 0 -75 85 0 85 0 0 -76 0 -75 53
4 c82 6 104 -6 116 -64 6 -28 11 -57 11 -64 0 -17 5 -18 28 -6 9 5 38 11 63
15 l47 7 6 -45 c5 -32 3 -54 -8 -75 -9 -16 -15 -47 -14 -68 l1 -38 4 35 c2 19
9 47 15 63 10 26 13 27 89 27 l79 0 0 -44 c0 -25 5 -48 12 -52 6 -4 8 -3 5 2
-3 6 11 10 34 9 31 0 39 -4 39 -19 0 -15 6 -17 35 -14 32 4 36 1 50 -34 15
-40 21 -128 8 -128 -17 0 -31 17 -46 51 -20 49 -63 63 -199 63 -92 1 -108 -1
-108 -15 0 -9 -10 -21 -23 -28 -12 -6 -29 -24 -38 -40 -9 -15 -34 -37 -55 -48
-35 -17 -42 -28 -61 -89 -13 -38 -30 -75 -40 -81 -9 -7 -37 -13 -62 -13 l-46
0 -3 -77 c-1 -43 -3 -218 -4 -389 l-1 -310 -51 7 c-28 5 -61 11 -72 14 -36 8
-39 44 -43 446 l-1 150 -57 -1 c-47 -1 -169 18 -230 35 -7 2 -15 33 -18 72
l-7 68 -37 3 c-20 2 -83 4 -139 5 -121 2 -122 2 -122 -92 0 -38 -4 -61 -11
-61 -8 0 -9 38 -3 137 4 76 7 148 7 159 -1 23 28 34 87 34 23 0 29 5 34 31 3
17 6 49 6 70 0 29 4 39 16 39 13 0 14 3 5 14 -7 9 -9 31 -4 65 l8 52 67 23
c37 12 71 25 74 29 4 3 7 32 8 64 l1 58 38 3 c21 2 58 -1 83 -6 43 -9 44 -9
44 17 0 14 3 43 6 63 l6 37 25 -25 c26 -26 62 -44 101 -51 19 -3 22 1 22 29 0
18 -3 57 -6 86 l-7 52 -63 0 c-56 0 -64 -2 -64 -19 0 -25 -19 -31 -101 -31
l-69 0 0 -39 c0 -21 -3 -53 -6 -70 l-6 -31 -73 0 -72 0 -7 -52 c-3 -29 -6 -70
-6 -92 l0 -39 -74 7 -73 7 -7 -98 c-3 -54 -9 -122 -12 -150 l-6 -53 -64 0 -64
0 0 -279 0 -279 32 -21 c18 -11 64 -54 101 -95 54 -60 78 -79 119 -93 70 -25
80 -43 66 -121 -6 -34 -9 -64 -6 -67 3 -3 17 -1 32 5 15 5 41 10 57 10 29 0
63 21 54 34 -3 3 -2 3 3 0 7 -5 8 -9 11 -35 0 -5 6 -7 11 -4 14 9 88 -35 125
-74 l29 -32 -3 -209 -3 -210 75 0 75 0 7 154 c4 84 4 163 0 176 -7 23 -7 23
79 18 l86 -4 0 77 c0 90 -1 89 99 89 l68 0 -5 74 -4 74 31 7 c17 3 55 3 86 0
l55 -7 0 70 0 70 50 11 c79 17 90 14 167 -41 157 -115 175 -127 203 -133 36
-8 42 -27 38 -110 l-3 -60 -40 -5 c-40 -5 -42 -7 -61 -78 -2 -7 -24 -22 -48
-33 -25 -11 -48 -28 -51 -39 -7 -21 -53 -50 -80 -50 -13 0 -15 -21 -15 -145
l0 -145 36 0 c48 0 66 -11 108 -70 22 -31 51 -57 72 -66 19 -8 55 -30 80 -49
24 -19 64 -43 87 -53 23 -11 55 -33 71 -50 18 -19 47 -36 78 -44 38 -9 57 -22
80 -51 29 -36 130 -97 162 -97 7 0 16 11 20 23 3 15 32 41 80 72 41 26 77 56
79 66 3 12 14 19 31 19 14 0 46 5 70 12 37 10 47 18 63 52 16 36 26 44 88 68
39 15 69 32 68 37 -5 19 22 12 57 -14 19 -14 39 -25 45 -25 44 0 63 -112 25
-150 -22 -22 -42 -25 -70 -10 -17 9 -20 6 -24 -22 -2 -18 -8 -55 -13 -83 l-8
-50 -70 -3 c-38 -1 -77 -5 -85 -9 -17 -7 -30 -9 -107 -11 l-53 -2 0 -69 c0
-80 -1 -81 -114 -81 l-68 0 3 -77 4 -78 -110 -7 c-221 -14 -1306 -25 -1325
-13 -5 3 -10 43 -10 91 l0 84 -75 0 c-53 0 -75 4 -76 13 -1 6 -5 163 -8 347
l-6 335 -71 3 -71 3 -6 -137 c-9 -188 -8 -662 2 -757 10 -91 23 -111 90 -128
43 -11 47 -15 61 -57 13 -41 20 -47 58 -60 24 -8 62 -32 85 -54 37 -35 49 -40
103 -45 l61 -6 7 -60 c3 -33 8 -63 11 -65 2 -3 250 -5 549 -6 l545 -1 3 84 3
83 240 5 c132 2 246 6 254 9 12 4 13 -11 7 -85 l-7 -89 75 -7 74 -7 10 -42 c6
-22 13 -60 17 -83 6 -39 10 -43 34 -43 16 0 49 -3 74 -6 l45 -6 11 -59 c7 -31
9 -69 5 -84 l-6 -26 63 7 c55 5 68 3 88 -13 21 -18 24 -27 22 -80 l-2 -60 96
-6 c85 -6 101 -10 139 -37 44 -30 86 -85 86 -112 0 -11 18 -17 77 -22 85 -7
297 -8 304 -2 2 3 2 39 -1 80 -3 52 -2 75 6 72 6 -2 53 1 105 8 l94 11 3 78 3
77 78 0 79 0 6 31 c3 17 6 56 6 85 l0 54 80 0 80 0 0 99 0 100 75 -2 75 -2 3
323 c2 282 -1 353 -15 311 -2 -5 -22 4 -45 20 -23 17 -56 32 -73 33 l-30 2 0
84 0 84 -74 -7 c-68 -7 -75 -6 -85 13 -6 11 -11 43 -11 70 0 47 -2 50 -37 66
-21 9 -60 17 -86 18 -45 1 -48 3 -45 27 2 17 9 26 20 25 9 -1 46 -5 82 -9 l66
-7 0 81 0 81 85 0 85 0 0 74 0 74 89 7 90 7 -6 68 -6 68 92 7 92 8 -6 73 -7
74 83 1 c46 1 88 1 92 0 5 -1 7 35 5 79 l-3 80 88 0 87 0 0 64 0 64 34 6 c18
4 40 4 49 0 9 -3 22 -2 29 3 8 5 -12 10 -52 14 l-65 6 77 1 c92 2 108 8 109
36 1 18 2 18 6 3 5 -20 9 -20 137 -1 l38 6 -7 53 c-3 28 -3 74 0 101 l7 50 67
-8 c122 -13 111 -23 111 97 l0 105 73 2 c39 0 79 1 87 0 20 -1 30 17 30 56 l0
33 24 -26 c22 -23 31 -26 83 -23 l58 3 5 80 5 80 76 3 77 3 7 84 7 84 76 -2
77 -2 5 80 5 80 75 1 c41 1 75 5 76 10 1 5 5 35 9 66 l6 57 47 6 c103 13 111
15 118 37 6 20 11 20 85 15 l79 -6 -2 37 c-1 20 -1 54 0 75 2 34 4 37 30 36
19 -1 21 -3 7 -6 -16 -3 -21 -12 -21 -43 -1 -25 2 -37 9 -33 6 4 8 -2 5 -15
-4 -14 -2 -20 5 -15 5 3 25 6 44 5 18 -1 33 3 33 8 0 6 9 10 20 10 11 0 20 -4
20 -10 0 -5 9 -10 20 -10 14 0 20 7 20 24 0 20 4 23 28 18 l27 -5 -20 24 c-11
13 -2 8 19 -11 21 -19 46 -47 57 -62 20 -27 20 -27 -1 -23 -11 2 -18 0 -15 -6
4 -5 17 -9 31 -9 14 0 23 -4 20 -9 -3 -5 3 -11 14 -14 11 -3 20 -9 19 -14 -4
-21 2 -33 17 -33 8 0 12 5 9 10 -3 6 -1 10 4 10 6 0 11 -5 11 -11 0 -5 4 -8 8
-5 5 3 22 -9 38 -27 16 -17 19 -24 7 -14 -21 18 -22 18 -32 -1 -8 -15 -7 -23
4 -32 12 -10 15 -10 16 1 0 8 5 4 11 -8 8 -17 17 -20 42 -17 17 3 49 2 71 -3
34 -7 43 -15 63 -53 13 -25 21 -55 19 -67 -4 -22 -1 -23 57 -23 90 0 106 -14
106 -96 l0 -64 35 0 c28 0 35 4 35 20 0 11 5 20 12 20 6 0 3 10 -8 23 -11 12
-5 9 13 -7 18 -16 30 -33 27 -38 -3 -5 -2 -7 3 -6 4 2 8 -2 9 -7 2 -16 69 -24
214 -24 l135 -1 -3 82 -3 83 85 -3 86 -3 0 73 0 73 83 0 82 0 9 82 c10 92 11
93 106 93 l55 0 -5 87 c-3 50 -9 87 -15 87 -5 -1 -38 -5 -72 -9 l-63 -7 0 61
c0 49 3 61 16 61 25 0 71 53 83 96 30 109 51 77 51 -78 l0 -118 43 1 c41 0
134 16 109 18 -9 1 -10 6 -3 19 6 11 11 141 12 306 l1 287 -63 48 c-79 59 -84
66 -98 119 -10 36 -15 42 -39 42 -38 0 -98 18 -110 33 -6 6 -12 26 -14 42 -3
28 -7 31 -67 42 -36 7 -71 18 -78 25 -7 8 -16 41 -19 75 -6 58 -8 61 -28 53
-29 -11 -125 11 -137 32 -5 9 -5 46 1 89 5 41 10 127 10 191 0 65 3 117 8 117
4 -1 42 -1 85 0 l77 1 0 345 0 345 -86 0 -87 0 6 79 6 78 -46 7 c-25 3 -61 6
-79 6 l-34 0 0 79 0 79 -87 -2 -88 -1 -2 -77 -2 -78 83 0 84 0 5 -29 c4 -16 4
-52 0 -80 -3 -29 -1 -56 5 -63 7 -9 7 -75 1 -203 -4 -104 -8 -214 -9 -242 l0
-53 -80 0 c-44 0 -80 -3 -80 -7 0 -5 28 -8 63 -8 75 1 86 -12 87 -97 l0 -58
-75 0 -75 0 0 -91 0 -90 -84 3 -85 3 -6 -35 c-11 -65 -15 -70 -46 -70 -17 0
-50 -5 -73 -11 -36 -9 -55 -7 -113 10 -39 12 -76 27 -82 34 -6 8 -16 36 -23
64 -9 33 -18 48 -26 45 -8 -2 -42 -1 -78 3 l-64 7 0 76 0 77 -32 0 c-18 1 -58
2 -88 3 l-56 2 7 73 c4 39 5 74 2 77 -3 3 -42 7 -87 8 l-83 4 4 46 c2 26 5 59
7 74 3 32 -12 38 -103 38 l-64 0 7 80 7 80 -170 0 -171 0 0 74 c0 72 -1 74
-22 69 -19 -4 -20 -3 -8 6 8 6 10 11 4 11 -6 0 -14 -3 -18 -7 -5 -6 -107 -5
-113 0 -1 1 2 27 7 57 5 37 8 44 9 23 1 -29 5 -33 39 -38 81 -14 97 -18 104
-29 4 -6 8 30 8 81 l0 91 -75 4 c-55 2 -75 0 -75 -9 0 -10 -24 -13 -86 -13
l-87 0 7 179 c6 148 5 184 -8 212 -22 51 -61 89 -98 96 -50 9 -65 20 -71 50
-7 30 -95 99 -162 127 -61 26 -94 55 -106 95 -10 34 -16 39 -62 51 -34 9 -66
26 -96 55 -26 22 -67 58 -92 78 l-46 37 -115 0 c-63 0 -117 -2 -119 -4z m622
-866 c11 -7 21 -26 25 -51 7 -43 26 -59 69 -59 14 0 35 -5 47 -11 24 -13 48
-67 48 -108 0 -33 7 -37 70 -40 61 -3 85 -21 100 -75 7 -25 16 -44 20 -41 4 3
13 -2 19 -9 7 -8 30 -18 53 -21 28 -5 52 -19 82 -49 53 -53 113 -98 179 -136
30 -16 80 -54 113 -83 34 -31 78 -60 104 -69 39 -13 49 -22 79 -75 31 -56 37
-61 75 -67 22 -4 78 -27 123 -52 76 -41 83 -48 95 -87 6 -23 13 -44 15 -46 1
-2 26 -8 54 -12 76 -12 97 -30 105 -88 6 -44 9 -50 36 -55 17 -3 46 -6 64 -6
40 0 76 -34 72 -68 -2 -19 -15 -29 -55 -46 -91 -37 -110 -58 -129 -145 -9 -42
-19 -79 -23 -83 -14 -16 -84 15 -159 71 -105 78 -119 103 -22 39 14 -9 39 -19
57 -21 26 -4 32 -1 37 17 3 12 2 34 -2 48 -8 27 -161 168 -227 208 -62 37
-115 82 -109 92 3 5 0 7 -8 6 -7 -2 -12 3 -10 10 1 8 -2 11 -7 8 -5 -4 -15 -1
-23 6 -7 7 -32 26 -56 41 -23 15 -55 41 -70 58 -15 17 -49 42 -77 56 -27 14
-70 42 -95 63 -25 20 -49 39 -55 41 -26 10 -86 56 -90 69 -10 27 -137 122
-157 117 -10 -3 -18 -1 -18 4 0 5 -10 13 -23 18 -26 10 -118 80 -161 123 -16
15 -56 49 -90 74 -33 25 -97 80 -140 122 l-79 77 -7 70 c-7 75 -4 89 39 142
28 35 72 44 112 23z m2468 -352 c-1 -46 -4 -73 -6 -60 -2 12 -9 20 -14 16 -5
-3 -27 -3 -48 1 l-39 6 -4 54 -3 54 35 4 c88 9 80 17 79 -75z m-2935 -8 c4
-33 11 -58 16 -55 5 3 6 21 3 40 -4 23 -2 35 6 35 6 0 12 10 13 23 1 20 17
-177 21 -268 2 -37 0 -40 -23 -36 -30 4 -122 49 -132 65 -4 6 -8 30 -8 54 0
43 5 48 53 44 10 -1 15 3 12 8 -3 6 -19 10 -36 10 l-29 0 0 70 0 70 49 0 48 0
7 -60z m2936 -188 l0 -47 -57 -2 c-43 -1 -51 0 -33 7 l25 8 -27 1 c-30 1 -31
2 -22 25 4 12 20 16 55 16 42 0 49 3 49 20 0 11 2 20 5 20 3 0 5 -21 5 -48z
m-2695 -22 c15 -6 23 -15 20 -21 -4 -6 -13 -8 -20 -5 -8 3 -15 0 -17 -6 -6
-16 -137 -24 -139 -9 -5 31 -2 36 21 42 38 11 106 10 135 -1z m537 -255 c16
-14 62 -44 101 -66 40 -23 74 -44 77 -46 5 -4 0 -156 -5 -161 -8 -9 -82 23
-141 60 -61 38 -64 42 -64 79 0 26 -4 39 -14 39 -27 0 -33 24 -19 73 8 26 19
47 25 47 5 0 23 -11 40 -25z m-284 -381 c-6 -158 -7 -157 95 -195 55 -21 82
-24 232 -26 212 -2 205 -1 216 -32 16 -41 1 -73 -63 -133 -34 -32 -56 -58 -49
-58 25 0 -9 -37 -56 -61 -26 -13 -55 -30 -64 -37 -14 -11 -24 -5 -72 41 -56
55 -97 77 -97 52 0 -20 -55 1 -78 29 -9 12 -26 27 -37 34 -19 11 -19 11 3 12
12 0 22 4 22 9 0 8 -212 159 -277 196 -28 16 -33 26 -39 71 -6 50 6 94 26 94
5 0 16 -10 24 -22 9 -12 16 -17 16 -10 0 19 37 -4 45 -27 6 -20 34 -36 44 -26
3 4 9 46 12 94 8 110 18 131 66 131 l36 0 -5 -136z m193 81 c28 -19 61 -35 74
-35 25 0 35 -22 35 -82 l0 -38 -67 0 c-116 0 -113 -2 -113 101 0 54 4 89 10
89 6 0 33 -16 61 -35z m1841 -134 l73 4 3 -82 3 -81 37 10 c20 6 42 15 49 20
13 11 73 1 73 -11 0 -14 39 -53 47 -48 5 3 31 -7 58 -21 37 -20 51 -35 57 -58
7 -29 11 -31 75 -40 l68 -9 17 -100 c9 -55 17 -100 17 -100 1 0 52 -1 114 -2
130 -1 192 -14 208 -45 9 -16 10 -69 5 -187 -9 -205 -9 -211 -19 -211 -12 0
-47 24 -47 33 0 4 5 5 10 2 16 -10 12 15 -5 32 -9 8 -17 14 -19 12 -1 -2 -9
-14 -17 -26 -14 -21 -16 -19 -27 40 -7 34 -17 81 -22 105 -6 23 -10 59 -10 78
l0 37 -72 -7 c-95 -9 -100 -11 -119 -45 -14 -23 -108 -81 -133 -81 -3 0 -6 40
-6 89 0 50 -3 92 -7 94 -5 3 -6 -38 -3 -91 3 -54 3 -106 2 -117 -5 -28 -88
-95 -117 -95 -27 0 -27 -1 -46 -110 -6 -36 -17 -78 -24 -95 -15 -32 -35 -231
-35 -342 0 -62 3 -72 26 -93 22 -21 35 -24 103 -25 l78 0 -5 -75 c-2 -41 -5
-76 -6 -77 -2 -2 -36 -8 -77 -14 -100 -16 -160 -6 -205 33 -64 57 -65 60 -61
343 3 289 12 262 -83 267 l-45 3 -3 71 -3 71 -78 7 c-90 8 -91 9 -91 109 l0
57 -24 -15 c-16 -11 -25 -12 -28 -5 -5 16 -122 28 -172 19 -23 -5 -58 -8 -78
-9 -37 0 -38 1 -38 39 0 54 18 144 31 152 6 3 17 40 24 81 14 81 32 123 76
179 16 20 37 57 48 82 18 41 59 77 89 77 5 0 26 15 46 34 25 24 49 37 80 41
65 10 79 4 87 -33 4 -18 8 -34 10 -35 2 -1 29 1 59 4 48 5 50 6 15 8 -47 2
-57 7 -72 42 -15 36 3 134 23 118 8 -7 42 -10 86 -8z m-1456 -138 c-3 -8 -21
-13 -46 -13 l-40 0 0 43 c1 53 19 87 56 102 l29 12 3 -65 c2 -36 1 -71 -2 -79z
m-720 -86 c4 -4 15 -7 24 -7 9 0 17 -7 17 -15 0 -8 -7 -15 -14 -15 -8 0 -11 5
-7 12 5 8 2 9 -10 5 -11 -5 -15 -3 -10 5 5 7 2 9 -9 5 -8 -3 -20 0 -26 7 -8
10 -6 12 9 11 11 -1 23 -4 26 -8z m121 -73 c-3 -3 -12 -4 -19 -1 -8 3 -5 6 6
6 11 1 17 -2 13 -5z m1441 -496 c14 -18 25 -101 17 -127 -4 -15 -15 -21 -36
-21 -28 0 -29 2 -29 43 0 98 19 139 48 105z m1150 -170 c-2 -7 7 -14 20 -16
15 -2 23 2 24 15 1 10 4 -25 7 -77 6 -99 0 -130 -24 -130 -17 0 -35 -30 -35
-59 0 -15 -6 -21 -22 -21 -13 0 -47 -3 -75 -6 l-53 -7 0 64 c0 73 16 225 25
239 9 15 136 13 133 -2z m-611 -270 c-3 -7 -5 -2 -5 12 0 14 2 19 5 13 2 -7 2
-19 0 -25z m803 -50 c0 -13 3 -46 6 -73 l6 -50 -77 -18 c-42 -10 -78 -17 -80
-15 -2 2 -5 38 -7 81 l-3 77 30 1 c16 1 41 5 55 9 49 16 70 12 70 -12z m-166
-179 c3 -17 6 -48 6 -69 l0 -38 -69 -7 c-39 -4 -75 -4 -80 0 -6 3 -11 35 -11
70 l0 64 43 4 c106 9 104 10 111 -24z m-6741 -300 c12 -7 42 -32 67 -58 25
-25 86 -68 135 -96 85 -47 109 -66 247 -186 32 -28 77 -57 101 -65 29 -10 56
-30 81 -60 24 -28 58 -54 91 -69 37 -16 62 -35 79 -62 15 -21 44 -47 67 -58
23 -11 62 -39 85 -62 24 -23 70 -60 102 -82 31 -21 73 -56 92 -76 19 -20 60
-50 91 -65 32 -17 71 -48 93 -74 25 -31 50 -49 76 -57 22 -7 60 -31 84 -55 27
-25 62 -48 86 -54 30 -8 46 -21 65 -49 20 -33 34 -42 87 -58 l63 -19 0 -59 c0
-60 0 -60 -27 -57 -19 2 -28 -1 -28 -11 0 -8 -18 -19 -40 -26 -22 -6 -40 -18
-40 -25 0 -8 -9 -24 -21 -37 -18 -22 -20 -22 -14 -3 7 27 -29 60 -125 114 -41
23 -97 59 -125 79 -72 55 -148 109 -245 176 -47 32 -114 83 -148 114 -35 31
-114 100 -175 154 -62 54 -141 116 -177 137 -71 42 -141 93 -211 153 -24 22
-65 51 -90 65 -25 15 -118 75 -207 134 -114 77 -172 122 -197 155 -20 27 -40
48 -43 49 -4 0 -19 4 -34 8 -24 7 -26 12 -21 39 3 18 19 46 34 62 16 17 29 34
29 38 0 4 7 19 16 32 18 28 59 33 97 14z m1208 -349 c65 -12 79 -29 79 -92 l0
-48 -109 0 c-102 0 -111 -2 -125 -22 -9 -12 -16 -32 -16 -44 0 -12 -7 -27 -15
-34 -48 -40 -111 71 -71 126 12 16 25 19 90 17 l76 -2 0 54 c0 62 -1 62 91 45z
m-2473 -115 c-3 -3 -9 2 -12 12 -6 14 -5 15 5 6 7 -7 10 -15 7 -18z m1273 8
c13 -16 12 -17 -3 -4 -10 7 -18 15 -18 17 0 8 8 3 21 -13z m1376 -58 c12 -9
21 -21 19 -28 -1 -6 -1 -9 1 -5 8 13 34 -4 48 -33 19 -36 19 -50 0 -43 -9 4
-15 1 -15 -7 0 -10 -3 -10 -12 -1 -7 7 -19 12 -28 12 -9 0 -29 13 -45 30 -15
16 -32 27 -36 24 -5 -3 -6 2 -3 10 4 11 0 16 -10 16 -18 0 -19 2 -10 24 8 21
62 21 91 1z m-62 -120 c39 -17 49 -35 47 -94 -1 -62 -23 -91 -68 -91 -28 0
-39 29 -38 100 1 91 11 105 59 85z m-67 -14 c3 -8 0 -11 -7 -7 -6 4 -11 2 -11
-3 0 -6 -7 -11 -16 -11 -9 0 -23 -9 -32 -20 -12 -14 -24 -18 -39 -14 -27 7
-29 30 -6 56 20 23 103 22 111 -1z m315 -11 c34 -20 43 -29 25 -24 -22 5 -29
1 -42 -25 -9 -16 -16 -52 -16 -79 0 -45 3 -51 29 -62 16 -6 46 -15 66 -20 l37
-8 -4 73 c-3 70 -2 73 17 62 11 -6 45 -18 75 -28 l55 -17 3 -77 c2 -43 -1 -81
-5 -86 -4 -4 -33 -3 -65 2 -41 7 -72 5 -115 -5 l-58 -14 45 -1 c42 -1 44 -2
23 -16 -18 -13 -31 -13 -75 -4 -86 18 -81 7 -82 193 -2 191 -4 188 87 136z
m2270 3 c-7 -2 -21 -2 -30 0 -10 3 -4 5 12 5 17 0 24 -2 18 -5z m-3289 -240
c19 -6 64 -29 166 -84 58 -31 60 -34 60 -96 0 -66 -18 -86 -68 -77 -21 4 -44
10 -52 14 -8 4 -21 5 -27 3 -16 -6 -17 -45 -1 -61 9 -9 4 -12 -25 -12 l-37 0
0 68 c0 65 -1 70 -35 99 -31 28 -35 37 -35 81 0 59 8 85 24 77 6 -3 20 -8 30
-12z m-146 -242 c3 -41 2 -42 -20 -36 -13 4 -35 14 -50 22 -25 12 -28 12 -28
-2 0 -8 -4 -15 -10 -15 -15 0 -12 -63 3 -85 14 -18 28 -18 94 1 17 5 32 -5 72
-48 29 -31 73 -65 101 -78 l51 -24 94 16 c103 18 148 13 191 -21 15 -11 33
-21 40 -21 8 0 15 -10 16 -22 2 -43 3 -47 12 -55 5 -5 6 -2 1 6 -5 9 -4 12 3
7 7 -4 2 -22 -17 -54 -20 -35 -41 -54 -81 -74 -29 -15 -57 -25 -62 -22 -4 3
-11 -2 -14 -10 -9 -23 -25 -20 -96 17 -50 27 -70 32 -95 27 -22 -5 -30 -4 -26
3 4 6 0 8 -10 4 -11 -4 -37 11 -77 44 -55 47 -78 71 -47 52 6 -4 21 -8 32 -8
11 0 27 -4 35 -9 8 -5 26 -16 40 -24 l25 -14 -25 21 c-14 11 -72 54 -130 94
-58 40 -125 88 -150 105 -49 35 -89 48 -91 29 -3 -26 4 -40 28 -63 30 -27 24
-30 -16 -10 -26 14 -28 20 -34 98 -4 45 -3 85 1 89 4 4 31 14 60 24 28 9 52
20 52 23 1 20 34 46 67 52 54 11 58 8 61 -39z m446 -166 c-25 -19 -35 -19 -28
0 4 8 16 15 27 15 20 0 20 0 1 -15z m1110 -164 c3 -5 37 -12 76 -16 l70 -7 0
-48 c0 -26 3 -68 6 -93 8 -55 -4 -64 -91 -68 -51 -2 -61 -6 -65 -23 -7 -24
-38 -33 -117 -35 l-53 -1 1 -82 c1 -76 2 -79 9 -36 5 26 16 55 27 66 36 38
113 35 136 -5 6 -10 26 -14 71 -12 35 1 68 -1 74 -5 9 -5 12 7 12 41 0 61 18
79 80 78 54 0 180 -69 197 -108 7 -14 9 -49 7 -77 l-5 -53 64 5 c51 4 69 2 87
-12 19 -14 36 -17 81 -13 64 6 58 13 74 -93 l6 -40 57 4 c31 2 69 -1 85 -7
l27 -11 0 -329 c0 -181 -4 -332 -9 -335 -4 -3 -34 -8 -65 -12 l-56 -7 0 73 c0
41 5 88 12 106 9 26 9 49 -1 106 -7 40 -15 114 -17 163 -3 59 -10 94 -19 100
-13 11 -137 11 -165 1 -8 -3 -40 -8 -70 -10 -57 -4 -172 -37 -151 -44 6 -2 10
-18 10 -35 l-1 -32 -7 30 c-7 26 -9 23 -16 -30 -4 -33 -12 -66 -17 -72 -7 -8
-37 -13 -84 -13 l-74 0 0 -72 c0 -40 -4 -125 -8 -188 -4 -63 -7 -181 -7 -261
0 -161 5 -177 60 -173 17 1 58 3 93 3 58 1 62 2 62 25 0 66 10 82 64 105 28
11 70 21 94 21 l42 0 0 38 c0 29 7 45 28 64 15 14 35 39 44 57 12 22 24 31 42
31 13 0 32 3 41 6 15 6 16 -3 13 -86 -5 -108 -5 -108 -104 -109 l-62 -1 -7
-75 c-6 -73 -8 -75 -33 -75 -15 0 -54 -7 -87 -14 -43 -11 -62 -11 -67 -3 -3 6
-10 -22 -13 -61 -9 -86 -8 -85 -151 -98 -85 -8 -120 5 -185 72 l-44 45 -2 202
c-1 111 -2 238 -2 283 l-1 81 -159 6 c-88 3 -165 8 -171 12 -5 3 -39 8 -75 10
-36 2 -70 7 -75 10 -6 3 -10 27 -10 52 0 26 3 43 7 40 3 -4 12 1 19 11 8 10
13 12 14 5 0 -9 16 -13 45 -13 42 0 45 -2 46 -27 1 -24 2 -23 11 11 8 28 7 40
-2 46 -6 4 -75 10 -152 14 -77 4 -147 10 -155 13 -13 5 -14 20 -9 91 4 47 11
93 16 102 5 9 12 51 16 93 l7 77 57 0 57 0 5 84 c5 66 10 91 27 112 11 15 21
35 21 46 0 10 7 34 14 53 17 39 39 44 86 20 35 -18 40 -9 40 68 0 29 4 57 8
63 7 11 64 26 112 29 24 2 25 5 28 66 2 45 8 68 19 77 19 14 149 17 157 3z
m-444 -86 c5 3 11 1 15 -5 3 -5 15 -10 26 -10 10 0 19 -4 19 -10 0 -34 -99 20
-100 55 0 5 7 -1 16 -13 8 -12 19 -20 24 -17z m820 -1 c0 -10 -13 -14 -50 -14
-28 0 -50 5 -50 10 0 16 30 24 43 11 16 -16 37 -14 37 5 0 8 5 12 10 9 6 -3
10 -13 10 -21z m-520 -244 c0 -5 -2 -10 -4 -10 -3 0 -8 5 -11 10 -3 6 -1 10 4
10 6 0 11 -4 11 -10z m-2583 -452 c-2 -24 -4 -7 -4 37 0 44 2 63 4 43 2 -21 2
-57 0 -80z m3138 -138 c3 -5 2 -10 -4 -10 -5 0 -13 5 -16 10 -3 6 -2 10 4 10
5 0 13 -4 16 -10z m-1352 -77 c-7 -2 -21 -2 -30 0 -10 3 -4 5 12 5 17 0 24 -2
18 -5z m80 0 c-13 -2 -33 -2 -45 0 -13 2 -3 4 22 4 25 0 35 -2 23 -4z m1433
-126 c-3 -23 -2 -69 2 -102 l7 -60 -33 -10 c-29 -8 -36 -18 -50 -60 -17 -49
-18 -50 -64 -55 -42 -5 -48 -3 -58 18 -6 14 -8 27 -5 30 2 3 0 11 -6 19 -11
13 -10 14 11 17 15 2 12 21 -2 21 -16 0 -22 45 -13 112 5 43 10 53 25 53 10 0
22 -4 25 -10 9 -15 67 -11 89 5 11 8 28 15 38 15 14 0 18 8 18 43 1 35 2 39
11 24 6 -11 8 -38 5 -60z m-2016 -102 c0 -41 -11 -55 -41 -55 -5 0 -9 24 -9
54 0 51 1 53 25 48 22 -4 25 -9 25 -47z m1260 13 c0 6 5 12 10 12 6 0 9 -27 9
-62 -1 -54 -3 -58 -9 -28 -5 21 -8 27 -10 15 -2 -17 -3 -17 -10 5 -4 14 -8 36
-9 50 -1 20 1 22 9 10 6 -10 10 -11 10 -2z"/>
<path d="M6320 7961 l-35 -6 32 -14 c22 -9 33 -21 35 -39 3 -18 5 -11 8 21 3
26 3 46 0 46 -3 -1 -21 -4 -40 -8z"/>
<path d="M6418 7813 c12 -2 32 -2 45 0 12 2 2 4 -23 4 -25 0 -35 -2 -22 -4z"/>
<path d="M6688 7653 c6 -2 18 -2 25 0 6 3 1 5 -13 5 -14 0 -19 -2 -12 -5z"/>
<path d="M6787 7493 c18 -2 50 -2 70 0 21 2 7 4 -32 4 -38 0 -55 -2 -38 -4z"/>
<path d="M7243 7173 c20 -2 54 -2 75 0 20 2 3 4 -38 4 -41 0 -58 -2 -37 -4z"/>
<path d="M7660 6834 c0 -14 3 -14 15 -4 8 7 15 14 15 16 0 2 -7 4 -15 4 -8 0
-15 -7 -15 -16z"/>
<path d="M6683 6616 c-36 -17 -53 -43 -53 -83 0 -34 8 -46 37 -62 30 -15 68
-14 103 4 27 14 30 20 30 63 0 27 -6 56 -12 65 -18 24 -67 30 -105 13z"/>
<path d="M8878 6403 c18 -2 45 -2 60 0 15 2 0 4 -33 4 -33 0 -45 -2 -27 -4z"/>
<path d="M7895 6215 c20 -16 43 -24 68 -25 33 0 37 3 37 25 0 24 -2 25 -67 25
l-68 0 30 -25z"/>
<path d="M8530 6090 c-34 -7 -34 -7 -5 -8 17 0 50 3 75 7 l45 8 -40 0 c-22 0
-56 -3 -75 -7z"/>
<path d="M9225 6007 c-4 -10 -5 -21 -1 -24 10 -10 18 4 13 24 -4 17 -4 17 -12
0z"/>
<path d="M8400 5881 c0 -13 49 -20 54 -7 2 6 2 -8 1 -31 -2 -24 1 -45 6 -48 5
-4 9 6 9 22 0 15 3 38 6 51 6 20 3 22 -35 22 -22 0 -41 -4 -41 -9z"/>
<path d="M2205 4900 l-50 -7 53 -1 c29 -1 52 2 52 8 0 6 -1 9 -2 8 -2 0 -25
-4 -53 -8z"/>
<path d="M3513 3963 c9 -2 23 -2 30 0 6 3 -1 5 -18 5 -16 0 -22 -2 -12 -5z"/>
<path d="M3705 3811 c3 -18 5 -37 5 -42 0 -5 8 -9 18 -9 11 0 13 3 5 8 -6 4
-16 23 -22 42 l-11 35 5 -34z"/>
<path d="M2973 3639 c-26 -8 -33 -16 -39 -43 -11 -59 -4 -70 54 -84 48 -12 57
-11 90 5 46 22 54 64 22 106 -23 29 -64 34 -127 16z"/>
<path d="M4125 2930 c-24 -6 -18 -7 28 -8 31 0 57 4 57 9 0 10 -42 10 -85 -1z"/>
<path d="M3691 2818 c-1 -25 -5 -28 -38 -29 l-38 -2 35 -6 c43 -9 53 -2 47 35
l-4 29 -2 -27z"/>
<path d="M3984 2600 c16 -5 33 -15 38 -22 7 -9 8 -7 6 7 -2 15 -12 21 -38 22
l-35 2 29 -9z"/>
<path d="M3721 2534 c0 -11 3 -14 6 -6 3 7 2 16 -1 19 -3 4 -6 -2 -5 -13z"/>
<path d="M5442 8728 l3 -73 82 -3 81 -3 4 70 3 69 -44 6 c-24 3 -64 6 -88 6
l-44 0 3 -72z"/>
<path d="M6030 8659 c0 -5 5 -7 10 -4 6 3 10 8 10 11 0 2 -4 4 -10 4 -5 0 -10
-5 -10 -11z"/>
<path d="M5280 8624 c0 -12 3 -49 6 -83 l7 -62 67 2 c37 1 72 -1 78 -5 6 -3
13 -2 16 3 4 5 2 12 -4 16 -5 3 -10 37 -10 75 l0 68 -80 4 c-76 3 -80 2 -80
-18z"/>
<path d="M6308 8493 c7 -3 16 -2 19 1 4 3 -2 6 -13 5 -11 0 -14 -3 -6 -6z"/>
<path d="M5535 8483 c11 -2 30 -6 42 -8 12 -3 24 -13 26 -23 3 -10 5 -6 6 11
1 26 -1 27 -46 26 -27 -1 -39 -3 -28 -6z"/>
<path d="M7520 8255 l0 -65 -64 0 c-49 0 -65 -4 -70 -16 -6 -15 44 -16 555
-13 308 2 562 6 564 9 2 3 7 38 10 78 l8 72 -502 0 -501 0 0 -65z"/>
<path d="M1792 8154 c10 -10 69 -13 63 -4 -4 6 -20 10 -37 10 -17 0 -29 -3
-26 -6z"/>
<path d="M7040 8085 l0 -72 31 -7 c17 -3 89 -6 160 -6 l129 0 0 49 c0 27 3 62
6 79 l6 31 -166 0 -166 -1 0 -73z"/>
<path d="M6018 8133 c7 -3 16 -2 19 1 4 3 -2 6 -13 5 -11 0 -14 -3 -6 -6z"/>
<path d="M3429 7905 l3 -85 -81 0 -81 0 0 -65 0 -65 74 0 c87 0 90 -4 77 -107
l-7 -63 65 0 66 0 -3 83 -4 84 54 6 c29 4 67 7 83 7 l30 0 1 65 2 65 -79 0
-79 0 0 80 0 80 -62 0 -63 0 4 -85z"/>
<path d="M2000 7825 c0 -9 6 -12 15 -9 8 4 12 10 9 15 -8 14 -24 10 -24 -6z"/>
<path d="M7850 7669 l0 -155 68 9 c37 6 108 10 159 9 l92 -1 -2 149 -1 150
-158 -2 -158 -3 0 -156z"/>
<path d="M1921 7744 c0 -11 3 -14 6 -6 3 7 2 16 -1 19 -3 4 -6 -2 -5 -13z"/>
<path d="M1910 7701 c0 -11 -9 -22 -20 -26 -11 -3 -20 -11 -20 -17 0 -5 7 -7
16 -4 9 3 22 6 30 6 16 0 20 45 4 55 -5 3 -10 -3 -10 -14z"/>
<path d="M5114 7312 c3 -25 6 -62 6 -83 l0 -39 85 0 85 0 0 75 c0 52 -4 77
-12 80 -7 2 -48 5 -92 8 l-78 4 6 -45z"/>
<path d="M4944 7151 c3 -24 6 -61 6 -82 l0 -39 85 0 85 0 0 34 c0 18 -3 54 -6
79 l-7 46 -84 3 -85 3 6 -44z"/>
<path d="M4763 6978 c4 -29 7 -65 7 -80 l0 -28 90 0 91 0 -3 78 -3 77 -94 3
-94 3 6 -53z"/>
<path d="M1772 6990 c0 -14 2 -19 5 -12 2 6 2 18 0 25 -3 6 -5 1 -5 -13z"/>
<path d="M1772 6940 c0 -14 2 -19 5 -12 2 6 2 18 0 25 -3 6 -5 1 -5 -13z"/>
<path d="M4574 6868 c-3 -4 -2 -41 2 -83 l7 -75 94 0 94 0 -3 78 -3 77 -93 5
c-52 3 -96 2 -98 -2z"/>
<path d="M4372 6637 l3 -78 93 -2 92 -2 0 77 0 77 -95 3 -96 3 3 -78z"/>
<path d="M5238 6683 c6 -2 18 -2 25 0 6 3 1 5 -13 5 -14 0 -19 -2 -12 -5z"/>
<path d="M4044 6465 l7 -85 -91 0 -91 0 7 -80 7 -80 -92 0 c-90 0 -91 0 -86
-22 3 -13 6 -48 7 -78 l3 -55 -89 0 -88 1 6 -51 c3 -27 6 -62 6 -77 l0 -28 86
0 86 0 -6 63 c-3 34 -2 68 3 76 7 10 33 15 87 17 l77 2 -2 70 -2 71 45 6 c25
4 63 5 86 3 l40 -4 0 82 0 82 90 7 c50 4 90 10 90 14 0 5 21 4 48 0 96 -16 92
-18 92 64 l0 74 -97 6 c-54 4 -129 7 -167 7 l-69 0 7 -85z"/>
<path d="M5287 6513 c-9 -8 -9 -106 -1 -127 5 -13 22 -16 79 -16 l73 0 7 66
c5 51 4 69 -7 75 -15 10 -142 12 -151 2z"/>
<path d="M5840 6021 l-35 -6 0 -70 0 -70 70 -3 c39 -1 75 1 81 5 6 5 14 41 18
81 l6 72 -52 -1 c-29 -1 -69 -4 -88 -8z"/>
<path d="M6048 6013 c-16 -4 -20 -15 -33 -94 l-7 -36 62 -12 c34 -7 65 -10 68
-6 12 11 18 135 8 145 -10 10 -66 12 -98 3z"/>
<path d="M7373 5985 c0 -22 2 -30 4 -17 2 12 2 30 0 40 -3 9 -5 -1 -4 -23z"/>
<path d="M3380 5852 c3 -108 11 -99 -85 -106 -47 -3 -124 -9 -171 -12 l-86 -6
6 -37 c3 -20 6 -56 6 -79 l0 -44 78 7 c42 4 83 12 90 18 8 6 41 7 87 4 l75 -7
0 80 0 80 85 0 85 0 0 75 c0 52 -4 77 -12 79 -7 3 -46 7 -86 10 l-74 5 2 -67z"/>
<path d="M6326 5903 c-3 -8 -6 -43 -6 -78 l0 -63 86 -7 c47 -4 88 -4 91 -2 3
3 2 38 -2 76 -8 80 -3 76 -107 85 -44 3 -58 1 -62 -11z"/>
<path d="M4078 5823 c17 -2 47 -2 65 0 17 2 3 4 -33 4 -36 0 -50 -2 -32 -4z"/>
<path d="M6117 5733 c-4 -3 -7 -37 -7 -75 l0 -68 85 0 85 0 0 38 c0 20 3 54 6
75 l7 37 -85 0 c-47 0 -88 -3 -91 -7z"/>
<path d="M5301 5634 c0 -11 3 -14 6 -6 3 7 2 16 -1 19 -3 4 -6 -2 -5 -13z"/>
<path d="M5950 5516 l0 -76 81 0 81 0 -7 68 c-4 37 -9 68 -10 70 -1 2 -35 6
-74 9 l-71 6 0 -77z"/>
<path d="M2878 5498 c4 -81 2 -82 -106 -83 l-73 0 5 -29 c3 -16 6 -53 6 -82
l0 -54 80 0 80 0 0 81 0 81 85 -3 85 -4 0 80 0 80 -82 0 -83 0 3 -67z"/>
<path d="M4775 5515 c-5 -2 -50 -7 -100 -11 -72 -6 -83 -9 -54 -14 20 -3 55
-5 77 -4 23 1 45 -2 48 -7 3 -5 16 -9 29 -9 13 0 28 -7 33 -16 8 -14 14 -15
46 -4 44 14 57 37 31 56 -17 13 -84 18 -110 9z"/>
<path d="M5158 5484 c-38 -20 -36 -28 2 -9 17 9 30 18 30 20 0 7 -1 6 -32 -11z"/>
<path d="M7558 5438 c6 -6 18 -8 28 -6 14 3 12 5 -9 10 -19 3 -25 2 -19 -4z"/>
<path d="M5800 5425 c0 -20 -33 -32 -109 -41 l-61 -7 0 -53 c0 -58 17 -84 54
-84 30 0 96 27 96 40 0 5 21 12 48 16 26 4 64 13 85 21 32 13 37 20 37 47 0
71 -5 76 -81 76 -55 0 -69 -3 -69 -15z"/>
<path d="M1274 5404 c3 -11 6 -45 7 -76 3 -72 19 -66 19 8 l0 54 73 2 72 1
-75 6 c-41 3 -81 10 -89 15 -10 6 -12 4 -7 -10z"/>
<path d="M9433 5413 c9 -2 25 -2 35 0 9 3 1 5 -18 5 -19 0 -27 -2 -17 -5z"/>
<path d="M3605 5391 l-50 -6 0 -65 c0 -36 -3 -98 -5 -139 l-5 -73 75 -3 c41
-2 80 -4 87 -4 7 -1 15 -17 19 -36 14 -76 103 -125 238 -132 80 -4 88 -3 82
12 -3 9 -6 36 -6 59 l0 42 -70 11 c-39 6 -77 17 -86 23 -8 7 -17 31 -21 53 -5
33 -8 37 -14 22 -6 -16 -8 -16 -8 -4 -1 20 -43 49 -70 49 -12 0 -21 -8 -24
-22 -4 -20 -4 -19 -6 5 0 15 -5 27 -10 27 -11 0 -21 47 -28 128 -5 69 3 65
-98 53z"/>
<path d="M3908 5379 c-23 -13 -25 -91 -3 -112 31 -32 137 -32 213 -1 31 13 33
16 30 56 -2 34 -8 45 -28 55 -30 15 -187 17 -212 2z"/>
<path d="M4980 5347 c-19 -18 -42 -42 -49 -53 -8 -10 8 3 37 31 47 45 57 56
50 55 -2 0 -19 -15 -38 -33z"/>
<path d="M2275 5281 c-6 -11 13 -26 22 -17 4 3 0 6 -8 7 -8 0 -6 4 6 9 16 7
17 9 3 9 -9 1 -19 -3 -23 -8z"/>
<path d="M1468 5243 c6 -2 18 -2 25 0 6 3 1 5 -13 5 -14 0 -19 -2 -12 -5z"/>
<path d="M4830 5205 c-25 -25 -64 -57 -87 -71 -24 -14 -43 -27 -43 -30 0 -3
17 5 38 17 38 23 156 129 143 129 -4 0 -27 -20 -51 -45z"/>
<path d="M5145 5238 c-3 -7 -6 -38 -8 -68 l-2 -55 78 -3 77 -3 0 65 c0 74 -3
76 -86 76 -35 0 -56 -5 -59 -12z"/>
<path d="M5460 5175 l0 -75 69 0 c84 0 93 8 89 87 l-3 58 -77 3 -78 3 0 -76z"/>
<path d="M5291 5015 l2 -75 78 0 79 0 0 75 0 75 -81 0 -80 0 2 -75z"/>
<path d="M4593 5073 c9 -2 25 -2 35 0 9 3 1 5 -18 5 -19 0 -27 -2 -17 -5z"/>
<path d="M4054 4921 c-6 -7 -5 -95 2 -130 l7 -31 67 0 c75 0 80 4 80 82 0 53
-28 75 -97 80 -30 1 -57 1 -59 -1z"/>
<path d="M5127 4863 c3 -38 6 -69 7 -69 0 -1 34 -4 74 -6 l72 -5 0 73 0 74
-79 0 -79 0 5 -67z"/>
<path d="M4626 4902 c-7 -12 1 -103 10 -112 5 -5 39 -11 75 -15 64 -7 67 -6
74 15 9 28 9 96 0 110 -7 12 -151 14 -159 2z"/>
<path d="M4957 4773 c-4 -3 -7 -37 -7 -74 l0 -67 80 -4 80 -3 0 78 0 77 -73 0
c-41 0 -77 -3 -80 -7z"/>
<path d="M4211 4761 c-10 -6 -11 -21 -6 -58 3 -27 9 -53 13 -59 4 -5 34 -18
67 -29 59 -19 120 -21 140 -5 6 5 15 10 20 12 6 1 9 10 7 18 -1 8 -4 26 -6 40
-2 14 -4 28 -5 32 0 3 -15 10 -32 13 -18 4 -50 16 -73 26 -43 20 -102 24 -125
10z"/>
<path d="M4870 4623 c-58 -4 -70 -13 -70 -53 0 -43 13 -51 76 -52 41 0 53 -3
39 -8 -11 -5 -15 -9 -8 -9 6 -1 18 -4 27 -7 24 -9 23 93 -1 113 -10 8 -12 11
-4 7 9 -5 12 -3 7 4 -4 7 -8 11 -9 10 -1 -1 -27 -3 -57 -5z"/>
<path d="M4488 4558 c-2 -23 -2 -54 2 -68 6 -22 13 -26 66 -31 79 -9 224 1
225 15 1 6 3 22 5 36 8 64 3 67 -108 74 -57 3 -122 8 -144 12 l-42 6 -4 -44z"/>
<path d="M7830 4140 c0 -12 -15 -29 -38 -44 -21 -13 -47 -37 -57 -52 -28 -45
-107 -119 -143 -135 -18 -8 -30 -19 -27 -26 2 -7 7 -54 11 -105 l7 -92 -29 18
c-16 10 -40 28 -54 41 -14 12 -52 40 -85 62 -60 40 -60 40 -141 35 -79 -4 -81
-5 -99 -38 -17 -32 -80 -84 -102 -84 -17 0 -23 -53 -23 -196 0 -125 -1 -135
-21 -146 -11 -7 -30 -30 -41 -51 -14 -29 -32 -44 -68 -60 l-49 -22 -3 -214 -3
-214 -29 -10 c-16 -5 -43 -25 -59 -44 -17 -19 -41 -39 -54 -44 -23 -8 -23 -11
-23 -163 l0 -155 -70 -7 c-49 -5 -70 -11 -70 -20 0 -23 112 -18 157 6 21 11
51 20 68 20 26 0 34 -7 59 -54 16 -29 26 -61 23 -69 -6 -15 -85 -37 -133 -37
-19 0 -26 -6 -31 -30 -3 -17 -8 -28 -11 -26 -9 10 -87 -39 -127 -80 -36 -37
-46 -41 -103 -47 -35 -4 -67 -9 -72 -12 -4 -3 -11 -32 -15 -65 -6 -53 -10 -60
-28 -60 -23 0 -124 -30 -143 -42 -7 -4 -15 -28 -18 -52 -7 -42 -9 -45 -70 -74
-63 -30 -106 -71 -133 -127 -9 -16 -47 -57 -85 -90 -39 -33 -74 -71 -80 -84
-14 -39 -20 -131 -8 -131 7 0 8 -6 1 -19 -9 -16 -7 -17 14 -13 16 3 36 22 57
55 17 27 39 57 48 66 9 9 39 46 67 82 29 36 67 73 85 83 38 21 93 89 103 127
5 22 15 28 63 39 31 7 71 18 89 25 29 12 32 17 38 79 l7 66 84 0 84 0 0 38 c0
20 5 44 10 52 7 11 10 11 10 2 0 -10 14 -12 55 -9 30 2 59 -1 65 -7 7 -7 10 1
10 27 0 20 0 40 -1 43 -2 16 31 24 97 24 81 0 84 3 84 93 0 40 3 47 19 47 28
0 116 -73 131 -109 12 -31 13 -31 84 -31 l72 0 14 42 c12 35 26 49 75 79 38
23 64 46 69 63 l10 26 331 -6 332 -6 7 48 c3 26 6 59 6 75 0 26 3 28 58 34 31
3 64 7 72 8 8 1 18 16 21 32 12 63 21 73 79 99 41 19 74 26 117 26 59 0 60 0
82 -40 12 -22 26 -40 30 -40 5 0 7 -11 6 -25 -2 -14 1 -25 6 -25 5 0 9 30 9
68 l0 67 78 3 c42 2 79 5 81 7 2 2 7 59 11 127 6 103 5 126 -8 141 -8 9 -19
17 -24 17 -5 0 -33 16 -63 35 -60 38 -71 68 -38 101 21 21 75 44 103 44 12 0
20 7 20 18 0 9 6 35 14 56 12 34 20 42 57 53 24 7 56 14 72 15 15 0 27 1 28 2
0 1 3 82 6 182 l5 181 -62 51 -62 52 -104 0 -104 0 -17 -35 c-11 -23 -30 -41
-58 -54 -29 -14 -51 -34 -69 -65 -18 -31 -37 -49 -61 -57 l-34 -13 6 -129 6
-129 -34 17 c-19 10 -79 50 -134 89 -145 103 -185 128 -230 141 -49 15 -51 33
-6 60 72 43 112 88 118 131 l5 41 65 7 c82 9 94 20 87 82 -3 27 -1 94 3 148
l9 100 -69 68 -70 68 -103 0 c-97 0 -104 -1 -104 -20z m125 -83 c49 -3 60 -6
59 -20 0 -9 -2 -68 -3 -129 l-1 -113 -67 -50 c-36 -27 -87 -69 -113 -92 -74
-67 -82 -62 -78 52 2 74 0 96 -11 100 -10 4 -12 17 -7 52 8 60 28 90 66 98 43
9 60 31 60 75 0 31 3 37 18 34 9 -2 44 -5 77 -7z m-641 -326 c10 -4 32 -20 50
-35 41 -37 222 -163 266 -186 19 -10 87 -59 150 -109 63 -50 141 -105 173
-122 32 -17 73 -43 90 -58 29 -25 73 -54 330 -218 45 -29 96 -57 113 -63 44
-15 58 -53 49 -135 -3 -36 -9 -65 -12 -65 -22 0 -291 174 -440 284 -45 34
-104 75 -130 92 -79 50 -408 274 -562 383 -79 55 -149 101 -156 101 -27 0 -37
28 -30 84 l7 56 42 -1 c22 0 49 -4 60 -8z m1366 -279 c-6 -25 -8 -70 -4 -107
6 -62 6 -65 -15 -65 -35 0 -58 -17 -128 -91 -55 -57 -68 -67 -80 -57 -11 8
-14 24 -10 50 3 21 1 36 -4 32 -5 -3 -9 8 -9 25 0 34 9 62 19 58 3 -2 15 5 25
16 17 18 18 20 2 14 -10 -4 -29 -10 -43 -13 l-26 -7 6 68 c6 75 16 90 73 101
30 5 32 9 38 58 7 51 7 52 39 49 18 -2 52 0 77 4 l45 9 3 -50 c2 -28 -2 -70
-8 -94z m-1310 -98 c53 -34 129 -90 170 -125 41 -34 133 -101 204 -147 72 -46
177 -119 235 -162 58 -42 125 -90 149 -105 37 -25 41 -30 26 -38 -32 -18 -88
-26 -101 -15 -21 17 -26 4 -31 -82 l-5 -80 -53 0 c-29 0 -64 4 -77 9 -32 12
-37 1 -37 -85 l0 -64 -62 1 c-61 1 -137 16 -94 18 11 1 17 4 13 7 -11 12 50
54 78 54 8 0 15 7 15 16 0 11 6 15 20 11 15 -4 20 0 20 14 0 18 -11 19 -239
19 l-239 0 -78 -36 c-43 -19 -83 -43 -91 -52 -11 -15 -12 -10 -13 34 0 43 -4
55 -28 76 -47 42 -136 98 -154 98 -23 0 -24 37 -3 67 10 15 17 60 22 143 3 66
10 123 14 126 17 10 48 -17 59 -51 15 -47 218 -236 286 -267 32 -15 101 8 122
40 31 48 144 138 161 128 11 -7 32 40 25 56 -3 7 -35 34 -72 61 -37 26 -106
76 -154 111 -72 53 -95 65 -133 68 -26 2 -49 0 -51 -4 -5 -8 41 -52 93 -90 81
-59 189 -152 205 -176 15 -22 15 -29 5 -37 -7 -5 -16 -18 -20 -28 -5 -13 -14
-16 -33 -13 -15 3 -32 -1 -40 -9 -13 -12 -25 -9 -92 22 -42 20 -97 43 -120 51
-41 14 -43 17 -38 43 4 22 2 29 -11 29 -8 0 -33 15 -54 34 -34 31 -57 40 -129
49 -12 2 -16 20 -18 85 -3 76 -1 82 17 82 11 0 36 14 54 30 26 22 45 30 74 30
l39 0 -4 60 c-6 85 -1 95 40 74 18 -9 76 -45 128 -80z m-425 -715 c70 -56 154
-113 193 -130 37 -16 53 -56 51 -129 l-2 -45 -7 40 c-4 22 -8 34 -9 28 -1 -9
-8 -10 -28 -2 -15 5 -39 7 -53 3 -14 -4 -32 -6 -40 -5 -23 4 -109 60 -167 109
-53 43 -53 44 -53 101 0 32 3 61 7 64 17 18 62 4 108 -34z"/>
<path d="M5698 4103 c7 -3 16 -2 19 1 4 3 -2 6 -13 5 -11 0 -14 -3 -6 -6z"/>
<path d="M5738 4103 c7 -3 16 -2 19 1 4 3 -2 6 -13 5 -11 0 -14 -3 -6 -6z"/>
<path d="M2050 3365 l0 -65 -60 0 -60 0 0 -34 c0 -18 3 -60 6 -93 l6 -60 45
11 c30 6 57 6 83 -1 44 -11 50 -5 50 50 l0 32 87 0 88 0 22 45 c12 25 22 48
22 53 1 4 -35 7 -80 7 l-81 0 7 33 c4 17 14 41 21 52 8 11 14 23 14 27 0 5
-38 8 -85 8 l-85 0 0 -65z"/>
<path d="M2878 2900 c4 -35 6 -39 23 -29 10 5 19 19 19 29 0 16 7 20 38 21 84
2 86 17 2 18 l-86 1 4 -40z"/>
<path d="M6458 2233 c7 -3 16 -2 19 1 4 3 -2 6 -13 5 -11 0 -14 -3 -6 -6z"/>
<path d="M6381 2208 c0 -16 2 -18 6 -8 3 8 11 18 17 22 7 5 4 8 -6 8 -12 0
-18 -7 -17 -22z"/>
<path d="M6000 1873 c0 -26 1 -26 14 -8 14 20 12 35 -5 35 -5 0 -9 -12 -9 -27z"/>
<path d="M5841 1672 c-17 -31 -13 -40 5 -14 9 13 14 26 11 29 -3 2 -10 -4 -16
-15z"/>
<path d="M5651 1244 c0 -11 3 -14 6 -6 3 7 2 16 -1 19 -3 4 -6 -2 -5 -13z"/>
<path d="M5776 1095 c-3 -8 -1 -15 4 -15 6 0 10 7 10 15 0 8 -2 15 -4 15 -2 0
-6 -7 -10 -15z"/>
</g>
</svg>
