<?xml version="1.0" standalone="no"?>
<!DOCTYPE svg PUBLIC "-//W3C//DTD SVG 20010904//EN"
 "http://www.w3.org/TR/2001/REC-SVG-20010904/DTD/svg10.dtd">
<svg version="1.0" xmlns="http://www.w3.org/2000/svg"
 width="1024.000000pt" height="1024.000000pt" viewBox="0 0 1024.000000 1024.000000"
 preserveAspectRatio="xMidYMid meet">

<g transform="translate(0.000000,1024.000000) scale(0.100000,-0.100000)"
fill="#000000" stroke="none">
<path d="M3765 8408 l1 -293 62 3 62 4 0 -72 0 -71 54 6 54 7 4 -107 c3 -79 7
-108 18 -115 21 -14 94 -12 108 2 8 8 12 62 12 178 l0 165 -65 -3 c-57 -3 -65
-2 -66 15 -2 54 -15 86 -27 67 -4 -6 -17 -14 -29 -18 -13 -4 -23 -14 -23 -22
0 -20 -16 -18 -26 4 -4 9 -9 131 -10 271 -2 196 -6 256 -16 262 -7 5 -36 9
-64 9 l-51 0 2 -292z"/>
<path d="M3210 8637 c-30 -5 -58 -14 -62 -20 -4 -6 -4 -34 -1 -61 7 -60 40
-102 72 -91 14 4 21 2 21 -7 0 -10 3 -9 10 2 8 13 10 13 14 0 3 -8 7 -31 8
-50 l3 -35 58 -3 57 -3 0 57 0 57 -60 -6 -59 -5 -3 87 -3 86 -55 -8z"/>
<path d="M3392 8245 l3 -114 -60 -3 -60 -3 -5 -70 -5 -70 -35 3 c-19 1 -46 5
-58 8 -13 2 -21 1 -18 -4 3 -5 24 -12 47 -15 23 -3 45 -9 50 -14 4 -4 13 -49
20 -100 l12 -92 56 -3 56 -3 3 -47 3 -48 64 0 c35 0 67 -4 70 -10 3 -5 26 -10
51 -10 l44 0 0 -110 c0 -70 5 -122 13 -143 13 -31 16 -32 65 -29 l52 4 0 170
0 171 -55 -7 -54 -6 -9 32 c-8 32 -9 33 -59 30 l-50 -4 -7 51 -7 51 -59 0 -60
0 0 130 0 130 54 0 c30 0 57 4 61 9 3 6 7 60 10 120 l4 111 -70 0 -70 0 3
-115z"/>
<path d="M4780 7695 l0 -54 -67 6 -66 6 6 -24 c4 -13 7 -40 7 -60 0 -41 5 -44
74 -54 l46 -7 0 61 0 61 120 0 120 0 0 -59 0 -59 38 9 c75 17 81 15 84 -43 l3
-52 56 3 56 2 7 -60 c4 -33 10 -60 14 -60 4 1 53 1 109 0 114 -1 108 3 116
-81 l4 -35 64 0 c50 0 64 -3 65 -15 0 -8 2 -37 2 -64 l2 -49 125 7 c86 5 125
3 125 -4 0 -6 -12 -8 -27 -5 -46 8 -73 -18 -73 -70 l0 -45 73 0 c39 0 96 0
125 0 l52 1 0 -61 0 -61 70 7 70 7 0 -63 0 -62 60 4 60 3 0 -72 0 -73 -64 0
-64 0 9 -42 c14 -58 8 -67 -40 -61 -22 3 -50 3 -63 0 -21 -6 -24 -12 -23 -64
l0 -58 -59 -5 -59 -5 -1 -50 -1 -50 -55 -8 c-30 -5 -70 -9 -87 -9 l-33 -2 3
-55 2 -56 -67 -3 -68 -3 1 -37 c1 -23 3 -29 6 -14 2 12 12 22 21 22 9 0 27 3
40 6 18 5 22 2 22 -17 -1 -39 -25 -62 -59 -57 -37 5 -44 -8 -42 -79 l2 -52
-53 -3 -53 -3 -3 -52 -3 -52 -62 -3 -62 -3 3 -67 4 -68 -61 0 -60 0 -3 -62
c-3 -61 -4 -63 -31 -66 -16 -2 -42 1 -59 7 -17 6 -33 9 -35 7 -2 -2 -7 -29
-10 -59 -6 -60 -14 -67 -78 -67 l-31 0 0 63 c-1 34 -6 83 -11 110 -5 26 -6 47
-1 47 4 0 8 9 8 20 0 18 -7 20 -57 20 -55 -1 -57 -1 -33 -14 16 -9 31 -11 41
-5 14 7 16 5 12 -10 -3 -10 0 -22 6 -25 6 -4 11 -18 11 -32 0 -18 -9 -29 -36
-41 -34 -17 -37 -17 -49 0 -10 14 -18 16 -39 7 -15 -5 -43 -10 -62 -10 l-34 0
0 55 0 55 -61 0 -62 0 7 69 6 69 -68 7 c-37 5 -97 7 -134 6 l-68 -3 7 62 6 62
-70 -4 -69 -3 7 40 c5 22 8 45 9 52 0 9 -36 13 -132 15 l-133 3 -3 58 -3 57
-64 0 -65 0 0 -62 0 -63 60 3 60 4 0 -45 c0 -79 -3 -77 135 -77 122 0 124 0
123 -22 -1 -13 -1 -40 0 -61 l2 -39 59 7 58 7 7 -32 c3 -18 6 -46 6 -62 l0
-30 49 7 c66 9 91 0 91 -31 0 -23 3 -24 35 -18 70 13 69 14 78 -51 5 -33 10
-61 11 -62 1 -1 27 2 59 6 l57 8 1 -31 c2 -52 12 -71 39 -72 81 -4 176 -19
182 -28 4 -6 8 -23 8 -38 0 -52 7 -58 76 -58 l64 0 0 -65 0 -65 -60 7 -60 6 0
-67 0 -67 -65 7 -65 7 0 -65 0 -64 -60 4 -60 4 3 -63 2 -64 -65 3 -65 4 3 -46
c5 -61 -5 -103 -21 -87 -6 6 -30 11 -54 11 l-43 0 0 -76 0 -77 -64 7 -65 6 -7
-56 -7 -56 -53 4 -53 5 -3 -61 -3 -61 -134 -3 -133 -3 4 62 4 61 -52 -6 c-74
-8 -84 -2 -84 50 l0 44 -65 0 -65 0 0 50 0 50 -40 0 c-33 0 -40 -3 -40 -20 0
-15 7 -20 25 -20 16 0 25 -6 25 -15 0 -8 5 -15 10 -15 6 0 10 -7 10 -15 0 -11
-12 -15 -44 -15 l-45 0 -3 51 -3 52 -65 1 -65 1 2 88 1 87 -76 1 c-43 1 -98 1
-124 -1 l-48 -2 0 61 0 61 -70 0 -70 0 0 58 0 57 -65 -3 -65 -4 0 56 c0 61 -2
62 -74 57 -15 -2 -39 0 -52 3 -22 6 -24 12 -24 66 0 41 -4 60 -12 60 -9 0 -13
-19 -13 -60 l1 -60 -42 0 -42 0 -6 63 c-3 34 -6 90 -6 125 l0 63 -82 -3 -83
-3 0 -230 0 -230 -67 3 -68 4 0 -61 0 -61 -65 0 -65 0 0 -60 c0 -59 1 -60 28
-60 15 0 44 -3 65 -6 l37 -7 0 68 0 68 46 -7 c26 -3 55 -6 65 -6 16 0 19 -8
19 -55 l0 -55 35 0 c40 0 40 -1 20 36 -8 16 -15 38 -15 50 0 17 5 20 30 16
l30 -4 0 -127 0 -127 60 4 60 4 0 -50 0 -51 -60 -7 -60 -7 0 -56 0 -57 -60 6
-59 6 6 -58 6 -58 -62 0 -61 0 0 54 0 54 -62 -1 -63 -2 -3 55 c-2 30 -7 59
-11 63 -5 5 -36 5 -70 1 l-61 -7 0 -41 c0 -77 4 -81 73 -81 l62 0 5 -50 5 -50
51 -3 c51 -3 52 -3 58 -40 10 -63 11 -62 -59 -62 -61 0 -65 -1 -65 -23 0 -35
-9 -38 -52 -16 -55 28 -69 21 -56 -30 17 -67 9 -75 -72 -67 l-69 7 6 -64 6
-65 -67 5 -66 6 0 -62 0 -61 -65 0 -64 0 -3 58 -3 57 -127 9 -127 8 1 44 c1
54 18 57 48 9 15 -24 29 -35 46 -35 21 0 24 4 24 40 0 44 1 43 -75 44 l-50 1
-3 50 c-3 38 1 52 14 62 15 11 5 13 -64 13 l-82 0 0 -126 0 -126 65 4 65 4 -2
-65 -3 -65 63 -1 c34 -2 66 -5 69 -9 4 -4 7 -32 7 -62 l1 -56 68 7 67 7 0 -61
0 -61 53 0 c67 0 83 -17 79 -81 l-3 -47 73 -6 c40 -4 99 -9 131 -12 l59 -6 -7
-69 -7 -69 75 0 c42 0 79 -4 82 -10 3 -5 23 -10 44 -10 l38 0 8 -52 c5 -29 9
-78 9 -108 l1 -56 63 4 62 4 0 -51 c0 -48 1 -51 26 -51 14 0 34 5 44 10 15 8
21 6 30 -10 9 -17 21 -20 69 -20 67 0 72 -7 64 -82 l-5 -43 38 -2 c22 -1 76
-3 122 -4 l82 -2 0 -63 0 -64 60 0 60 0 0 -54 0 -54 37 19 c63 32 83 23 83
-40 0 -46 21 -65 64 -58 59 9 66 2 66 -63 l0 -58 60 5 c42 4 60 2 60 -6 0 -8
18 -11 53 -9 l52 3 5 -55 5 -55 45 3 c25 1 54 4 65 7 19 4 20 -1 20 -53 l0
-57 63 -3 62 -3 0 -59 0 -60 51 0 c27 0 81 -5 119 -11 l69 -12 3 -56 3 -56 63
-3 62 -3 0 -56 0 -55 128 7 c70 4 130 9 135 12 4 2 7 26 7 54 l0 49 60 0 60 0
0 65 0 64 65 -6 65 -6 0 67 0 66 49 0 c30 0 51 -5 54 -12 3 -8 6 -6 6 5 1 14
11 17 61 17 41 0 60 -4 61 -12 2 -23 18 66 18 105 1 32 4 37 25 37 13 0 38 3
55 6 29 6 31 9 31 50 l0 44 44 0 c25 0 48 -5 51 -10 13 -22 25 3 25 53 0 64 9
79 46 76 69 -5 74 -3 74 45 0 70 3 73 65 66 59 -7 65 -2 65 50 l0 29 55 -6 55
-6 0 70 0 69 65 -4 65 -4 0 59 0 60 53 7 c28 3 71 6 95 6 l42 0 0 60 0 59 58
3 57 3 3 58 3 57 59 0 60 0 0 63 0 62 61 -3 c74 -5 80 2 72 79 l-6 56 69 -1
69 -1 3 59 3 59 53 -6 c33 -3 58 -1 65 6 6 6 11 38 11 70 l0 60 65 -7 65 -7 0
66 0 65 59 0 c33 0 63 5 66 10 3 6 30 10 60 10 l54 0 3 53 3 52 55 0 c30 0 58
5 62 10 4 6 8 36 8 68 l0 57 60 0 60 0 0 59 0 59 45 -10 c25 -5 52 -8 59 -5 8
3 16 30 20 66 l7 60 52 -2 52 -1 3 58 3 59 59 -6 c33 -4 61 -3 64 1 3 5 1 34
-3 65 l-8 57 100 0 100 0 -6 56 -6 56 57 -4 57 -3 3 63 3 62 71 0 c55 0 68 3
60 13 -13 15 -18 85 -8 115 4 13 5 45 1 73 l-7 49 -49 0 -49 0 0 60 0 60 -71
0 -72 0 7 61 6 62 -86 -6 -85 -5 2 55 c3 65 -5 73 -79 73 l-53 0 2 53 3 52
-127 3 -127 3 0 59 0 60 60 0 60 0 0 66 0 65 58 -2 57 -3 3 73 3 73 66 -7 66
-7 -7 120 -7 121 38 3 38 3 -1 47 c0 52 8 58 78 58 l36 0 7 76 c4 41 5 95 2
120 l-5 44 63 0 c69 0 75 6 75 77 0 40 9 43 138 42 l102 -1 0 -59 0 -59 60 0
59 0 3 -67 3 -68 60 3 60 4 -7 -139 c-9 -188 -9 -1625 0 -1639 4 -7 35 -15 70
-19 l62 -7 0 604 c0 333 3 767 7 966 l6 362 -71 0 -72 0 0 120 0 120 -111 0
-111 0 4 60 4 60 -258 0 -258 0 0 -65 0 -65 -155 6 -155 7 0 -56 0 -57 -60 0
-60 0 0 -60 0 -60 -67 -1 c-38 0 -88 -4 -113 -7 l-45 -7 -2 -45 c-1 -25 -2
-51 -2 -58 -1 -10 -17 -12 -73 -6 l-71 7 6 -58 c3 -32 10 -62 15 -67 6 -6 32
-7 61 -3 l51 7 0 38 c0 70 1 70 114 69 55 -1 130 -4 166 -8 l64 -6 12 -84 c7
-47 10 -90 8 -98 -2 -7 -7 -21 -11 -30 -3 -10 -5 -46 -4 -80 l3 -63 -61 0 -61
0 1 -56 c1 -34 -3 -59 -10 -64 -7 -4 -34 -5 -61 -2 l-49 4 -3 -63 -3 -63 -62
3 -61 2 5 -62 6 -62 -67 5 -68 6 7 -70 7 -70 -67 7 c-59 7 -67 6 -62 -7 3 -9
9 -36 12 -62 6 -36 4 -47 -8 -51 -11 -5 -13 -14 -6 -43 12 -50 11 -72 -2 -72
-5 0 -7 5 -4 10 3 6 1 10 -4 10 -6 0 -11 -6 -11 -13 0 -9 -11 -12 -35 -9 -21
3 -35 10 -35 18 0 14 12 18 38 15 10 -2 12 4 7 18 -7 22 10 30 18 9 2 -7 8
-10 12 -5 5 4 4 20 -1 35 -8 23 -16 27 -52 30 l-44 3 3 -50 c2 -28 0 -54 -4
-57 -4 -4 -7 -36 -7 -71 l0 -65 -30 7 c-16 4 -43 4 -60 0 -29 -6 -30 -8 -30
-63 l0 -57 -73 -2 c-39 -1 -91 -5 -114 -8 -39 -6 -43 -9 -43 -36 0 -16 6 -30
13 -31 6 0 17 -2 22 -2 6 -1 19 -7 30 -14 18 -10 16 -11 -18 -12 -23 0 -36 4
-32 10 9 15 -4 12 -21 -5 -9 -8 -24 -15 -35 -15 -21 0 -24 18 -10 66 5 17 6
36 2 41 -3 6 -38 13 -78 16 l-71 7 -7 -43 c-3 -23 -8 -54 -11 -69 l-5 -27 80
6 81 6 0 -127 0 -126 -50 -1 c-27 -1 -56 -2 -62 -3 -9 -1 -13 16 -14 50 -1 28
-4 56 -8 63 -4 6 -29 11 -57 11 l-49 0 0 63 0 62 -63 0 -62 0 3 -52 c3 -47 1
-55 -26 -80 -16 -16 -33 -43 -37 -61 -8 -37 -34 -52 -91 -52 l-34 0 0 -55 0
-55 -71 0 -71 0 6 31 c3 17 6 42 6 55 0 22 4 24 45 24 48 0 44 -5 71 103 6 25
10 27 60 27 l54 0 0 61 0 61 38 -6 c20 -4 32 -3 26 1 -13 10 -13 85 1 96 27
20 -27 28 -157 24 l-136 -4 -6 30 c-3 16 -6 45 -6 64 l0 34 156 -3 156 -3 -4
64 -4 63 63 -4 63 -4 0 63 c0 70 -6 66 90 67 39 1 38 0 27 96 -5 47 -4 52 7
38 9 -13 26 -18 57 -17 69 1 74 6 74 74 0 67 -8 63 89 49 l49 -7 -7 73 -6 73
62 -7 c34 -4 67 -8 73 -9 13 -3 6 126 -7 134 -7 4 -7 9 0 13 5 3 15 -1 22 -9
13 -15 67 -20 108 -9 20 6 22 13 22 66 0 49 3 59 15 54 8 -3 37 -8 63 -12 57
-7 61 -3 54 67 -3 43 -6 47 -34 53 -17 3 -43 6 -59 6 l-29 0 0 295 0 295 -76
0 -77 0 6 58 c3 31 3 62 -1 68 -4 7 -32 11 -67 10 l-60 -1 -8 105 c-5 58 -10
106 -12 108 -2 2 -58 4 -124 5 l-121 2 0 63 0 62 -75 0 -75 0 0 59 0 58 -70
-5 -70 -5 0 67 0 66 -125 0 -125 0 0 55 0 54 -67 3 c-66 3 -68 4 -71 31 -4 34
-15 35 -30 2 -9 -19 -19 -25 -42 -25 -27 0 -30 3 -30 33 0 17 -3 43 -7 55 -6
25 -12 25 -88 6 -26 -6 -27 -5 -25 32 3 66 5 64 -61 64 l-62 0 6 54 5 53 -66
7 c-37 3 -95 6 -129 6 l-63 0 0 -55z m1428 -802 c9 -27 8 -33 -4 -33 -10 0
-14 11 -14 37 0 42 3 41 18 -4z m1532 -313 c0 -17 -7 -20 -41 -20 -50 0 -49
22 2 31 19 4 35 7 37 8 1 0 2 -8 2 -19z m-300 -192 c0 -20 -8 -22 -30 -7 -10
7 -11 12 -4 15 7 3 10 15 7 27 -4 21 -4 22 11 3 9 -11 16 -28 16 -38z m134 -4
c3 -8 2 -12 -4 -9 -6 3 -10 10 -10 16 0 14 7 11 14 -7z m-1754 -209 c0 -40
-10 -57 -26 -44 -14 11 -19 60 -8 72 12 12 34 -6 34 -28z m493 -23 c5 -7 19
-11 31 -10 18 3 22 -4 29 -47 18 -110 11 -145 -28 -145 -14 0 -25 -5 -25 -12
0 -6 -7 -3 -15 8 -11 14 -14 48 -14 139 1 66 4 111 6 100 3 -11 10 -26 16 -33z
m4 26 c-3 -8 -6 -5 -6 6 -1 11 2 17 5 13 3 -3 4 -12 1 -19z m-157 -145 c0 -89
-3 -93 -52 -78 l-41 12 -1 55 c-1 31 2 54 5 52 4 -2 13 3 20 12 19 23 52 34
61 20 4 -6 8 -39 8 -73z m-241 -15 c1 -14 -7 -18 -30 -18 -17 0 -39 5 -50 10
-16 9 -17 14 -6 30 6 11 22 20 34 20 12 0 25 6 29 12 8 13 21 -18 23 -54z m89
-180 c7 -15 11 -17 11 -8 1 12 3 13 10 1 7 -11 -20 -137 -31 -146 -2 -1 -20
-5 -40 -8 -43 -7 -42 -10 -32 105 4 37 11 65 15 62 5 -3 9 0 9 5 0 21 47 11
58 -11z m1245 -605 c-17 -16 -33 -37 -36 -48 -2 -11 -5 1 -6 28 l-1 47 37 0
37 0 -31 -27z m171 -89 c3 -9 6 -36 6 -60 l0 -44 -50 0 c-27 0 -50 4 -50 8 0
5 7 32 15 60 14 47 19 52 44 52 17 0 31 -7 35 -16z m304 -132 c6 -9 12 -37 12
-64 l0 -48 60 0 60 0 0 -60 0 -60 -34 0 c-62 0 -84 -15 -88 -57 -3 -36 -5 -38
-38 -41 l-35 -3 5 -66 6 -66 -118 6 -118 7 0 -61 0 -61 -122 6 c-68 3 -130 5
-138 6 -8 0 -32 -2 -52 -6 l-37 -6 -3 63 -3 64 -62 -3 -63 -4 0 45 0 46 45 7
c25 3 49 4 52 1 3 -3 12 1 21 10 12 12 28 14 69 9 l53 -6 0 66 0 67 61 -6 61
-5 -4 61 -4 62 62 -3 61 -4 7 50 c3 27 3 57 0 67 -7 16 2 17 132 10 109 -5
142 -10 152 -23z m-2361 -67 c0 -8 -6 -15 -14 -15 -7 0 -13 7 -13 15 0 8 6 15
13 15 8 0 14 -7 14 -15z m-2620 -122 c-3 -10 -5 -4 -5 12 0 17 2 24 5 18 2 -7
2 -21 0 -30z m2500 -15 c-3 -8 -6 -5 -6 6 -1 11 2 17 5 13 3 -3 4 -12 1 -19z
m363 -64 l0 -52 -52 -9 -53 -8 -5 -60 -5 -60 -115 4 c-63 2 -116 4 -116 5 -1
0 -4 27 -7 59 l-6 57 65 0 64 0 0 60 0 60 55 -6 c42 -5 56 -4 60 8 5 11 15 12
60 4 l55 -10 0 -52z m-2679 -5 c17 -24 17 -28 3 -33 -30 -11 -34 -6 -33 47 1
28 4 43 6 32 3 -11 14 -32 24 -46z m3933 -1 c6 -4 20 -8 31 -8 12 0 28 -12 38
-30 l18 -30 -55 0 -56 0 1 53 c0 28 3 45 6 37 3 -8 11 -18 17 -22z m-1730 -14
c9 -25 0 -30 -39 -26 l-37 4 29 19 c34 23 39 23 47 3z m1696 -113 c0 -53 -6
-60 -53 -53 -27 4 -29 7 -25 48 3 37 0 44 -17 47 -11 2 6 5 38 6 l57 1 0 -49z
m-3757 -3 c-33 -12 -43 -8 -43 18 l0 25 30 -18 c26 -15 28 -19 13 -25z m2847
-90 l0 -53 -69 -22 c-37 -13 -78 -23 -91 -23 -16 0 -20 -4 -16 -16 3 -9 6 -33
6 -55 0 -38 1 -39 36 -39 56 0 133 38 140 69 14 64 13 62 62 59 l47 -3 6 -42
c7 -58 0 -66 -60 -62 l-51 4 -6 -56 -6 -57 -62 -15 c-33 -9 -71 -19 -83 -23
-22 -6 -23 -4 -23 60 l0 66 -65 0 c-73 0 -71 -3 -58 85 l6 48 56 -6 56 -6 19
64 18 64 62 4 c33 2 64 4 69 5 4 1 7 -22 7 -50z m1042 -25 l3 -58 58 3 c56 2
58 1 68 -28 6 -16 15 -27 20 -24 5 3 9 -1 9 -8 0 -7 20 -24 45 -37 45 -24 45
-24 45 -77 l0 -54 -68 0 -68 0 1 -57 0 -58 -63 3 -64 4 4 -64 c3 -55 1 -63
-14 -62 -10 0 -63 1 -118 2 l-100 2 0 60 0 60 -65 0 -66 0 3 103 3 102 55 0
c30 0 58 5 62 10 5 6 5 36 2 69 l-7 59 60 -5 61 -4 6 58 7 58 59 0 59 0 3 -57z
m-2075 -25 c-3 -8 -6 -5 -6 6 -1 11 2 17 5 13 3 -3 4 -12 1 -19z m-1864 -35
c4 -2 7 -29 7 -59 l0 -54 65 0 65 0 -7 -60 c-5 -54 -4 -60 13 -60 14 0 15 -3
6 -12 -7 -7 -12 -29 -12 -51 l0 -38 63 3 62 3 3 57 c3 49 6 57 26 62 13 3 38
3 55 0 29 -6 30 -9 33 -62 l3 -56 56 3 57 2 7 -65 7 -66 65 0 66 0 -7 -62 c-4
-35 -9 -65 -12 -67 -2 -2 -29 -6 -59 -9 l-55 -4 0 -37 c0 -48 7 -57 55 -70 64
-17 65 -17 65 44 0 70 9 75 144 75 l106 0 0 -65 0 -65 118 0 c111 0 118 -1
119 -20 1 -11 -3 -20 -9 -20 -6 0 -8 -13 -6 -30 4 -29 3 -30 -28 -28 -18 1
-36 -1 -40 -5 -4 -4 14 -7 39 -7 47 0 47 0 47 -35 0 -31 -3 -35 -37 -44 -21
-5 -47 -11 -58 -13 -11 -2 -21 -12 -23 -23 -8 -39 -21 -45 -80 -38 l-55 6 6
-55 7 -56 -65 -7 c-36 -3 -65 -11 -65 -16 0 -6 -5 -7 -12 -3 -7 5 -29 7 -49 5
-42 -3 -51 7 -59 64 l-5 40 -63 -3 -62 -4 0 34 0 33 -52 0 -53 0 -5 54 c-7 62
-2 66 71 58 l49 -6 0 63 0 64 -57 5 c-32 2 -61 3 -65 0 -5 -2 -8 -28 -8 -57
l0 -53 -47 -6 c-69 -7 -76 -2 -68 49 l6 44 -60 0 c-46 0 -61 4 -61 14 0 10
-20 16 -70 21 l-69 7 -7 45 c-5 33 -3 48 7 54 11 7 10 9 -5 9 -13 0 -16 5 -11
18 4 9 10 36 12 60 l6 42 -128 0 -128 0 6 54 5 54 -58 4 c-32 2 -66 10 -75 18
-10 8 -32 13 -51 11 l-34 -3 0 51 0 50 53 3 52 3 3 47 3 47 55 6 54 7 0 60 0
60 113 -7 c61 -4 115 -9 120 -12z m2435 -103 l42 0 0 -175 0 -175 -66 0 -67 0
6 -66 5 -66 -67 4 c-65 3 -66 3 -65 -22 0 -14 3 -42 8 -62 l7 -38 -66 0 -65 0
0 -63 0 -64 -112 -9 -113 -9 0 -55 0 -55 -59 -5 -60 -5 3 -62 2 -62 -132 6
c-123 6 -132 5 -126 -11 4 -10 4 -68 1 -130 l-7 -112 -56 7 c-31 4 -89 8 -128
8 l-73 1 0 65 0 65 -65 0 -65 0 1 -32 c1 -18 4 -46 8 -63 6 -29 9 -30 66 -35
l60 -5 3 -62 3 -63 -71 0 -70 0 0 65 0 65 -35 0 c-19 0 -55 7 -80 16 -25 8
-60 14 -77 12 -27 -3 -32 1 -39 26 -5 16 -13 32 -19 36 -8 5 -8 20 -1 51 6 24
13 57 16 73 6 28 6 28 60 21 l55 -6 0 57 0 57 60 -6 c64 -5 65 -5 60 51 -1 17
5 24 28 28 17 3 44 20 61 36 39 38 55 29 47 -28 l-6 -44 65 0 c35 0 67 -4 70
-10 3 -5 26 -10 50 -10 24 0 47 -4 50 -10 15 -24 20 -5 17 64 l-3 73 -46 7
c-25 3 -78 6 -118 6 l-73 0 -4 56 c-4 66 -1 67 77 62 l55 -3 0 63 0 62 32 -5
c18 -4 34 -8 37 -10 10 -11 -25 -88 -43 -95 -15 -6 -5 -9 34 -9 l56 -1 -1 58
0 57 60 0 60 0 3 -52 c3 -56 -3 -52 94 -69 40 -7 37 -12 38 70 0 21 -1 41 -4
43 -2 2 -29 7 -60 10 l-56 6 0 48 c0 26 -3 54 -6 63 -5 14 3 16 55 16 60 0 61
-1 61 -27 0 -16 3 -45 6 -65 l7 -38 58 0 59 0 0 65 0 65 -60 0 -61 0 3 58 c3
57 3 57 37 60 19 2 44 1 57 -2 21 -6 24 -12 24 -52 0 -44 1 -45 45 -64 65 -28
77 -20 73 49 l-3 56 -50 5 c-49 5 -50 6 -57 45 -13 77 -14 75 53 75 60 0 60 0
59 -27 -1 -16 -2 -42 -1 -59 l1 -32 63 3 c39 1 62 7 61 14 -1 6 -2 33 -2 60
l-2 48 -52 9 -53 9 0 45 0 45 39 -2 c48 -3 49 -4 50 -50 2 -36 4 -39 41 -48
22 -5 46 -14 53 -18 24 -16 42 13 42 69 l0 53 43 4 c23 2 58 3 77 1 19 -2 54
-4 78 -4z m-1883 -50 c11 -16 27 -31 35 -34 8 -2 -6 -4 -32 -5 -46 -1 -48 0
-48 27 0 50 17 55 45 12z m2589 4 c12 -45 -1 -64 -42 -63 -29 0 -33 2 -17 9
18 7 16 8 -10 11 -19 3 -31 11 -33 22 -7 35 6 47 52 47 39 0 45 -3 50 -26z
m-1514 -45 c0 -17 -4 -28 -10 -24 -5 3 -10 17 -10 31 0 13 5 24 10 24 6 0 10
-14 10 -31z m210 -29 c10 -7 11 -10 2 -10 -7 0 -19 -18 -28 -40 -23 -57 -44
-53 -44 10 0 48 1 50 28 50 15 0 34 -5 42 -10z m743 -100 c-4 -4 -27 -10 -50
-14 l-43 -6 0 49 c0 50 0 50 38 56 20 4 42 8 47 9 12 3 20 -84 8 -94z m452 35
l0 -50 -60 0 c-51 0 -60 3 -59 18 1 9 2 33 3 52 l1 36 58 -3 57 -3 0 -50z
m-1538 -12 c-3 -10 -5 -4 -5 12 0 17 2 24 5 18 2 -7 2 -21 0 -30z m1999 -42
c61 -1 62 -1 68 -32 3 -17 6 -44 6 -60 l0 -29 58 6 c74 8 75 5 66 -133 l-7
-103 -68 0 c-78 0 -86 -9 -74 -86 l6 -44 -64 0 c-74 0 -77 -3 -77 -81 l0 -49
-60 0 -60 0 0 60 0 60 -60 0 -59 0 -7 59 c-7 66 -13 71 -91 71 -47 0 -47 -1
-36 75 l6 47 102 -4 c65 -2 106 1 112 7 12 13 20 60 29 160 3 39 7 75 9 81 2
7 25 8 71 3 38 -5 97 -8 130 -8z m-3908 -1 c39 0 42 -2 44 -27 1 -16 3 -37 4
-48 1 -11 2 -26 3 -32 1 -9 20 -13 60 -13 l58 0 6 -67 c4 -38 7 -87 7 -110 0
-38 3 -42 30 -48 41 -9 70 2 70 27 0 11 3 18 8 16 4 -2 35 -14 70 -27 l62 -24
0 -42 0 -43 43 5 c23 2 50 6 60 8 12 2 17 -3 17 -20 0 -20 6 -23 56 -27 64 -5
74 -15 74 -75 0 -47 -5 -50 -85 -55 -39 -3 -40 -3 -48 -53 -4 -27 -11 -53 -15
-56 -4 -4 -30 -4 -59 0 l-52 7 -8 -45 c-7 -33 -13 -45 -24 -42 -7 2 -31 6 -51
9 l-38 4 0 -57 0 -57 -55 7 -55 6 0 -49 0 -50 -42 -4 c-61 -7 -68 -2 -68 48 0
48 -2 49 -62 35 -48 -11 -61 3 -56 61 l3 43 -60 0 c-33 0 -62 3 -65 6 -3 4 -3
37 -2 73 l4 66 64 0 c52 0 62 3 58 15 -4 8 -3 36 1 61 5 38 9 44 23 38 9 -4
29 -9 45 -12 28 -4 32 2 27 56 -1 21 2 22 59 22 l61 0 0 60 0 60 -65 0 -65 0
0 -51 c0 -41 -3 -50 -15 -45 -8 3 -22 9 -32 13 -11 4 -14 3 -9 -5 4 -7 1 -12
-9 -12 -9 0 -18 -12 -22 -31 l-6 -31 -61 4 -61 3 -3 -67 -3 -68 -124 0 -125 0
0 65 0 65 -60 0 c-33 0 -60 4 -60 10 0 6 -27 10 -62 10 l-63 0 3 60 4 60 53 0
53 0 4 61 c5 70 14 79 80 79 l46 0 7 40 c6 33 10 39 21 30 20 -18 72 -3 80 23
10 31 22 37 87 37 l57 0 0 56 0 56 68 -6 c37 -3 86 -6 110 -6z m2070 -26 c-5
-20 -7 -45 -5 -55 3 -11 1 -16 -4 -13 -15 9 -8 104 7 104 9 0 10 -9 2 -36z
m1244 -29 l3 -55 -42 0 -43 0 0 55 0 55 39 0 39 0 4 -55z m-1522 -20 c0 -29
-4 -35 -22 -35 -17 0 -19 3 -10 12 7 7 12 22 12 35 0 13 5 23 10 23 6 0 10
-16 10 -35z m1194 -14 c3 -5 -12 -9 -34 -9 -22 0 -40 3 -40 9 0 12 67 12 74 0z
m-1034 -77 c0 -24 -4 -44 -10 -44 -5 0 -10 23 -10 51 0 31 4 48 10 44 6 -3 10
-26 10 -51z m1654 39 c-5 -5 -12 -12 -15 -16 -3 -5 -9 -2 -12 7 -5 12 0 16 15
16 12 0 17 -3 12 -7z m-17 -73 c-3 -14 0 -17 12 -13 14 4 14 3 1 -6 -24 -17
-30 -13 -30 20 0 19 4 28 11 23 6 -3 9 -14 6 -24z m-3364 -47 c-7 -2 -19 -2
-25 0 -7 3 -2 5 12 5 14 0 19 -2 13 -5z m3155 -132 l52 0 0 -49 c0 -64 14 -76
85 -70 l55 5 0 -64 c0 -35 3 -63 8 -63 4 0 7 -28 7 -63 l0 -62 -71 -3 -71 -3
5 -54 4 -55 -62 0 -62 0 4 -60 3 -60 -52 0 -53 0 0 50 0 50 -44 0 c-36 0 -46
4 -51 20 -6 18 -14 21 -63 18 l-57 -3 -3 55 -3 55 -57 -3 -57 -3 0 65 0 66 57
0 57 0 6 38 c13 81 14 82 45 82 23 0 30 -4 30 -20 0 -23 8 -25 34 -5 11 8 16
21 13 30 -5 12 3 15 48 15 l55 0 0 51 0 51 43 -6 c23 -3 66 -5 95 -5z m-1048
-161 c-13 -8 -12 -10 3 -10 9 0 17 -4 17 -10 0 -5 9 -10 20 -10 10 0 24 -9 30
-20 10 -19 8 -20 -40 -20 l-50 0 0 40 c0 31 4 40 18 40 14 0 15 -2 2 -10z
m-1534 -83 c3 -2 7 -27 11 -54 5 -50 5 -50 34 -40 33 13 79 -4 79 -28 0 -12
12 -15 54 -15 l54 0 5 -37 c5 -42 -1 -172 -9 -185 -3 -4 -30 -8 -60 -8 l-54 0
0 -54 0 -54 60 -4 60 -3 0 62 0 62 38 6 c73 12 83 16 92 38 8 21 9 21 9 -5 1
-27 3 -28 55 -28 58 0 66 -8 66 -72 0 -25 2 -26 53 -25 44 1 53 -2 61 -20 8
-16 22 -22 67 -27 l57 -7 7 -50 c4 -28 5 -52 2 -55 -3 -3 -61 -5 -131 -5
l-126 1 0 -68 0 -67 130 3 130 4 0 -66 0 -66 60 0 59 0 3 63 3 62 67 3 66 3
-1 -43 -2 -43 44 -5 c33 -4 46 -10 51 -26 13 -35 -3 -47 -54 -42 l-46 6 0 -39
c0 -36 2 -39 28 -39 16 0 37 -7 48 -15 28 -21 34 -18 34 14 0 26 3 29 46 35
80 11 104 8 102 -11 -1 -10 0 -39 0 -65 2 -47 2 -47 28 -38 14 6 41 10 60 10
l35 0 -3 -57 -3 -58 60 -5 60 -5 0 -55 0 -55 -60 -5 -60 -5 2 -57 2 -58 -38 0
c-58 0 -101 -11 -101 -26 0 -22 -16 -24 -60 -9 -23 8 -44 15 -47 15 -2 0 -1
-27 3 -60 l7 -60 -136 0 -136 0 -3 53 -3 52 -50 1 c-49 2 -49 1 -9 -5 40 -6
40 -7 40 -46 l-1 -40 -47 -3 -47 -3 -3 58 -3 58 -63 3 -63 3 1 52 c1 29 1 58
1 65 -1 8 -21 12 -67 12 l-66 0 4 54 3 53 -113 7 c-62 4 -117 4 -122 1 -6 -4
-10 32 -10 94 l0 101 60 0 60 0 0 55 0 55 -37 0 c-21 0 -48 3 -60 6 -22 6 -23
4 -23 -50 l0 -56 -72 0 c-40 0 -97 -3 -127 -7 l-53 -6 3 57 4 56 -67 0 -67 0
-3 62 -3 62 -57 -3 -57 -2 -3 58 -3 58 -65 0 c-72 0 -68 -6 -59 80 4 39 3 40
-28 43 -38 4 -56 -21 -47 -66 5 -25 2 -32 -16 -42 -23 -12 -23 -12 -17 39 9
75 5 81 -64 81 l-59 0 0 61 0 62 44 -6 c24 -4 50 -8 58 -9 9 -2 14 12 16 50
l3 52 49 0 c29 0 50 -5 53 -12 5 -12 9 22 11 87 1 30 1 30 59 30 l57 0 0 31
c0 27 4 32 31 38 17 3 46 6 64 6 28 0 33 4 39 31 3 17 6 43 6 57 0 24 1 25 61
19 33 -3 63 -7 65 -10z m1474 -107 c0 -13 -11 -13 -30 0 -12 8 -11 10 8 10 12
0 22 -4 22 -10z m607 -18 c6 -4 13 -30 15 -57 l3 -50 54 3 c63 4 71 -3 71 -70
0 -27 5 -48 11 -48 6 0 8 9 4 21 -6 19 -3 20 42 17 46 -3 48 -4 51 -35 3 -32
5 -33 47 -33 l43 0 4 -47 c3 -27 3 -51 1 -55 -2 -5 -52 -8 -110 -8 l-106 0 6
-68 7 -68 -65 4 -65 4 0 -56 0 -56 -55 0 -55 0 0 60 0 60 -66 0 -66 0 4 55 3
54 -60 3 -60 3 -3 78 -3 77 -38 0 c-22 0 -44 6 -51 15 -9 10 -9 15 -1 15 6 0
11 9 11 19 0 15 8 21 33 23 30 3 33 0 42 -37 10 -39 12 -40 60 -46 28 -3 53
-4 58 -2 4 2 7 29 7 60 l0 56 60 -6 60 -7 1 53 c1 28 1 58 0 65 -2 13 85 17
106 4z m-830 -94 c-3 -7 -5 -2 -5 12 0 14 2 19 5 13 2 -7 2 -19 0 -25z m253
-269 c9 -4 62 -5 118 -2 l102 6 0 -56 c0 -83 1 -84 71 -79 l61 5 -3 -59 -4
-59 55 0 c30 0 58 -4 62 -10 4 -5 8 -35 8 -65 l0 -55 -60 3 -60 4 0 -46 0 -46
-60 0 -60 0 0 -60 0 -60 -77 0 c-43 0 -72 -4 -66 -8 7 -4 16 -22 19 -40 6 -30
5 -32 -22 -32 -52 0 -74 11 -74 35 0 17 7 25 23 28 19 4 18 4 -5 6 -21 1 -29
7 -34 26 -5 20 -12 25 -38 25 -64 0 -74 8 -81 61 l-7 49 -59 0 -59 0 0 80 0
80 -32 1 c-18 1 -48 0 -65 -1 l-33 -1 2 70 1 71 52 0 51 0 13 -62 c7 -35 18
-66 24 -70 7 -4 29 -8 50 -8 22 0 37 -5 38 -12 2 -22 17 46 18 83 1 36 2 37
51 43 28 4 55 4 60 1 11 -7 25 99 15 122 -6 16 -8 16 -16 -4 -7 -20 -26 -29
-53 -24 -19 4 -56 -31 -56 -53 0 -19 -5 -23 -27 -23 -74 0 -92 -3 -96 -20 -2
-10 -4 20 -4 67 1 47 2 64 4 38 4 -51 21 -64 68 -54 11 3 23 5 26 5 11 2 38
69 35 87 -2 11 -2 22 1 26 4 8 102 -1 123 -13z m-143 -31 c-3 -8 -6 -5 -6 6
-1 11 2 17 5 13 3 -3 4 -12 1 -19z m-367 -32 c0 -50 -8 -56 -76 -56 -43 0 -44
0 -44 34 0 59 7 66 66 66 l54 0 0 -44z"/>
<path d="M6011 5794 c0 -11 3 -14 6 -6 3 7 2 16 -1 19 -3 4 -6 -2 -5 -13z"/>
<path d="M6812 4600 c0 -14 2 -19 5 -12 2 6 2 18 0 25 -3 6 -5 1 -5 -13z"/>
<path d="M6697 4270 c3 -11 7 -20 9 -20 2 0 4 9 4 20 0 11 -4 20 -9 20 -5 0
-7 -9 -4 -20z"/>
<path d="M6701 4224 c0 -11 3 -14 6 -6 3 7 2 16 -1 19 -3 4 -6 -2 -5 -13z"/>
<path d="M3030 4035 l0 -55 65 0 65 0 0 55 0 55 -65 0 -65 0 0 -55z"/>
<path d="M5278 4073 c7 -3 16 -2 19 1 4 3 -2 6 -13 5 -11 0 -14 -3 -6 -6z"/>
<path d="M4528 3724 c-2 -5 -2 -35 0 -66 l4 -58 38 0 c21 0 45 -3 54 -6 14 -5
16 4 16 60 0 63 -1 66 -24 66 -13 0 -37 3 -54 6 -16 3 -32 2 -34 -2z"/>
<path d="M4270 3323 c0 -77 6 -83 70 -83 64 0 70 6 70 83 l0 37 -70 0 -70 0 0
-37z"/>
<path d="M4412 3200 c0 -14 2 -19 5 -12 2 6 2 18 0 25 -3 6 -5 1 -5 -13z"/>
<path d="M6270 3750 c-12 -8 -11 -10 8 -10 12 0 22 5 22 10 0 13 -11 13 -30 0z"/>
<path d="M6333 3593 c9 -2 23 -2 30 0 6 3 -1 5 -18 5 -16 0 -22 -2 -12 -5z"/>
<path d="M3407 2983 c-4 -3 -7 -32 -7 -64 l0 -57 -51 5 c-68 6 -89 -12 -89
-79 l0 -49 68 3 67 3 3 58 c3 63 5 64 72 70 l45 4 3 56 3 57 -54 0 c-29 0 -57
-3 -60 -7z"/>
<path d="M4010 2525 c0 -9 9 -15 21 -15 18 0 19 2 5 15 -8 8 -17 15 -20 15 -3
0 -6 -7 -6 -15z"/>
<path d="M4273 2452 l7 -62 -65 0 -65 0 0 -45 0 -45 -67 0 -68 0 3 -55 c4 -61
11 -68 79 -80 l42 -7 3 64 3 63 60 1 60 1 3 47 3 48 59 -4 c67 -3 70 0 70 80
l0 42 -42 0 c-24 0 -54 3 -67 7 -24 6 -24 6 -18 -55z"/>
<path d="M3704 2369 c16 -4 36 -4 44 0 10 6 0 9 -29 9 -40 0 -41 -1 -15 -9z"/>
<path d="M6556 7570 c-19 -6 -19 -7 -1 -13 20 -8 29 -4 24 11 -2 5 -13 6 -23
2z"/>
<path d="M5955 7560 c4 -6 3 -16 -3 -23 -5 -7 -10 -36 -11 -64 l-2 -53 50 0
c50 0 51 1 51 30 0 24 4 30 23 31 12 0 16 3 10 6 -7 2 -13 11 -13 19 0 8 -4
14 -10 14 -5 0 -14 9 -20 20 -8 15 -8 18 3 14 7 -2 24 -1 38 4 18 7 7 10 -49
11 -48 1 -71 -3 -67 -9z"/>
<path d="M4524 7431 l6 -111 -65 0 -65 0 0 -60 c0 -59 1 -60 28 -60 15 0 44
-3 65 -6 l37 -7 0 67 0 66 63 0 64 0 -5 103 c-2 56 -5 103 -6 103 0 1 -30 4
-65 8 l-64 7 7 -110z"/>
<path d="M6550 7476 c0 -2 7 -7 16 -10 8 -3 12 -2 9 4 -6 10 -25 14 -25 6z"/>
<path d="M5790 7380 l0 -45 52 2 c29 1 56 2 59 2 4 1 9 17 11 36 4 39 1 41
-79 47 l-43 4 0 -46z"/>
<path d="M2815 7300 c4 -7 -3 -9 -22 -5 -23 4 -22 3 7 -8 19 -8 36 -21 38 -30
2 -10 9 -17 15 -17 7 0 6 -4 -3 -10 -13 -9 -13 -11 0 -20 17 -11 27 13 29 68
1 30 -1 32 -35 32 -22 0 -33 -4 -29 -10z m35 -10 c0 -5 -5 -10 -11 -10 -5 0
-7 5 -4 10 3 6 8 10 11 10 2 0 4 -4 4 -10z"/>
<path d="M4883 7303 l-103 -4 0 -59 0 -60 -61 0 -62 0 6 -66 6 -67 -68 5 -68
5 1 -61 1 -61 -65 -3 -65 -3 3 -64 4 -65 -66 0 -66 0 0 -100 0 -99 -64 6 c-35
3 -66 2 -69 -3 -3 -5 -3 -60 0 -122 l6 -113 44 7 c29 4 48 2 59 -7 10 -8 40
-12 85 -11 l69 2 0 -59 0 -59 105 -7 c57 -4 112 -5 121 -1 14 5 16 -2 13 -56
l-4 -63 73 3 72 4 0 -60 c0 -52 2 -60 18 -57 9 2 36 6 60 8 l42 5 0 -59 0 -59
148 0 c81 0 157 -3 170 -6 21 -6 22 -4 22 57 0 35 3 88 7 118 l6 53 54 -6 53
-6 0 66 0 66 63 -4 62 -3 0 61 0 62 48 5 c26 4 52 9 57 12 6 3 10 31 10 62 l0
56 43 -7 c90 -13 82 -19 80 58 l-1 69 74 -6 74 -5 0 59 0 59 -70 0 -70 0 0 61
0 60 -116 -5 -116 -6 4 60 4 60 -72 0 -72 0 5 58 5 57 -116 -1 -116 -2 0 59
c0 33 -3 59 -7 59 -58 4 -107 11 -112 16 -3 3 -6 30 -5 60 0 49 -2 54 -20 52
-12 -1 -67 -4 -123 -5z"/>
<path d="M6690 7290 c-8 -5 -33 -10 -55 -10 -41 0 -41 0 -37 -34 3 -28 9 -35
34 -40 36 -7 99 -7 81 1 -7 2 -13 20 -13 39 0 39 12 47 55 36 27 -8 30 -12 27
-45 -2 -32 0 -37 18 -37 18 0 20 6 19 50 l-2 50 -56 0 c-31 0 -63 -5 -71 -10z"/>
<path d="M6498 7273 c12 -2 30 -2 40 0 9 3 -1 5 -23 4 -22 0 -30 -2 -17 -4z"/>
<path d="M2884 7160 c3 -19 6 -50 6 -67 0 -33 0 -33 49 -33 77 0 81 4 81 70
l0 58 -71 4 -71 3 6 -35z"/>
<path d="M4270 7159 c0 -83 5 -89 70 -89 l58 0 4 58 c2 31 3 59 2 61 -2 2 -32
6 -68 8 l-66 6 0 -44z"/>
<path d="M5213 7176 c9 -7 17 -26 17 -42 0 -58 18 -59 21 0 l4 56 -30 0 c-27
-1 -28 -2 -12 -14z"/>
<path d="M6333 7144 l12 -27 6 24 c7 24 7 24 8 2 1 -20 7 -23 38 -23 35 0 36
1 17 15 -13 11 -14 13 -3 9 10 -3 19 1 22 10 5 13 -3 16 -53 16 l-60 0 13 -26z"/>
<path d="M4150 7005 l0 -65 58 0 57 0 0 63 0 62 -57 3 -58 3 0 -66z"/>
<path d="M4013 6899 c4 -29 9 -54 12 -57 3 -3 30 -7 60 -10 l55 -4 0 55 c0 63
-5 67 -82 67 l-51 0 6 -51z"/>
<path d="M3890 6779 l0 -62 -65 7 -65 7 0 -38 c0 -62 9 -81 41 -87 16 -3 43
-9 59 -12 l30 -6 0 62 0 62 54 -4 c62 -5 66 -1 66 85 l0 47 -60 0 -60 0 0 -61z"/>
<path d="M3100 6779 c-58 -4 -170 -15 -250 -25 -80 -10 -180 -18 -223 -18
l-78 0 2 -51 c3 -72 -3 -79 -67 -72 l-54 6 0 -195 0 -194 60 0 c59 0 60 0 60
-29 0 -16 3 -42 6 -59 l6 -30 110 2 c97 1 111 -1 123 -18 8 -10 16 -24 18 -30
4 -13 175 -22 187 -10 5 5 12 27 15 50 l7 40 -66 -4 c-55 -4 -66 -2 -66 11 0
29 -27 43 -86 46 -76 2 -124 11 -124 22 0 5 -24 9 -54 9 -30 0 -57 4 -61 9 -3
5 -7 93 -10 195 l-4 186 37 1 c20 1 183 5 362 8 l325 6 3 23 c4 29 36 45 78
40 l34 -4 0 48 0 48 -92 -2 c-51 -1 -140 -5 -198 -9z"/>
<path d="M3638 6420 l4 -180 -69 -1 c-37 -1 -95 0 -127 1 l-59 2 7 -53 c4 -29
10 -57 13 -62 3 -5 31 -6 62 -3 71 8 66 8 131 -3 62 -11 219 -12 265 -2 27 6
30 11 37 56 4 27 3 54 -2 60 -6 7 -31 10 -65 7 l-55 -4 0 45 c0 49 10 58 52
50 14 -3 29 0 32 6 4 6 -12 13 -44 17 l-50 7 0 102 c0 57 -3 110 -6 119 -5 12
-21 16 -68 16 l-61 0 3 -180z"/>
<path d="M3995 6220 c-3 -5 -1 -11 5 -15 5 -3 10 -4 10 0 0 3 9 1 20 -5 11 -6
20 -16 20 -23 0 -8 -3 -8 -9 1 -7 11 -9 11 -14 0 -3 -9 2 -14 14 -15 10 -1 19
3 19 10 0 6 7 1 16 -11 11 -16 22 -21 35 -17 12 4 19 1 20 -7 1 -7 5 7 9 32 4
25 7 46 6 46 -7 7 -147 11 -151 4z"/>
<path d="M6710 6096 c0 -18 3 -47 6 -63 6 -29 7 -30 70 -31 l64 -2 0 46 c0 73
-11 84 -80 84 l-60 0 0 -34z"/>
<path d="M3270 6060 l0 -61 -66 7 -65 7 3 -59 3 -59 35 -3 c85 -6 80 4 80
-148 0 -136 0 -136 -22 -131 -13 3 -40 9 -60 12 l-38 7 0 -183 0 -184 64 3 65
4 7 -36 c3 -20 4 -47 2 -61 l-5 -25 288 -2 c159 -1 297 -2 307 -2 14 -1 17 8
17 62 l0 62 63 0 62 0 0 153 c0 83 3 169 6 190 l7 37 -67 0 -66 0 0 55 0 55
-60 0 -60 0 0 63 c0 62 -1 64 -48 110 -57 56 -89 67 -204 67 -107 0 -133 -9
-152 -54 -8 -19 -24 -37 -35 -40 -66 -19 -61 -22 -61 38 l0 56 60 0 60 0 0 60
0 60 -60 0 -60 0 0 -60z m348 -186 c21 -6 22 -11 22 -120 l0 -114 -114 0 c-63
0 -117 4 -120 8 -2 4 -8 58 -12 120 l-7 112 104 0 c57 0 114 -3 127 -6z m7
-304 c3 -5 1 -10 -4 -10 -6 0 -11 5 -11 10 0 6 2 10 4 10 3 0 8 -4 11 -10z
m-12 -177 c-7 -2 -19 -2 -25 0 -7 3 -2 5 12 5 14 0 19 -2 13 -5z m-183 -13 c0
-5 -4 -10 -10 -10 -5 0 -10 5 -10 10 0 6 5 10 10 10 6 0 10 -4 10 -10z m43 -7
c-7 -2 -19 -2 -25 0 -7 3 -2 5 12 5 14 0 19 -2 13 -5z"/>
<path d="M4140 6109 c0 -5 11 -9 25 -9 14 0 25 2 25 4 0 2 -11 6 -25 8 -14 3
-25 1 -25 -3z"/>
<path d="M4252 6113 c-15 -6 -6 -23 14 -23 8 0 14 7 14 15 0 15 -6 17 -28 8z"/>
<path d="M4370 6106 c0 -2 7 -6 15 -10 8 -3 15 -1 15 4 0 6 -7 10 -15 10 -8 0
-15 -2 -15 -4z"/>
<path d="M5328 6095 c-9 -9 14 -64 29 -69 9 -4 13 5 13 30 0 27 -4 35 -14 31
-8 -3 -16 -1 -18 4 -2 6 -6 7 -10 4z"/>
<path d="M4345 5989 c-19 -4 1 -7 52 -8 93 -1 113 -6 113 -30 0 -14 2 -14 10
-1 5 8 10 23 10 32 0 15 -10 17 -77 15 -43 -1 -91 -5 -108 -8z"/>
<path d="M6970 5969 c0 -5 5 -7 10 -4 6 3 10 8 10 11 0 2 -4 4 -10 4 -5 0 -10
-5 -10 -11z"/>
<path d="M4524 5881 c-2 -2 -4 -13 -4 -23 0 -19 11 -24 24 -10 4 4 28 7 53 7
72 0 66 23 -7 27 -34 1 -64 1 -66 -1z"/>
<path d="M3020 5826 c0 -52 1 -54 31 -60 17 -3 44 -6 60 -6 29 0 29 1 29 60
l0 60 -60 0 -60 0 0 -54z"/>
<path d="M4703 5763 c15 -2 37 -2 50 0 12 2 0 4 -28 4 -27 0 -38 -2 -22 -4z"/>
<path d="M2988 5714 l-3 -39 -51 -3 c-47 -3 -52 -5 -57 -30 -3 -15 -3 -46 0
-69 l5 -41 57 -5 c31 -2 60 -2 64 0 9 5 2 211 -7 220 -3 3 -6 -12 -8 -33z"/>
<path d="M7760 5580 l0 -60 60 0 60 0 0 60 0 60 -60 0 -60 0 0 -60z"/>
<path d="M2745 5501 c-3 -16 -3 -46 1 -66 l6 -36 57 3 56 3 3 63 3 62 -60 0
c-58 0 -60 -1 -66 -29z"/>
<path d="M1940 5328 l0 -58 63 0 62 0 2 54 1 54 -64 4 -64 3 0 -57z"/>
<path d="M4432 5273 l-33 -4 3 -57 3 -57 118 0 c133 0 132 0 125 81 l-3 39
-90 1 c-49 1 -105 -1 -123 -3z"/>
<path d="M2180 5200 c0 -59 0 -60 29 -60 16 0 43 3 60 6 30 6 31 8 31 60 l0
54 -60 0 -60 0 0 -60z"/>
<path d="M4020 4976 c0 -30 4 -57 8 -60 4 -2 58 -6 120 -7 l112 -2 -1 -56 c-1
-55 -1 -55 -9 -16 -4 21 -13 41 -19 43 -6 2 -9 8 -5 13 3 5 -19 9 -49 9 l-55
0 8 -36 c5 -19 11 -38 14 -41 16 -16 -21 -33 -70 -33 l-54 0 0 60 0 60 -66 0
c-64 0 -66 -1 -60 -22 3 -13 6 -37 6 -55 0 -31 1 -32 55 -38 l55 -7 0 -54 0
-55 127 3 127 3 -3 51 c-1 30 2 55 9 59 16 10 88 -4 104 -20 11 -12 14 -4 20
47 11 105 15 98 -65 98 l-71 0 7 33 c4 17 9 42 12 55 5 22 5 22 -126 22 l-131
0 0 -54z"/>
<path d="M5828 5022 c-12 -2 -14 -10 -8 -35 4 -18 13 -44 21 -57 14 -24 14
-23 17 28 2 42 6 52 19 50 9 -2 18 2 20 8 3 10 -29 13 -69 6z"/>
<path d="M1781 4949 c0 -30 3 -70 7 -89 7 -35 7 -35 65 -38 l57 -2 0 85 0 85
-49 0 c-27 0 -56 3 -65 6 -13 5 -16 -3 -15 -47z"/>
<path d="M4364 4699 c-4 -6 -19 -9 -36 -5 -18 3 -27 2 -23 -4 10 -17 85 -12
85 5 0 17 -16 20 -26 4z"/>
<path d="M2170 4630 l0 -72 -60 4 -60 4 0 -69 0 -70 50 6 c28 3 55 9 60 12 5
3 12 31 16 63 8 67 12 76 27 63 7 -5 32 -11 57 -12 l45 -4 -3 65 c-2 36 -5 67
-7 68 -2 2 -31 6 -64 9 l-61 6 0 -73z"/>
<path d="M1796 4439 c3 -5 2 -58 -2 -118 l-7 -110 -66 -3 -65 -3 -9 -42 c-4
-24 -14 -43 -20 -44 -33 -2 65 -28 109 -28 l52 -1 -2 53 -1 52 61 3 c60 3 62
4 68 34 3 17 6 46 6 64 l0 34 65 0 65 0 0 38 c0 66 -10 72 -142 76 -68 2 -116
0 -112 -5z"/>
<path d="M8240 4435 c-6 -8 -27 -10 -60 -7 -54 5 -54 5 -41 -50 12 -50 -4 -62
-69 -56 l-49 5 -3 -61 -3 -61 -58 0 -59 0 -2 -65 c-1 -36 -3 -118 -4 -184 l-2
-119 -64 5 -64 6 6 -61 5 -60 -66 5 -67 6 0 -63 0 -62 -61 -7 c-34 -3 -131 -6
-215 -6 l-152 0 -7 -64 -7 -64 -59 5 -59 6 0 -71 0 -71 63 6 62 5 0 -63 0 -63
58 3 57 2 0 -60 0 -61 49 0 c56 0 61 -6 61 -82 l0 -51 -60 6 -60 5 0 -58 c0
-33 4 -61 8 -64 4 -2 56 0 116 7 l108 11 -5 50 c-3 33 0 58 9 71 10 15 11 31
4 60 -5 22 -10 68 -10 103 l0 62 -60 0 -60 0 0 55 0 54 -37 6 c-21 4 -45 7
-53 8 -11 2 -16 18 -18 58 l-3 57 47 7 c26 4 100 5 163 4 l116 -4 3 61 3 62
37 6 c20 3 49 6 65 6 15 0 27 4 27 9 0 5 16 5 38 0 71 -16 72 -15 72 51 l0 59
61 3 61 3 4 165 c6 218 4 210 56 199 62 -14 68 -9 68 62 l0 61 58 -4 57 -3 0
57 0 57 45 -6 c82 -12 85 -11 88 23 2 18 -1 47 -6 65 -8 33 -9 34 -65 35 -34
1 -60 -3 -67 -11z"/>
<path d="M1530 3279 c0 -59 1 -61 23 -55 12 3 38 6 58 6 l36 0 2 53 1 54 -60
2 -60 2 0 -62z"/>
<path d="M1940 2800 l0 -60 60 0 60 0 0 60 0 60 -60 0 -60 0 0 -60z"/>
<path d="M6593 2792 l2 -66 -135 -1 -135 -2 -3 -61 -3 -62 41 0 c44 0 47 -3
53 -68 4 -37 2 -43 -18 -48 -12 -3 -36 -4 -51 -2 -28 3 -29 6 -32 59 l-3 55
-77 -1 c-180 -3 -170 -1 -174 -37 l-3 -33 -69 3 -69 4 8 -49 c4 -26 9 -51 12
-56 2 -4 55 -4 117 -1 l113 7 7 -57 c4 -32 6 -60 3 -62 -3 -3 -30 -8 -61 -11
l-56 -6 0 -57 c0 -65 -5 -70 -73 -70 -44 0 -82 17 -59 27 7 3 12 23 12 49 l0
44 -60 0 c-69 0 -78 -14 -19 -30 38 -10 41 -14 37 -40 -3 -16 0 -31 6 -33 6
-2 0 -13 -14 -24 -13 -12 -30 -18 -37 -16 -7 3 -13 -2 -13 -12 0 -9 4 -13 10
-10 5 3 19 -6 32 -20 12 -14 30 -25 41 -25 16 0 17 -2 7 -16 -10 -11 -23 -14
-52 -9 l-38 7 0 -41 0 -41 41 0 c32 0 42 -4 46 -20 3 -12 14 -20 27 -20 11 0
38 -3 59 -6 l37 -7 0 72 0 71 64 0 64 0 -5 63 -5 62 71 -3 71 -4 0 66 0 66 65
0 65 0 0 83 0 83 70 -4 70 -4 0 68 0 69 63 0 62 0 3 58 3 58 47 -2 c26 -2 161
-2 300 -1 l252 2 0 64 0 63 -360 0 -359 0 2 -65z"/>
<path d="M2250 2733 l-65 -4 5 -57 5 -57 118 -1 117 -1 0 64 0 63 -57 -2 c-32
-1 -87 -3 -123 -5z"/>
<path d="M2060 2545 c0 -69 -1 -70 -46 -56 -16 5 -44 12 -61 15 l-33 6 0 -61
0 -61 -60 7 -60 7 0 -50 c0 -27 -3 -77 -6 -111 l-7 -61 72 0 71 0 0 60 0 61
66 -7 66 -7 -4 70 -3 70 35 -8 c19 -5 50 -9 68 -9 l32 0 0 100 0 100 -65 0
-65 0 0 -65z"/>
<path d="M3160 2440 c0 -5 5 -10 11 -10 5 0 7 5 4 10 -3 6 -8 10 -11 10 -2 0
-4 -4 -4 -10z"/>
<path d="M2440 2348 l0 -56 55 -4 55 -3 0 31 c0 17 3 45 6 61 l6 29 -61 0 -61
-1 0 -57z"/>
<path d="M5333 2303 c9 -2 25 -2 35 0 9 3 1 5 -18 5 -19 0 -27 -2 -17 -5z"/>
<path d="M2768 2173 l-108 -4 0 -59 0 -60 -50 0 -50 0 0 -56 0 -55 53 3 52 3
3 51 c4 62 7 64 135 64 l87 0 0 60 c0 33 -3 59 -7 58 -5 -1 -56 -4 -115 -5z"/>
<path d="M3538 2173 c7 -3 16 -2 19 1 4 3 -2 6 -13 5 -11 0 -14 -3 -6 -6z"/>
<path d="M5103 2073 c9 -2 23 -2 30 0 6 3 -1 5 -18 5 -16 0 -22 -2 -12 -5z"/>
<path d="M3150 1995 l0 -65 120 1 120 2 0 57 c0 56 -1 58 -31 64 -17 3 -71 6
-120 6 l-89 0 0 -65z"/>
<path d="M5500 2000 l0 -50 54 0 53 0 7 41 c4 22 4 44 1 50 -4 5 -31 9 -61 9
l-54 0 0 -50z"/>
<path d="M3020 1876 c0 -60 7 -66 83 -66 l37 0 0 60 0 60 -60 0 -60 0 0 -54z"/>
<path d="M5730 1881 c0 -35 3 -40 28 -44 54 -10 60 -6 64 40 l3 43 -47 0 -48
0 0 -39z"/>
<path d="M2884 1763 c4 -31 8 -58 9 -59 1 -1 31 -4 67 -6 73 -3 66 -12 62 82
l-2 40 -71 0 -72 0 7 -57z"/>
<path d="M4028 1813 c6 -2 18 -2 25 0 6 3 1 5 -13 5 -14 0 -19 -2 -12 -5z"/>
<path d="M2770 1625 l0 -65 60 0 60 0 0 65 0 65 -60 0 -60 0 0 -65z"/>
<path d="M5090 1480 c-32 -7 -31 -10 3 -14 17 -1 22 -66 5 -66 -9 0 -9 -3 2
-10 8 -5 45 -10 83 -10 l67 0 0 55 0 55 -62 -1 c-35 -1 -79 -5 -98 -9z"/>
</g>
</svg>
